%TF.GenerationSoftware,KiCad,Pcbnew,(7.0.0)*%
%TF.CreationDate,2024-04-19T19:54:10+02:00*%
%TF.ProjectId,IR Sensor Project,49522053-656e-4736-9f72-2050726f6a65,v1*%
%TF.SameCoordinates,Original*%
%TF.FileFunction,Copper,L2,Bot*%
%TF.FilePolarity,Positive*%
%FSLAX46Y46*%
G04 Gerber Fmt 4.6, Leading zero omitted, Abs format (unit mm)*
G04 Created by KiCad (PCBNEW (7.0.0)) date 2024-04-19 19:54:10*
%MOMM*%
%LPD*%
G01*
G04 APERTURE LIST*
%TA.AperFunction,ComponentPad*%
%ADD10C,1.400000*%
%TD*%
%TA.AperFunction,ComponentPad*%
%ADD11C,1.700000*%
%TD*%
%TA.AperFunction,ComponentPad*%
%ADD12R,1.700000X1.700000*%
%TD*%
%TA.AperFunction,ComponentPad*%
%ADD13O,1.700000X1.700000*%
%TD*%
%TA.AperFunction,ComponentPad*%
%ADD14R,1.365000X1.365000*%
%TD*%
%TA.AperFunction,ComponentPad*%
%ADD15C,1.365000*%
%TD*%
%TA.AperFunction,ComponentPad*%
%ADD16R,1.333000X1.333000*%
%TD*%
%TA.AperFunction,ComponentPad*%
%ADD17C,1.333000*%
%TD*%
%TA.AperFunction,ViaPad*%
%ADD18C,0.600000*%
%TD*%
%TA.AperFunction,Conductor*%
%ADD19C,0.200000*%
%TD*%
G04 APERTURE END LIST*
D10*
%TO.P,JP1,1,A*%
%TO.N,Net-(JP1-A)*%
X50800000Y-58420000D03*
%TO.P,JP1,2,B*%
%TO.N,PA3*%
X50800000Y-55880000D03*
%TD*%
D11*
%TO.P,LED2,1,A*%
%TO.N,Vcc*%
X73660000Y-101600000D03*
%TO.P,LED2,2,K*%
%TO.N,Net-(LED2-K)*%
X73660000Y-104140000D03*
%TD*%
D12*
%TO.P,J1,1,Pin_1*%
%TO.N,unconnected-(J1-Pin_1-Pad1)*%
X40639999Y-78739999D03*
D13*
%TO.P,J1,2,Pin_2*%
%TO.N,Vcc*%
X43179999Y-78739999D03*
%TO.P,J1,3,Pin_3*%
%TO.N,unconnected-(J1-Pin_3-Pad3)*%
X40639999Y-81279999D03*
%TO.P,J1,4,Pin_4*%
%TO.N,unconnected-(J1-Pin_4-Pad4)*%
X43179999Y-81279999D03*
%TO.P,J1,5,Pin_5*%
%TO.N,PA3*%
X40639999Y-83819999D03*
%TO.P,J1,6,Pin_6*%
%TO.N,unconnected-(J1-Pin_6-Pad6)*%
X43179999Y-83819999D03*
%TO.P,J1,7,Pin_7*%
%TO.N,PA4*%
X40639999Y-86359999D03*
%TO.P,J1,8,Pin_8*%
%TO.N,PE15*%
X43179999Y-86359999D03*
%TO.P,J1,9,Pin_9*%
%TO.N,GND*%
X40639999Y-88899999D03*
%TO.P,J1,10,Pin_10*%
%TO.N,PE14*%
X43179999Y-88899999D03*
%TO.P,J1,11,Pin_11*%
%TO.N,PA5*%
X40639999Y-91439999D03*
%TO.P,J1,12,Pin_12*%
%TO.N,PE13*%
X43179999Y-91439999D03*
%TO.P,J1,13,Pin_13*%
%TO.N,unconnected-(J1-Pin_13-Pad13)*%
X40639999Y-93979999D03*
%TO.P,J1,14,Pin_14*%
%TO.N,unconnected-(J1-Pin_14-Pad14)*%
X43179999Y-93979999D03*
%TO.P,J1,15,Pin_15*%
%TO.N,unconnected-(J1-Pin_15-Pad15)*%
X40639999Y-96519999D03*
%TO.P,J1,16,Pin_16*%
%TO.N,unconnected-(J1-Pin_16-Pad16)*%
X43179999Y-96519999D03*
%TO.P,J1,17,Pin_17*%
%TO.N,unconnected-(J1-Pin_17-Pad17)*%
X40639999Y-99059999D03*
%TO.P,J1,18,Pin_18*%
%TO.N,unconnected-(J1-Pin_18-Pad18)*%
X43179999Y-99059999D03*
%TO.P,J1,19,Pin_19*%
%TO.N,unconnected-(J1-Pin_19-Pad19)*%
X40639999Y-101599999D03*
%TO.P,J1,20,Pin_20*%
%TO.N,unconnected-(J1-Pin_20-Pad20)*%
X43179999Y-101599999D03*
%TO.P,J1,21,Pin_21*%
%TO.N,unconnected-(J1-Pin_21-Pad21)*%
X40639999Y-104139999D03*
%TO.P,J1,22,Pin_22*%
%TO.N,unconnected-(J1-Pin_22-Pad22)*%
X43179999Y-104139999D03*
%TO.P,J1,23,Pin_23*%
%TO.N,unconnected-(J1-Pin_23-Pad23)*%
X40639999Y-106679999D03*
%TO.P,J1,24,Pin_24*%
%TO.N,unconnected-(J1-Pin_24-Pad24)*%
X43179999Y-106679999D03*
%TO.P,J1,25,Pin_25*%
%TO.N,unconnected-(J1-Pin_25-Pad25)*%
X40639999Y-109219999D03*
%TO.P,J1,26,Pin_26*%
%TO.N,unconnected-(J1-Pin_26-Pad26)*%
X43179999Y-109219999D03*
%TO.P,J1,27,Pin_27*%
%TO.N,unconnected-(J1-Pin_27-Pad27)*%
X40639999Y-111759999D03*
%TO.P,J1,28,Pin_28*%
%TO.N,unconnected-(J1-Pin_28-Pad28)*%
X43179999Y-111759999D03*
%TD*%
D10*
%TO.P,JP9,1,A*%
%TO.N,Net-(JP9-A)*%
X53340000Y-139700000D03*
%TO.P,JP9,2,B*%
%TO.N,PA5*%
X53340000Y-137160000D03*
%TD*%
%TO.P,JP8,1,A*%
%TO.N,Net-(JP8-A)*%
X60960000Y-109220000D03*
%TO.P,JP8,2,B*%
%TO.N,PA4*%
X63500000Y-109220000D03*
%TD*%
%TO.P,JP7,1,A*%
%TO.N,Net-(JP7-A)*%
X60960000Y-101600000D03*
%TO.P,JP7,2,B*%
%TO.N,PA4*%
X63500000Y-101600000D03*
%TD*%
%TO.P,JP3,1,A*%
%TO.N,Net-(JP3-A)*%
X66040000Y-55880000D03*
%TO.P,JP3,2,B*%
%TO.N,PA3*%
X66040000Y-53340000D03*
%TD*%
%TO.P,JP10,1,A*%
%TO.N,Net-(JP10-A)*%
X60960000Y-139700000D03*
%TO.P,JP10,2,B*%
%TO.N,PA5*%
X60960000Y-137160000D03*
%TD*%
D14*
%TO.P,D2,1,K*%
%TO.N,Vcc*%
X74499999Y-96719999D03*
D15*
%TO.P,D2,2,A*%
%TO.N,PA4*%
X74500000Y-94180000D03*
%TD*%
D14*
%TO.P,D1,1,K*%
%TO.N,Vcc*%
X48779999Y-47429999D03*
D15*
%TO.P,D1,2,A*%
%TO.N,PA3*%
X46240000Y-47430000D03*
%TD*%
D10*
%TO.P,JP4,1,A*%
%TO.N,Net-(JP4-A)*%
X73660000Y-58420000D03*
%TO.P,JP4,2,B*%
%TO.N,PA3*%
X73660000Y-55880000D03*
%TD*%
%TO.P,JP2,1,A*%
%TO.N,Net-(JP2-A)*%
X58420000Y-55880000D03*
%TO.P,JP2,2,B*%
%TO.N,PA3*%
X58420000Y-53340000D03*
%TD*%
%TO.P,JP6,1,A*%
%TO.N,Net-(JP6-A)*%
X60960000Y-93980000D03*
%TO.P,JP6,2,B*%
%TO.N,PA4*%
X63500000Y-93980000D03*
%TD*%
D16*
%TO.P,Q3,1,E*%
%TO.N,GND*%
X41799999Y-126729999D03*
D17*
%TO.P,Q3,2,B*%
%TO.N,Net-(Q3-B)*%
X40530000Y-128000000D03*
%TO.P,Q3,3,C*%
%TO.N,Net-(Q3-C)*%
X39260000Y-126730000D03*
%TD*%
D14*
%TO.P,D3,1,K*%
%TO.N,Vcc*%
X45129999Y-151229999D03*
D15*
%TO.P,D3,2,A*%
%TO.N,PA5*%
X47670000Y-151230000D03*
%TD*%
D16*
%TO.P,Q1,1,E*%
%TO.N,GND*%
X50799999Y-76199999D03*
D17*
%TO.P,Q1,2,B*%
%TO.N,Net-(Q1-B)*%
X52070000Y-74930000D03*
%TO.P,Q1,3,C*%
%TO.N,Net-(Q1-C)*%
X53340000Y-76200000D03*
%TD*%
D11*
%TO.P,LED1,1,A*%
%TO.N,Vcc*%
X39370000Y-48260000D03*
%TO.P,LED1,2,K*%
%TO.N,Net-(LED1-K)*%
X41910000Y-48260000D03*
%TD*%
D10*
%TO.P,JP11,1,A*%
%TO.N,Net-(JP11-A)*%
X68580000Y-139700000D03*
%TO.P,JP11,2,B*%
%TO.N,PA5*%
X68580000Y-137160000D03*
%TD*%
D16*
%TO.P,Q2,1,E*%
%TO.N,GND*%
X55879999Y-119379999D03*
D17*
%TO.P,Q2,2,B*%
%TO.N,Net-(Q2-B)*%
X57150000Y-120650000D03*
%TO.P,Q2,3,C*%
%TO.N,Net-(Q2-C)*%
X55880000Y-121920000D03*
%TD*%
D10*
%TO.P,JP5,1,A*%
%TO.N,Net-(JP5-A)*%
X60960000Y-86360000D03*
%TO.P,JP5,2,B*%
%TO.N,PA4*%
X63500000Y-86360000D03*
%TD*%
D11*
%TO.P,LED3,1,A*%
%TO.N,Vcc*%
X40300000Y-150420000D03*
%TO.P,LED3,2,K*%
%TO.N,Net-(LED3-K)*%
X37760000Y-150420000D03*
%TD*%
D10*
%TO.P,JP12,1,A*%
%TO.N,Net-(JP12-A)*%
X71120000Y-149860000D03*
%TO.P,JP12,2,B*%
%TO.N,PA5*%
X73660000Y-149860000D03*
%TD*%
D18*
%TO.N,PA5*%
X65480000Y-145270000D03*
%TO.N,Net-(JP12-A)*%
X71060000Y-125210000D03*
%TO.N,Net-(LED3-K)*%
X41800000Y-140480000D03*
X41420000Y-144180000D03*
%TO.N,Net-(R19-Pad1)*%
X66253911Y-120703911D03*
X66190000Y-123570000D03*
%TD*%
D19*
%TO.N,PA4*%
X66240000Y-94180000D02*
X64770000Y-92710000D01*
X63500000Y-86360000D02*
X62350000Y-85210000D01*
X41790000Y-85210000D02*
X40640000Y-86360000D01*
X62350000Y-85210000D02*
X41790000Y-85210000D01*
X63500000Y-109220000D02*
X63500000Y-86360000D01*
X64770000Y-92710000D02*
X63500000Y-93980000D01*
X74500000Y-94180000D02*
X66240000Y-94180000D01*
%TO.N,PA3*%
X71120000Y-53340000D02*
X73660000Y-55880000D01*
X55880000Y-55880000D02*
X58420000Y-53340000D01*
X66040000Y-53340000D02*
X71120000Y-53340000D01*
X58420000Y-53340000D02*
X66040000Y-53340000D01*
X50800000Y-55880000D02*
X55880000Y-55880000D01*
X50800000Y-55880000D02*
X50800000Y-51990000D01*
X50800000Y-51990000D02*
X46240000Y-47430000D01*
%TO.N,Vcc*%
X41182500Y-46447500D02*
X39370000Y-48260000D01*
X47797500Y-46447500D02*
X41182500Y-46447500D01*
X39370000Y-48260000D02*
X39370000Y-74930000D01*
X48780000Y-47430000D02*
X47797500Y-46447500D01*
X39370000Y-74930000D02*
X43180000Y-78740000D01*
%TO.N,PA5*%
X38540000Y-108746346D02*
X38540000Y-93540000D01*
X38540000Y-93540000D02*
X40640000Y-91440000D01*
X47670000Y-151230000D02*
X47670000Y-143955786D01*
X40333654Y-110540000D02*
X38540000Y-108746346D01*
X65480000Y-137400000D02*
X65340000Y-137260000D01*
X65480000Y-145270000D02*
X65480000Y-137400000D01*
X53340000Y-138285786D02*
X53340000Y-137160000D01*
X53340000Y-137160000D02*
X53340000Y-120293654D01*
X47670000Y-143955786D02*
X53340000Y-138285786D01*
X53340000Y-137160000D02*
X68580000Y-137160000D01*
X43586346Y-110540000D02*
X40333654Y-110540000D01*
X53340000Y-120293654D02*
X43586346Y-110540000D01*
%TO.N,Net-(JP12-A)*%
X71120000Y-149860000D02*
X71120000Y-125270000D01*
X71120000Y-125270000D02*
X71060000Y-125210000D01*
%TO.N,Net-(LED3-K)*%
X41420000Y-140860000D02*
X41800000Y-140480000D01*
X41420000Y-144180000D02*
X41420000Y-140860000D01*
%TO.N,GND*%
X41800000Y-126730000D02*
X38140000Y-123070000D01*
X38140000Y-123070000D02*
X38140000Y-91400000D01*
X38140000Y-91400000D02*
X40640000Y-88900000D01*
%TO.N,Net-(R19-Pad1)*%
X66190000Y-123570000D02*
X66190000Y-120740000D01*
X66190000Y-120740000D02*
X66240000Y-120690000D01*
X66240000Y-120690000D02*
X66253911Y-120703911D01*
%TD*%
%TA.AperFunction,Conductor*%
%TO.N,GND*%
G36*
X78667500Y-43207113D02*
G01*
X78712887Y-43252500D01*
X78729500Y-43314500D01*
X78729500Y-154805500D01*
X78712887Y-154867500D01*
X78667500Y-154912887D01*
X78605500Y-154929500D01*
X33154500Y-154929500D01*
X33092500Y-154912887D01*
X33047113Y-154867500D01*
X33030500Y-154805500D01*
X33030500Y-150420000D01*
X36404341Y-150420000D01*
X36404813Y-150425395D01*
X36420488Y-150604563D01*
X36424937Y-150655408D01*
X36426336Y-150660630D01*
X36426337Y-150660634D01*
X36484694Y-150878430D01*
X36484697Y-150878438D01*
X36486097Y-150883663D01*
X36488385Y-150888570D01*
X36488386Y-150888572D01*
X36583678Y-151092927D01*
X36583681Y-151092933D01*
X36585965Y-151097830D01*
X36589064Y-151102257D01*
X36589066Y-151102259D01*
X36718399Y-151286966D01*
X36718402Y-151286970D01*
X36721505Y-151291401D01*
X36888599Y-151458495D01*
X37082170Y-151594035D01*
X37296337Y-151693903D01*
X37524592Y-151755063D01*
X37760000Y-151775659D01*
X37995408Y-151755063D01*
X38223663Y-151693903D01*
X38437830Y-151594035D01*
X38631401Y-151458495D01*
X38798495Y-151291401D01*
X38928426Y-151105839D01*
X38972742Y-151066976D01*
X39029999Y-151052965D01*
X39087256Y-151066976D01*
X39131574Y-151105841D01*
X39258399Y-151286966D01*
X39258402Y-151286970D01*
X39261505Y-151291401D01*
X39428599Y-151458495D01*
X39622170Y-151594035D01*
X39836337Y-151693903D01*
X40064592Y-151755063D01*
X40300000Y-151775659D01*
X40535408Y-151755063D01*
X40763663Y-151693903D01*
X40977830Y-151594035D01*
X41171401Y-151458495D01*
X41338495Y-151291401D01*
X41474035Y-151097830D01*
X41573903Y-150883663D01*
X41635063Y-150655408D01*
X41655659Y-150420000D01*
X41635063Y-150184592D01*
X41573903Y-149956337D01*
X41474035Y-149742171D01*
X41338495Y-149548599D01*
X41171401Y-149381505D01*
X41166970Y-149378402D01*
X41166966Y-149378399D01*
X40982259Y-149249066D01*
X40982257Y-149249064D01*
X40977830Y-149245965D01*
X40972933Y-149243681D01*
X40972927Y-149243678D01*
X40768572Y-149148386D01*
X40768570Y-149148385D01*
X40763663Y-149146097D01*
X40758438Y-149144697D01*
X40758430Y-149144694D01*
X40540634Y-149086337D01*
X40540630Y-149086336D01*
X40535408Y-149084937D01*
X40530020Y-149084465D01*
X40530017Y-149084465D01*
X40305395Y-149064813D01*
X40300000Y-149064341D01*
X40294605Y-149064813D01*
X40069982Y-149084465D01*
X40069977Y-149084465D01*
X40064592Y-149084937D01*
X40059371Y-149086335D01*
X40059365Y-149086337D01*
X39841569Y-149144694D01*
X39841557Y-149144698D01*
X39836337Y-149146097D01*
X39831432Y-149148383D01*
X39831427Y-149148386D01*
X39627081Y-149243675D01*
X39627077Y-149243677D01*
X39622171Y-149245965D01*
X39617738Y-149249068D01*
X39617731Y-149249073D01*
X39433034Y-149378399D01*
X39433029Y-149378402D01*
X39428599Y-149381505D01*
X39424775Y-149385328D01*
X39424769Y-149385334D01*
X39265334Y-149544769D01*
X39265328Y-149544775D01*
X39261505Y-149548599D01*
X39258403Y-149553028D01*
X39258403Y-149553029D01*
X39131574Y-149734160D01*
X39087256Y-149773025D01*
X39029999Y-149787036D01*
X38972742Y-149773025D01*
X38928426Y-149734161D01*
X38798495Y-149548599D01*
X38631401Y-149381505D01*
X38626970Y-149378402D01*
X38626966Y-149378399D01*
X38442259Y-149249066D01*
X38442257Y-149249064D01*
X38437830Y-149245965D01*
X38432933Y-149243681D01*
X38432927Y-149243678D01*
X38228572Y-149148386D01*
X38228570Y-149148385D01*
X38223663Y-149146097D01*
X38218438Y-149144697D01*
X38218430Y-149144694D01*
X38000634Y-149086337D01*
X38000630Y-149086336D01*
X37995408Y-149084937D01*
X37990020Y-149084465D01*
X37990017Y-149084465D01*
X37765395Y-149064813D01*
X37760000Y-149064341D01*
X37754605Y-149064813D01*
X37529982Y-149084465D01*
X37529977Y-149084465D01*
X37524592Y-149084937D01*
X37519371Y-149086335D01*
X37519365Y-149086337D01*
X37301569Y-149144694D01*
X37301557Y-149144698D01*
X37296337Y-149146097D01*
X37291432Y-149148383D01*
X37291427Y-149148386D01*
X37087081Y-149243675D01*
X37087077Y-149243677D01*
X37082171Y-149245965D01*
X37077738Y-149249068D01*
X37077731Y-149249073D01*
X36893034Y-149378399D01*
X36893029Y-149378402D01*
X36888599Y-149381505D01*
X36884775Y-149385328D01*
X36884769Y-149385334D01*
X36725334Y-149544769D01*
X36725328Y-149544775D01*
X36721505Y-149548599D01*
X36718402Y-149553029D01*
X36718399Y-149553034D01*
X36589073Y-149737731D01*
X36589068Y-149737738D01*
X36585965Y-149742171D01*
X36583677Y-149747077D01*
X36583675Y-149747081D01*
X36488386Y-149951427D01*
X36488383Y-149951432D01*
X36486097Y-149956337D01*
X36484698Y-149961557D01*
X36484694Y-149961569D01*
X36426337Y-150179365D01*
X36426335Y-150179371D01*
X36424937Y-150184592D01*
X36424465Y-150189977D01*
X36424465Y-150189982D01*
X36404813Y-150414605D01*
X36404341Y-150420000D01*
X33030500Y-150420000D01*
X33030500Y-144180000D01*
X40614435Y-144180000D01*
X40634632Y-144359255D01*
X40636928Y-144365819D01*
X40636930Y-144365824D01*
X40691913Y-144522956D01*
X40694211Y-144529522D01*
X40790184Y-144682262D01*
X40917738Y-144809816D01*
X41070478Y-144905789D01*
X41240745Y-144965368D01*
X41420000Y-144985565D01*
X41599255Y-144965368D01*
X41769522Y-144905789D01*
X41922262Y-144809816D01*
X42049816Y-144682262D01*
X42145789Y-144529522D01*
X42205368Y-144359255D01*
X42225565Y-144180000D01*
X42205368Y-144000745D01*
X42145789Y-143830478D01*
X42049816Y-143677738D01*
X42046718Y-143674640D01*
X42027459Y-143639793D01*
X42020500Y-143598838D01*
X42020500Y-141338918D01*
X42030846Y-141289331D01*
X42060159Y-141248020D01*
X42103542Y-141221877D01*
X42149522Y-141205789D01*
X42302262Y-141109816D01*
X42429816Y-140982262D01*
X42525789Y-140829522D01*
X42585368Y-140659255D01*
X42605565Y-140480000D01*
X42585368Y-140300745D01*
X42525789Y-140130478D01*
X42429816Y-139977738D01*
X42302262Y-139850184D01*
X42149522Y-139754211D01*
X42142959Y-139751914D01*
X42142956Y-139751913D01*
X41985824Y-139696930D01*
X41985819Y-139696928D01*
X41979255Y-139694632D01*
X41972335Y-139693852D01*
X41972334Y-139693852D01*
X41806923Y-139675215D01*
X41800000Y-139674435D01*
X41793077Y-139675215D01*
X41627665Y-139693852D01*
X41627662Y-139693852D01*
X41620745Y-139694632D01*
X41614182Y-139696928D01*
X41614175Y-139696930D01*
X41457043Y-139751913D01*
X41457036Y-139751915D01*
X41450478Y-139754211D01*
X41444590Y-139757910D01*
X41444587Y-139757912D01*
X41303638Y-139846476D01*
X41303633Y-139846479D01*
X41297738Y-139850184D01*
X41292813Y-139855108D01*
X41292809Y-139855112D01*
X41175112Y-139972809D01*
X41175108Y-139972813D01*
X41170184Y-139977738D01*
X41166479Y-139983633D01*
X41166476Y-139983638D01*
X41077912Y-140124587D01*
X41077910Y-140124590D01*
X41074211Y-140130478D01*
X41071915Y-140137036D01*
X41071913Y-140137043D01*
X41016931Y-140294174D01*
X41014632Y-140300745D01*
X41013852Y-140307662D01*
X41013852Y-140307665D01*
X41005137Y-140385005D01*
X40980293Y-140446605D01*
X40906028Y-140543388D01*
X40906025Y-140543393D01*
X40895463Y-140557159D01*
X40895464Y-140557159D01*
X40889095Y-140572533D01*
X40889093Y-140572537D01*
X40838066Y-140695728D01*
X40838064Y-140695733D01*
X40834956Y-140703238D01*
X40833896Y-140711289D01*
X40833894Y-140711297D01*
X40819195Y-140822956D01*
X40814318Y-140860000D01*
X40815379Y-140868059D01*
X40818439Y-140891302D01*
X40819500Y-140907487D01*
X40819500Y-143598838D01*
X40812541Y-143639793D01*
X40793281Y-143674640D01*
X40790184Y-143677738D01*
X40786483Y-143683627D01*
X40786479Y-143683633D01*
X40697912Y-143824587D01*
X40697910Y-143824590D01*
X40694211Y-143830478D01*
X40691915Y-143837036D01*
X40691913Y-143837043D01*
X40636930Y-143994175D01*
X40636928Y-143994182D01*
X40634632Y-144000745D01*
X40614435Y-144180000D01*
X33030500Y-144180000D01*
X33030500Y-126730000D01*
X38088000Y-126730000D01*
X38107956Y-126945354D01*
X38109524Y-126950865D01*
X38109525Y-126950870D01*
X38141920Y-127064724D01*
X38167143Y-127153375D01*
X38169695Y-127158501D01*
X38169697Y-127158505D01*
X38260991Y-127341848D01*
X38260993Y-127341852D01*
X38263546Y-127346978D01*
X38266995Y-127351545D01*
X38266998Y-127351550D01*
X38390424Y-127514993D01*
X38390429Y-127514998D01*
X38393882Y-127519571D01*
X38398118Y-127523432D01*
X38398122Y-127523437D01*
X38456467Y-127576625D01*
X38553712Y-127665276D01*
X38737595Y-127779131D01*
X38939267Y-127857260D01*
X39151861Y-127897000D01*
X39235415Y-127897000D01*
X39294079Y-127911754D01*
X39338782Y-127952507D01*
X39358886Y-128009559D01*
X39377426Y-128209645D01*
X39377427Y-128209655D01*
X39377956Y-128215354D01*
X39437143Y-128423375D01*
X39439695Y-128428501D01*
X39439697Y-128428505D01*
X39530991Y-128611848D01*
X39530993Y-128611852D01*
X39533546Y-128616978D01*
X39536995Y-128621545D01*
X39536998Y-128621550D01*
X39660424Y-128784993D01*
X39660429Y-128784998D01*
X39663882Y-128789571D01*
X39668118Y-128793432D01*
X39668122Y-128793437D01*
X39777943Y-128893552D01*
X39823712Y-128935276D01*
X40007595Y-129049131D01*
X40209267Y-129127260D01*
X40421861Y-129167000D01*
X40632410Y-129167000D01*
X40638139Y-129167000D01*
X40850733Y-129127260D01*
X41052405Y-129049131D01*
X41236288Y-128935276D01*
X41396118Y-128789571D01*
X41526454Y-128616978D01*
X41622857Y-128423375D01*
X41682044Y-128215354D01*
X41702000Y-128000000D01*
X41690896Y-127880174D01*
X42050000Y-127880174D01*
X42053450Y-127893049D01*
X42066326Y-127896500D01*
X42511018Y-127896500D01*
X42517614Y-127896146D01*
X42566167Y-127890926D01*
X42581141Y-127887388D01*
X42700277Y-127842952D01*
X42715689Y-127834537D01*
X42816592Y-127759001D01*
X42829001Y-127746592D01*
X42904537Y-127645689D01*
X42912952Y-127630277D01*
X42957388Y-127511141D01*
X42960926Y-127496167D01*
X42966146Y-127447614D01*
X42966500Y-127441018D01*
X42966500Y-126996326D01*
X42963049Y-126983450D01*
X42950174Y-126980000D01*
X42066326Y-126980000D01*
X42053450Y-126983450D01*
X42050000Y-126996326D01*
X42050000Y-127880174D01*
X41690896Y-127880174D01*
X41682044Y-127784646D01*
X41622857Y-127576625D01*
X41563000Y-127456416D01*
X41550000Y-127401144D01*
X41550000Y-126463674D01*
X42050000Y-126463674D01*
X42053450Y-126476549D01*
X42066326Y-126480000D01*
X42950174Y-126480000D01*
X42963049Y-126476549D01*
X42966500Y-126463674D01*
X42966500Y-126018982D01*
X42966146Y-126012385D01*
X42960926Y-125963832D01*
X42957388Y-125948858D01*
X42912952Y-125829722D01*
X42904537Y-125814310D01*
X42829001Y-125713407D01*
X42816592Y-125700998D01*
X42715689Y-125625462D01*
X42700277Y-125617047D01*
X42581141Y-125572611D01*
X42566167Y-125569073D01*
X42517614Y-125563853D01*
X42511018Y-125563500D01*
X42066326Y-125563500D01*
X42053450Y-125566950D01*
X42050000Y-125579826D01*
X42050000Y-126463674D01*
X41550000Y-126463674D01*
X41550000Y-125579826D01*
X41546549Y-125566950D01*
X41533674Y-125563500D01*
X41088982Y-125563500D01*
X41082385Y-125563853D01*
X41033832Y-125569073D01*
X41018858Y-125572611D01*
X40899722Y-125617047D01*
X40884310Y-125625462D01*
X40783407Y-125700998D01*
X40770998Y-125713407D01*
X40695462Y-125814310D01*
X40687047Y-125829722D01*
X40642611Y-125948858D01*
X40639073Y-125963832D01*
X40633853Y-126012385D01*
X40633500Y-126018982D01*
X40633500Y-126404058D01*
X40619636Y-126461032D01*
X40581144Y-126505266D01*
X40526631Y-126526869D01*
X40468288Y-126521009D01*
X40419160Y-126488997D01*
X40390234Y-126437992D01*
X40380579Y-126404058D01*
X40352857Y-126306625D01*
X40256454Y-126113022D01*
X40253001Y-126108449D01*
X40129575Y-125945006D01*
X40129571Y-125945002D01*
X40126118Y-125940429D01*
X40121881Y-125936566D01*
X40121877Y-125936562D01*
X39970522Y-125798584D01*
X39970523Y-125798584D01*
X39966288Y-125794724D01*
X39961418Y-125791709D01*
X39961416Y-125791707D01*
X39787281Y-125683888D01*
X39787280Y-125683887D01*
X39782405Y-125680869D01*
X39777058Y-125678797D01*
X39777055Y-125678796D01*
X39586081Y-125604812D01*
X39586082Y-125604812D01*
X39580733Y-125602740D01*
X39575107Y-125601688D01*
X39575099Y-125601686D01*
X39373769Y-125564052D01*
X39373764Y-125564051D01*
X39368139Y-125563000D01*
X39151861Y-125563000D01*
X39146236Y-125564051D01*
X39146230Y-125564052D01*
X38944900Y-125601686D01*
X38944889Y-125601688D01*
X38939267Y-125602740D01*
X38933920Y-125604811D01*
X38933918Y-125604812D01*
X38742944Y-125678796D01*
X38742937Y-125678799D01*
X38737595Y-125680869D01*
X38732723Y-125683885D01*
X38732718Y-125683888D01*
X38558583Y-125791707D01*
X38558575Y-125791712D01*
X38553712Y-125794724D01*
X38549481Y-125798580D01*
X38549477Y-125798584D01*
X38398122Y-125936562D01*
X38398112Y-125936572D01*
X38393882Y-125940429D01*
X38390433Y-125944995D01*
X38390424Y-125945006D01*
X38266998Y-126108449D01*
X38266991Y-126108459D01*
X38263546Y-126113022D01*
X38260996Y-126118142D01*
X38260991Y-126118151D01*
X38169697Y-126301494D01*
X38169693Y-126301502D01*
X38167143Y-126306625D01*
X38165574Y-126312137D01*
X38165574Y-126312139D01*
X38109525Y-126509129D01*
X38109523Y-126509136D01*
X38107956Y-126514646D01*
X38088000Y-126730000D01*
X33030500Y-126730000D01*
X33030500Y-108746346D01*
X37934318Y-108746346D01*
X37935379Y-108754405D01*
X37939500Y-108785707D01*
X37953894Y-108895048D01*
X37953895Y-108895054D01*
X37954956Y-108903108D01*
X37958065Y-108910614D01*
X37958066Y-108910617D01*
X37986543Y-108979365D01*
X38015464Y-109049187D01*
X38111718Y-109174628D01*
X38118164Y-109179574D01*
X38136769Y-109193850D01*
X38148964Y-109204545D01*
X39629579Y-110685160D01*
X39661672Y-110740746D01*
X39661674Y-110804932D01*
X39629582Y-110860519D01*
X39605339Y-110884763D01*
X39605328Y-110884775D01*
X39601505Y-110888599D01*
X39598403Y-110893028D01*
X39598398Y-110893035D01*
X39469073Y-111077731D01*
X39469068Y-111077738D01*
X39465965Y-111082171D01*
X39463677Y-111087077D01*
X39463675Y-111087081D01*
X39368386Y-111291427D01*
X39368383Y-111291432D01*
X39366097Y-111296337D01*
X39364698Y-111301557D01*
X39364694Y-111301569D01*
X39306337Y-111519365D01*
X39306335Y-111519371D01*
X39304937Y-111524592D01*
X39284341Y-111760000D01*
X39304937Y-111995408D01*
X39306336Y-112000630D01*
X39306337Y-112000634D01*
X39364694Y-112218430D01*
X39364697Y-112218438D01*
X39366097Y-112223663D01*
X39368385Y-112228570D01*
X39368386Y-112228572D01*
X39463678Y-112432927D01*
X39463681Y-112432933D01*
X39465965Y-112437830D01*
X39469064Y-112442257D01*
X39469066Y-112442259D01*
X39598399Y-112626966D01*
X39598402Y-112626970D01*
X39601505Y-112631401D01*
X39768599Y-112798495D01*
X39962170Y-112934035D01*
X40176337Y-113033903D01*
X40404592Y-113095063D01*
X40640000Y-113115659D01*
X40875408Y-113095063D01*
X41103663Y-113033903D01*
X41317830Y-112934035D01*
X41511401Y-112798495D01*
X41678495Y-112631401D01*
X41808424Y-112445842D01*
X41852743Y-112406976D01*
X41910000Y-112392965D01*
X41967257Y-112406976D01*
X42011575Y-112445842D01*
X42138395Y-112626961D01*
X42138401Y-112626968D01*
X42141505Y-112631401D01*
X42308599Y-112798495D01*
X42502170Y-112934035D01*
X42716337Y-113033903D01*
X42944592Y-113095063D01*
X43180000Y-113115659D01*
X43415408Y-113095063D01*
X43643663Y-113033903D01*
X43857830Y-112934035D01*
X44051401Y-112798495D01*
X44218495Y-112631401D01*
X44354035Y-112437830D01*
X44368527Y-112406750D01*
X44405419Y-112360784D01*
X44459373Y-112337042D01*
X44518194Y-112340897D01*
X44568588Y-112371477D01*
X52703181Y-120506070D01*
X52730061Y-120546298D01*
X52739500Y-120593751D01*
X52739500Y-136050755D01*
X52723829Y-136111094D01*
X52680777Y-136156181D01*
X52663414Y-136166931D01*
X52618309Y-136194859D01*
X52618301Y-136194864D01*
X52613438Y-136197876D01*
X52609207Y-136201732D01*
X52609203Y-136201736D01*
X52453259Y-136343897D01*
X52453249Y-136343907D01*
X52449019Y-136347764D01*
X52445570Y-136352330D01*
X52445561Y-136352341D01*
X52318394Y-136520738D01*
X52318387Y-136520748D01*
X52314942Y-136525311D01*
X52312392Y-136530431D01*
X52312387Y-136530440D01*
X52218325Y-136719341D01*
X52218321Y-136719349D01*
X52215771Y-136724472D01*
X52214205Y-136729975D01*
X52214201Y-136729986D01*
X52156454Y-136932949D01*
X52154885Y-136938464D01*
X52134357Y-137160000D01*
X52154885Y-137381536D01*
X52156454Y-137387050D01*
X52214201Y-137590013D01*
X52214204Y-137590021D01*
X52215771Y-137595528D01*
X52218323Y-137600653D01*
X52218325Y-137600658D01*
X52312387Y-137789559D01*
X52312389Y-137789563D01*
X52314942Y-137794689D01*
X52318391Y-137799256D01*
X52318394Y-137799261D01*
X52445561Y-137967658D01*
X52445566Y-137967663D01*
X52449019Y-137972236D01*
X52538909Y-138054181D01*
X52574100Y-138110050D01*
X52575625Y-138176062D01*
X52543051Y-138233498D01*
X47278965Y-143497584D01*
X47266774Y-143508276D01*
X47248165Y-143522556D01*
X47248161Y-143522559D01*
X47241718Y-143527504D01*
X47236774Y-143533946D01*
X47236772Y-143533949D01*
X47154847Y-143640717D01*
X47150412Y-143646496D01*
X47150410Y-143646498D01*
X47145464Y-143652945D01*
X47142355Y-143660449D01*
X47142353Y-143660454D01*
X47088066Y-143791514D01*
X47088064Y-143791519D01*
X47084956Y-143799024D01*
X47083896Y-143807075D01*
X47083894Y-143807083D01*
X47065702Y-143945268D01*
X47064318Y-143955786D01*
X47065379Y-143963845D01*
X47068439Y-143987088D01*
X47069500Y-144003273D01*
X47069500Y-150141337D01*
X47053829Y-150201676D01*
X47010778Y-150246764D01*
X46958896Y-150278887D01*
X46958892Y-150278889D01*
X46954029Y-150281901D01*
X46949798Y-150285757D01*
X46949794Y-150285761D01*
X46796247Y-150425737D01*
X46796237Y-150425747D01*
X46792007Y-150429604D01*
X46788558Y-150434170D01*
X46788549Y-150434181D01*
X46663336Y-150599991D01*
X46663333Y-150599995D01*
X46659884Y-150604563D01*
X46657331Y-150609688D01*
X46657329Y-150609693D01*
X46564719Y-150795679D01*
X46564715Y-150795687D01*
X46562160Y-150800820D01*
X46560591Y-150806335D01*
X46556265Y-150821540D01*
X46527337Y-150872544D01*
X46478209Y-150904555D01*
X46419866Y-150910414D01*
X46365354Y-150888811D01*
X46326863Y-150844577D01*
X46312999Y-150787603D01*
X46312999Y-150502939D01*
X46312999Y-150499628D01*
X46306591Y-150440017D01*
X46256296Y-150305169D01*
X46170046Y-150189954D01*
X46162883Y-150184592D01*
X46061931Y-150109019D01*
X46061930Y-150109018D01*
X46054831Y-150103704D01*
X45919983Y-150053409D01*
X45912270Y-150052579D01*
X45912267Y-150052579D01*
X45863680Y-150047355D01*
X45863669Y-150047354D01*
X45860373Y-150047000D01*
X45857050Y-150047000D01*
X44402939Y-150047000D01*
X44402920Y-150047000D01*
X44399628Y-150047001D01*
X44396350Y-150047353D01*
X44396338Y-150047354D01*
X44347731Y-150052579D01*
X44347725Y-150052580D01*
X44340017Y-150053409D01*
X44332752Y-150056118D01*
X44332746Y-150056120D01*
X44213480Y-150100604D01*
X44213478Y-150100604D01*
X44205169Y-150103704D01*
X44198072Y-150109016D01*
X44198068Y-150109019D01*
X44097050Y-150184641D01*
X44097046Y-150184644D01*
X44089954Y-150189954D01*
X44084644Y-150197046D01*
X44084641Y-150197050D01*
X44009019Y-150298068D01*
X44009016Y-150298072D01*
X44003704Y-150305169D01*
X44000604Y-150313478D01*
X44000604Y-150313480D01*
X43956120Y-150432747D01*
X43956119Y-150432750D01*
X43953409Y-150440017D01*
X43952579Y-150447727D01*
X43952579Y-150447732D01*
X43947355Y-150496319D01*
X43947354Y-150496331D01*
X43947000Y-150499627D01*
X43947000Y-150502948D01*
X43947000Y-150502949D01*
X43947000Y-151957060D01*
X43947000Y-151957078D01*
X43947001Y-151960372D01*
X43947353Y-151963650D01*
X43947354Y-151963661D01*
X43952579Y-152012268D01*
X43952580Y-152012273D01*
X43953409Y-152019983D01*
X43956119Y-152027249D01*
X43956120Y-152027253D01*
X43989717Y-152117331D01*
X44003704Y-152154831D01*
X44089954Y-152270046D01*
X44205169Y-152356296D01*
X44340017Y-152406591D01*
X44399627Y-152413000D01*
X45860372Y-152412999D01*
X45919983Y-152406591D01*
X46054831Y-152356296D01*
X46170046Y-152270046D01*
X46256296Y-152154831D01*
X46306591Y-152019983D01*
X46313000Y-151960373D01*
X46312999Y-151672394D01*
X46326863Y-151615425D01*
X46365354Y-151571191D01*
X46419865Y-151549587D01*
X46478208Y-151555446D01*
X46527336Y-151587456D01*
X46556264Y-151638460D01*
X46560588Y-151653656D01*
X46562160Y-151659180D01*
X46564717Y-151664316D01*
X46564719Y-151664320D01*
X46579450Y-151693903D01*
X46659884Y-151855437D01*
X46663336Y-151860008D01*
X46788549Y-152025818D01*
X46788553Y-152025823D01*
X46792007Y-152030396D01*
X46796243Y-152034257D01*
X46796247Y-152034262D01*
X46907146Y-152135359D01*
X46954029Y-152178099D01*
X47140433Y-152293515D01*
X47344870Y-152372714D01*
X47560379Y-152413000D01*
X47773892Y-152413000D01*
X47779621Y-152413000D01*
X47995130Y-152372714D01*
X48199567Y-152293515D01*
X48385971Y-152178099D01*
X48547993Y-152030396D01*
X48680116Y-151855437D01*
X48777840Y-151659180D01*
X48837839Y-151448307D01*
X48858068Y-151230000D01*
X48837839Y-151011693D01*
X48777840Y-150800820D01*
X48680116Y-150604563D01*
X48555857Y-150440017D01*
X48551450Y-150434181D01*
X48551446Y-150434177D01*
X48547993Y-150429604D01*
X48543756Y-150425741D01*
X48543752Y-150425737D01*
X48390205Y-150285761D01*
X48390206Y-150285761D01*
X48385971Y-150281901D01*
X48329221Y-150246763D01*
X48286171Y-150201676D01*
X48270500Y-150141337D01*
X48270500Y-149860000D01*
X69914357Y-149860000D01*
X69934885Y-150081536D01*
X69936454Y-150087050D01*
X69994201Y-150290013D01*
X69994204Y-150290021D01*
X69995771Y-150295528D01*
X69998323Y-150300653D01*
X69998325Y-150300658D01*
X70092387Y-150489559D01*
X70092389Y-150489563D01*
X70094942Y-150494689D01*
X70098391Y-150499256D01*
X70098394Y-150499261D01*
X70225561Y-150667658D01*
X70225566Y-150667663D01*
X70229019Y-150672236D01*
X70233255Y-150676097D01*
X70233259Y-150676102D01*
X70345603Y-150778517D01*
X70393438Y-150822124D01*
X70582599Y-150939247D01*
X70790060Y-151019618D01*
X71008757Y-151060500D01*
X71225514Y-151060500D01*
X71231243Y-151060500D01*
X71449940Y-151019618D01*
X71657401Y-150939247D01*
X71846562Y-150822124D01*
X72010981Y-150672236D01*
X72145058Y-150494689D01*
X72244229Y-150295528D01*
X72270734Y-150202371D01*
X72303133Y-150147818D01*
X72358275Y-150116433D01*
X72421725Y-150116433D01*
X72476867Y-150147818D01*
X72509265Y-150202371D01*
X72535771Y-150295528D01*
X72538323Y-150300653D01*
X72538325Y-150300658D01*
X72632387Y-150489559D01*
X72632389Y-150489563D01*
X72634942Y-150494689D01*
X72638391Y-150499256D01*
X72638394Y-150499261D01*
X72765561Y-150667658D01*
X72765566Y-150667663D01*
X72769019Y-150672236D01*
X72773255Y-150676097D01*
X72773259Y-150676102D01*
X72885603Y-150778517D01*
X72933438Y-150822124D01*
X73122599Y-150939247D01*
X73330060Y-151019618D01*
X73548757Y-151060500D01*
X73765514Y-151060500D01*
X73771243Y-151060500D01*
X73989940Y-151019618D01*
X74197401Y-150939247D01*
X74386562Y-150822124D01*
X74550981Y-150672236D01*
X74685058Y-150494689D01*
X74784229Y-150295528D01*
X74845115Y-150081536D01*
X74865643Y-149860000D01*
X74845115Y-149638464D01*
X74784229Y-149424472D01*
X74685058Y-149225311D01*
X74681605Y-149220738D01*
X74554438Y-149052341D01*
X74554434Y-149052337D01*
X74550981Y-149047764D01*
X74546744Y-149043901D01*
X74546740Y-149043897D01*
X74390796Y-148901736D01*
X74390797Y-148901736D01*
X74386562Y-148897876D01*
X74381692Y-148894861D01*
X74381690Y-148894859D01*
X74202275Y-148783771D01*
X74202276Y-148783771D01*
X74197401Y-148780753D01*
X74119967Y-148750755D01*
X73995286Y-148702453D01*
X73995285Y-148702452D01*
X73989940Y-148700382D01*
X73984302Y-148699328D01*
X73776872Y-148660552D01*
X73776869Y-148660551D01*
X73771243Y-148659500D01*
X73548757Y-148659500D01*
X73543131Y-148660551D01*
X73543127Y-148660552D01*
X73335697Y-148699328D01*
X73335694Y-148699328D01*
X73330060Y-148700382D01*
X73324717Y-148702451D01*
X73324713Y-148702453D01*
X73127941Y-148778683D01*
X73127936Y-148778685D01*
X73122599Y-148780753D01*
X73117727Y-148783769D01*
X73117724Y-148783771D01*
X72938309Y-148894859D01*
X72938301Y-148894864D01*
X72933438Y-148897876D01*
X72929207Y-148901732D01*
X72929203Y-148901736D01*
X72773259Y-149043897D01*
X72773249Y-149043907D01*
X72769019Y-149047764D01*
X72765570Y-149052330D01*
X72765561Y-149052341D01*
X72638394Y-149220738D01*
X72638387Y-149220748D01*
X72634942Y-149225311D01*
X72632392Y-149230431D01*
X72632387Y-149230440D01*
X72538325Y-149419341D01*
X72538321Y-149419349D01*
X72535771Y-149424472D01*
X72534205Y-149429975D01*
X72534201Y-149429986D01*
X72509266Y-149517627D01*
X72476867Y-149572181D01*
X72421724Y-149603566D01*
X72358276Y-149603566D01*
X72303133Y-149572181D01*
X72270734Y-149517627D01*
X72245798Y-149429986D01*
X72245797Y-149429984D01*
X72244229Y-149424472D01*
X72145058Y-149225311D01*
X72141605Y-149220738D01*
X72014438Y-149052341D01*
X72014434Y-149052337D01*
X72010981Y-149047764D01*
X72006744Y-149043901D01*
X72006740Y-149043897D01*
X71850796Y-148901736D01*
X71850797Y-148901736D01*
X71846562Y-148897876D01*
X71841692Y-148894861D01*
X71841690Y-148894859D01*
X71810239Y-148875386D01*
X71779222Y-148856181D01*
X71736171Y-148811094D01*
X71720500Y-148750755D01*
X71720500Y-125699153D01*
X71739506Y-125633181D01*
X71758633Y-125602740D01*
X71785789Y-125559522D01*
X71845368Y-125389255D01*
X71865565Y-125210000D01*
X71845368Y-125030745D01*
X71785789Y-124860478D01*
X71689816Y-124707738D01*
X71562262Y-124580184D01*
X71409522Y-124484211D01*
X71402959Y-124481914D01*
X71402956Y-124481913D01*
X71245824Y-124426930D01*
X71245819Y-124426928D01*
X71239255Y-124424632D01*
X71232335Y-124423852D01*
X71232334Y-124423852D01*
X71066923Y-124405215D01*
X71060000Y-124404435D01*
X71053077Y-124405215D01*
X70887665Y-124423852D01*
X70887662Y-124423852D01*
X70880745Y-124424632D01*
X70874182Y-124426928D01*
X70874175Y-124426930D01*
X70717043Y-124481913D01*
X70717036Y-124481915D01*
X70710478Y-124484211D01*
X70704590Y-124487910D01*
X70704587Y-124487912D01*
X70563638Y-124576476D01*
X70563633Y-124576479D01*
X70557738Y-124580184D01*
X70552813Y-124585108D01*
X70552809Y-124585112D01*
X70435112Y-124702809D01*
X70435108Y-124702813D01*
X70430184Y-124707738D01*
X70426479Y-124713633D01*
X70426476Y-124713638D01*
X70337912Y-124854587D01*
X70337910Y-124854590D01*
X70334211Y-124860478D01*
X70331915Y-124867036D01*
X70331913Y-124867043D01*
X70276930Y-125024175D01*
X70276928Y-125024182D01*
X70274632Y-125030745D01*
X70254435Y-125210000D01*
X70274632Y-125389255D01*
X70276928Y-125395819D01*
X70276930Y-125395824D01*
X70331913Y-125552956D01*
X70334211Y-125559522D01*
X70430184Y-125712262D01*
X70435112Y-125717190D01*
X70483181Y-125765259D01*
X70510061Y-125805487D01*
X70519500Y-125852940D01*
X70519500Y-148750755D01*
X70503829Y-148811094D01*
X70460777Y-148856181D01*
X70443414Y-148866931D01*
X70398309Y-148894859D01*
X70398301Y-148894864D01*
X70393438Y-148897876D01*
X70389207Y-148901732D01*
X70389203Y-148901736D01*
X70233259Y-149043897D01*
X70233249Y-149043907D01*
X70229019Y-149047764D01*
X70225570Y-149052330D01*
X70225561Y-149052341D01*
X70098394Y-149220738D01*
X70098387Y-149220748D01*
X70094942Y-149225311D01*
X70092392Y-149230431D01*
X70092387Y-149230440D01*
X69998325Y-149419341D01*
X69998321Y-149419349D01*
X69995771Y-149424472D01*
X69994205Y-149429975D01*
X69994201Y-149429986D01*
X69953744Y-149572181D01*
X69934885Y-149638464D01*
X69934356Y-149644169D01*
X69934356Y-149644171D01*
X69925687Y-149737731D01*
X69914357Y-149860000D01*
X48270500Y-149860000D01*
X48270500Y-144255883D01*
X48279939Y-144208430D01*
X48306819Y-144168202D01*
X51136102Y-141338918D01*
X52139055Y-140335964D01*
X52200206Y-140302518D01*
X52269742Y-140307344D01*
X52325688Y-140348920D01*
X52445561Y-140507658D01*
X52445566Y-140507663D01*
X52449019Y-140512236D01*
X52453255Y-140516097D01*
X52453259Y-140516102D01*
X52498229Y-140557097D01*
X52613438Y-140662124D01*
X52802599Y-140779247D01*
X53010060Y-140859618D01*
X53228757Y-140900500D01*
X53445514Y-140900500D01*
X53451243Y-140900500D01*
X53669940Y-140859618D01*
X53877401Y-140779247D01*
X54066562Y-140662124D01*
X54230981Y-140512236D01*
X54365058Y-140334689D01*
X54464229Y-140135528D01*
X54525115Y-139921536D01*
X54545643Y-139700000D01*
X54525115Y-139478464D01*
X54464229Y-139264472D01*
X54365058Y-139065311D01*
X54361605Y-139060738D01*
X54234438Y-138892341D01*
X54234434Y-138892337D01*
X54230981Y-138887764D01*
X54226744Y-138883901D01*
X54226740Y-138883897D01*
X54070796Y-138741736D01*
X54070797Y-138741736D01*
X54066562Y-138737876D01*
X53946193Y-138663347D01*
X53905544Y-138622383D01*
X53887838Y-138567457D01*
X53896911Y-138510466D01*
X53925044Y-138442548D01*
X53940500Y-138325147D01*
X53945682Y-138285786D01*
X53944621Y-138277727D01*
X53944621Y-138269601D01*
X53946143Y-138269601D01*
X53948169Y-138236049D01*
X53968363Y-138193460D01*
X54002986Y-138161488D01*
X54066562Y-138122124D01*
X54230981Y-137972236D01*
X54353667Y-137809772D01*
X54397349Y-137773500D01*
X54452621Y-137760500D01*
X59847379Y-137760500D01*
X59902651Y-137773500D01*
X59946333Y-137809773D01*
X60065561Y-137967658D01*
X60065566Y-137967663D01*
X60069019Y-137972236D01*
X60073255Y-137976097D01*
X60073259Y-137976102D01*
X60158907Y-138054180D01*
X60233438Y-138122124D01*
X60422599Y-138239247D01*
X60616524Y-138314374D01*
X60664892Y-138348168D01*
X60692166Y-138400495D01*
X60692166Y-138459502D01*
X60664893Y-138511829D01*
X60616522Y-138545625D01*
X60427947Y-138618680D01*
X60427936Y-138618685D01*
X60422599Y-138620753D01*
X60417727Y-138623769D01*
X60417724Y-138623771D01*
X60238309Y-138734859D01*
X60238301Y-138734864D01*
X60233438Y-138737876D01*
X60229207Y-138741732D01*
X60229203Y-138741736D01*
X60073259Y-138883897D01*
X60073249Y-138883907D01*
X60069019Y-138887764D01*
X60065570Y-138892330D01*
X60065561Y-138892341D01*
X59938394Y-139060738D01*
X59938387Y-139060748D01*
X59934942Y-139065311D01*
X59932392Y-139070431D01*
X59932387Y-139070440D01*
X59838325Y-139259341D01*
X59838321Y-139259349D01*
X59835771Y-139264472D01*
X59834205Y-139269975D01*
X59834201Y-139269986D01*
X59776454Y-139472949D01*
X59774885Y-139478464D01*
X59754357Y-139700000D01*
X59774885Y-139921536D01*
X59776454Y-139927050D01*
X59834201Y-140130013D01*
X59834204Y-140130021D01*
X59835771Y-140135528D01*
X59838323Y-140140653D01*
X59838325Y-140140658D01*
X59932387Y-140329559D01*
X59932389Y-140329563D01*
X59934942Y-140334689D01*
X59938391Y-140339256D01*
X59938394Y-140339261D01*
X60065561Y-140507658D01*
X60065566Y-140507663D01*
X60069019Y-140512236D01*
X60073255Y-140516097D01*
X60073259Y-140516102D01*
X60118229Y-140557097D01*
X60233438Y-140662124D01*
X60422599Y-140779247D01*
X60630060Y-140859618D01*
X60848757Y-140900500D01*
X61065514Y-140900500D01*
X61071243Y-140900500D01*
X61289940Y-140859618D01*
X61497401Y-140779247D01*
X61686562Y-140662124D01*
X61850981Y-140512236D01*
X61985058Y-140334689D01*
X62084229Y-140135528D01*
X62145115Y-139921536D01*
X62165643Y-139700000D01*
X62145115Y-139478464D01*
X62084229Y-139264472D01*
X61985058Y-139065311D01*
X61981605Y-139060738D01*
X61854438Y-138892341D01*
X61854434Y-138892337D01*
X61850981Y-138887764D01*
X61846744Y-138883901D01*
X61846740Y-138883897D01*
X61690796Y-138741736D01*
X61690797Y-138741736D01*
X61686562Y-138737876D01*
X61681692Y-138734861D01*
X61681690Y-138734859D01*
X61502275Y-138623771D01*
X61502276Y-138623771D01*
X61497401Y-138620753D01*
X61492059Y-138618683D01*
X61492048Y-138618678D01*
X61303478Y-138545625D01*
X61255107Y-138511829D01*
X61227833Y-138459502D01*
X61227833Y-138400494D01*
X61255107Y-138348168D01*
X61303475Y-138314374D01*
X61497401Y-138239247D01*
X61686562Y-138122124D01*
X61850981Y-137972236D01*
X61973667Y-137809772D01*
X62017349Y-137773500D01*
X62072621Y-137760500D01*
X64755500Y-137760500D01*
X64817500Y-137777113D01*
X64862887Y-137822500D01*
X64879500Y-137884500D01*
X64879500Y-144688838D01*
X64872541Y-144729793D01*
X64853281Y-144764640D01*
X64850184Y-144767738D01*
X64846483Y-144773627D01*
X64846479Y-144773633D01*
X64757912Y-144914587D01*
X64757910Y-144914590D01*
X64754211Y-144920478D01*
X64751915Y-144927036D01*
X64751913Y-144927043D01*
X64696930Y-145084175D01*
X64696928Y-145084182D01*
X64694632Y-145090745D01*
X64674435Y-145270000D01*
X64694632Y-145449255D01*
X64696928Y-145455819D01*
X64696930Y-145455824D01*
X64751913Y-145612956D01*
X64754211Y-145619522D01*
X64850184Y-145772262D01*
X64977738Y-145899816D01*
X65130478Y-145995789D01*
X65300745Y-146055368D01*
X65480000Y-146075565D01*
X65659255Y-146055368D01*
X65829522Y-145995789D01*
X65982262Y-145899816D01*
X66109816Y-145772262D01*
X66205789Y-145619522D01*
X66265368Y-145449255D01*
X66285565Y-145270000D01*
X66265368Y-145090745D01*
X66205789Y-144920478D01*
X66109816Y-144767738D01*
X66106718Y-144764640D01*
X66087459Y-144729793D01*
X66080500Y-144688838D01*
X66080500Y-137884500D01*
X66097113Y-137822500D01*
X66142500Y-137777113D01*
X66204500Y-137760500D01*
X67467379Y-137760500D01*
X67522651Y-137773500D01*
X67566333Y-137809773D01*
X67685561Y-137967658D01*
X67685566Y-137967663D01*
X67689019Y-137972236D01*
X67693255Y-137976097D01*
X67693259Y-137976102D01*
X67778907Y-138054180D01*
X67853438Y-138122124D01*
X68042599Y-138239247D01*
X68236524Y-138314374D01*
X68284892Y-138348168D01*
X68312166Y-138400495D01*
X68312166Y-138459502D01*
X68284893Y-138511829D01*
X68236522Y-138545625D01*
X68047947Y-138618680D01*
X68047936Y-138618685D01*
X68042599Y-138620753D01*
X68037727Y-138623769D01*
X68037724Y-138623771D01*
X67858309Y-138734859D01*
X67858301Y-138734864D01*
X67853438Y-138737876D01*
X67849207Y-138741732D01*
X67849203Y-138741736D01*
X67693259Y-138883897D01*
X67693249Y-138883907D01*
X67689019Y-138887764D01*
X67685570Y-138892330D01*
X67685561Y-138892341D01*
X67558394Y-139060738D01*
X67558387Y-139060748D01*
X67554942Y-139065311D01*
X67552392Y-139070431D01*
X67552387Y-139070440D01*
X67458325Y-139259341D01*
X67458321Y-139259349D01*
X67455771Y-139264472D01*
X67454205Y-139269975D01*
X67454201Y-139269986D01*
X67396454Y-139472949D01*
X67394885Y-139478464D01*
X67374357Y-139700000D01*
X67394885Y-139921536D01*
X67396454Y-139927050D01*
X67454201Y-140130013D01*
X67454204Y-140130021D01*
X67455771Y-140135528D01*
X67458323Y-140140653D01*
X67458325Y-140140658D01*
X67552387Y-140329559D01*
X67552389Y-140329563D01*
X67554942Y-140334689D01*
X67558391Y-140339256D01*
X67558394Y-140339261D01*
X67685561Y-140507658D01*
X67685566Y-140507663D01*
X67689019Y-140512236D01*
X67693255Y-140516097D01*
X67693259Y-140516102D01*
X67738229Y-140557097D01*
X67853438Y-140662124D01*
X68042599Y-140779247D01*
X68250060Y-140859618D01*
X68468757Y-140900500D01*
X68685514Y-140900500D01*
X68691243Y-140900500D01*
X68909940Y-140859618D01*
X69117401Y-140779247D01*
X69306562Y-140662124D01*
X69470981Y-140512236D01*
X69605058Y-140334689D01*
X69704229Y-140135528D01*
X69765115Y-139921536D01*
X69785643Y-139700000D01*
X69765115Y-139478464D01*
X69704229Y-139264472D01*
X69605058Y-139065311D01*
X69601605Y-139060738D01*
X69474438Y-138892341D01*
X69474434Y-138892337D01*
X69470981Y-138887764D01*
X69466744Y-138883901D01*
X69466740Y-138883897D01*
X69310796Y-138741736D01*
X69310797Y-138741736D01*
X69306562Y-138737876D01*
X69301692Y-138734861D01*
X69301690Y-138734859D01*
X69122275Y-138623771D01*
X69122276Y-138623771D01*
X69117401Y-138620753D01*
X69112059Y-138618683D01*
X69112048Y-138618678D01*
X68923478Y-138545625D01*
X68875107Y-138511829D01*
X68847833Y-138459502D01*
X68847833Y-138400494D01*
X68875107Y-138348168D01*
X68923475Y-138314374D01*
X69117401Y-138239247D01*
X69306562Y-138122124D01*
X69470981Y-137972236D01*
X69605058Y-137794689D01*
X69704229Y-137595528D01*
X69765115Y-137381536D01*
X69785643Y-137160000D01*
X69765115Y-136938464D01*
X69704229Y-136724472D01*
X69605058Y-136525311D01*
X69593667Y-136510227D01*
X69474438Y-136352341D01*
X69474434Y-136352337D01*
X69470981Y-136347764D01*
X69466744Y-136343901D01*
X69466740Y-136343897D01*
X69310796Y-136201736D01*
X69310797Y-136201736D01*
X69306562Y-136197876D01*
X69301692Y-136194861D01*
X69301690Y-136194859D01*
X69122275Y-136083771D01*
X69122276Y-136083771D01*
X69117401Y-136080753D01*
X69039967Y-136050755D01*
X68915286Y-136002453D01*
X68915285Y-136002452D01*
X68909940Y-136000382D01*
X68904302Y-135999328D01*
X68696872Y-135960552D01*
X68696869Y-135960551D01*
X68691243Y-135959500D01*
X68468757Y-135959500D01*
X68463131Y-135960551D01*
X68463127Y-135960552D01*
X68255697Y-135999328D01*
X68255694Y-135999328D01*
X68250060Y-136000382D01*
X68244717Y-136002451D01*
X68244713Y-136002453D01*
X68047941Y-136078683D01*
X68047936Y-136078685D01*
X68042599Y-136080753D01*
X68037727Y-136083769D01*
X68037724Y-136083771D01*
X67858309Y-136194859D01*
X67858301Y-136194864D01*
X67853438Y-136197876D01*
X67849207Y-136201732D01*
X67849203Y-136201736D01*
X67693259Y-136343897D01*
X67693249Y-136343907D01*
X67689019Y-136347764D01*
X67685570Y-136352330D01*
X67685561Y-136352341D01*
X67566333Y-136510227D01*
X67522651Y-136546500D01*
X67467379Y-136559500D01*
X62072621Y-136559500D01*
X62017349Y-136546500D01*
X61973667Y-136510227D01*
X61854438Y-136352341D01*
X61854434Y-136352337D01*
X61850981Y-136347764D01*
X61846744Y-136343901D01*
X61846740Y-136343897D01*
X61690796Y-136201736D01*
X61690797Y-136201736D01*
X61686562Y-136197876D01*
X61681692Y-136194861D01*
X61681690Y-136194859D01*
X61502275Y-136083771D01*
X61502276Y-136083771D01*
X61497401Y-136080753D01*
X61419967Y-136050755D01*
X61295286Y-136002453D01*
X61295285Y-136002452D01*
X61289940Y-136000382D01*
X61284302Y-135999328D01*
X61076872Y-135960552D01*
X61076869Y-135960551D01*
X61071243Y-135959500D01*
X60848757Y-135959500D01*
X60843131Y-135960551D01*
X60843127Y-135960552D01*
X60635697Y-135999328D01*
X60635694Y-135999328D01*
X60630060Y-136000382D01*
X60624717Y-136002451D01*
X60624713Y-136002453D01*
X60427941Y-136078683D01*
X60427936Y-136078685D01*
X60422599Y-136080753D01*
X60417727Y-136083769D01*
X60417724Y-136083771D01*
X60238309Y-136194859D01*
X60238301Y-136194864D01*
X60233438Y-136197876D01*
X60229207Y-136201732D01*
X60229203Y-136201736D01*
X60073259Y-136343897D01*
X60073249Y-136343907D01*
X60069019Y-136347764D01*
X60065570Y-136352330D01*
X60065561Y-136352341D01*
X59946333Y-136510227D01*
X59902651Y-136546500D01*
X59847379Y-136559500D01*
X54452621Y-136559500D01*
X54397349Y-136546500D01*
X54353667Y-136510227D01*
X54234438Y-136352341D01*
X54234434Y-136352337D01*
X54230981Y-136347764D01*
X54226744Y-136343901D01*
X54226740Y-136343897D01*
X54070796Y-136201736D01*
X54070797Y-136201736D01*
X54066562Y-136197876D01*
X54061692Y-136194861D01*
X54061690Y-136194859D01*
X54030239Y-136175386D01*
X53999222Y-136156181D01*
X53956171Y-136111094D01*
X53940500Y-136050755D01*
X53940500Y-123570000D01*
X65384435Y-123570000D01*
X65404632Y-123749255D01*
X65406928Y-123755819D01*
X65406930Y-123755824D01*
X65461913Y-123912956D01*
X65464211Y-123919522D01*
X65560184Y-124072262D01*
X65687738Y-124199816D01*
X65840478Y-124295789D01*
X66010745Y-124355368D01*
X66190000Y-124375565D01*
X66369255Y-124355368D01*
X66539522Y-124295789D01*
X66692262Y-124199816D01*
X66819816Y-124072262D01*
X66915789Y-123919522D01*
X66975368Y-123749255D01*
X66995565Y-123570000D01*
X66975368Y-123390745D01*
X66915789Y-123220478D01*
X66819816Y-123067738D01*
X66816718Y-123064640D01*
X66797459Y-123029793D01*
X66790500Y-122988838D01*
X66790500Y-121350762D01*
X66799939Y-121303309D01*
X66826819Y-121263081D01*
X66828052Y-121261848D01*
X66883727Y-121206173D01*
X66979700Y-121053433D01*
X67039279Y-120883166D01*
X67059476Y-120703911D01*
X67039279Y-120524656D01*
X66979700Y-120354389D01*
X66883727Y-120201649D01*
X66756173Y-120074095D01*
X66603433Y-119978122D01*
X66596870Y-119975825D01*
X66596867Y-119975824D01*
X66439735Y-119920841D01*
X66439730Y-119920839D01*
X66433166Y-119918543D01*
X66426246Y-119917763D01*
X66426245Y-119917763D01*
X66260834Y-119899126D01*
X66253911Y-119898346D01*
X66246988Y-119899126D01*
X66081576Y-119917763D01*
X66081573Y-119917763D01*
X66074656Y-119918543D01*
X66068093Y-119920839D01*
X66068086Y-119920841D01*
X65910954Y-119975824D01*
X65910947Y-119975826D01*
X65904389Y-119978122D01*
X65898501Y-119981821D01*
X65898498Y-119981823D01*
X65757549Y-120070387D01*
X65757544Y-120070390D01*
X65751649Y-120074095D01*
X65746724Y-120079019D01*
X65746720Y-120079023D01*
X65629023Y-120196720D01*
X65629019Y-120196724D01*
X65624095Y-120201649D01*
X65620390Y-120207544D01*
X65620387Y-120207549D01*
X65531823Y-120348498D01*
X65531821Y-120348501D01*
X65528122Y-120354389D01*
X65525826Y-120360947D01*
X65525824Y-120360954D01*
X65470841Y-120518086D01*
X65470839Y-120518093D01*
X65468543Y-120524656D01*
X65467763Y-120531573D01*
X65467763Y-120531576D01*
X65455063Y-120644291D01*
X65448346Y-120703911D01*
X65449126Y-120710834D01*
X65467497Y-120873888D01*
X65468543Y-120883166D01*
X65470839Y-120889730D01*
X65470841Y-120889735D01*
X65505430Y-120988584D01*
X65528122Y-121053433D01*
X65540652Y-121073375D01*
X65570494Y-121120867D01*
X65589500Y-121186839D01*
X65589500Y-122988838D01*
X65582541Y-123029793D01*
X65563281Y-123064640D01*
X65560184Y-123067738D01*
X65556483Y-123073627D01*
X65556479Y-123073633D01*
X65467912Y-123214587D01*
X65467910Y-123214590D01*
X65464211Y-123220478D01*
X65461915Y-123227036D01*
X65461913Y-123227043D01*
X65406930Y-123384175D01*
X65406928Y-123384182D01*
X65404632Y-123390745D01*
X65384435Y-123570000D01*
X53940500Y-123570000D01*
X53940500Y-121920000D01*
X54708000Y-121920000D01*
X54727956Y-122135354D01*
X54787143Y-122343375D01*
X54789695Y-122348501D01*
X54789697Y-122348505D01*
X54880991Y-122531848D01*
X54880993Y-122531852D01*
X54883546Y-122536978D01*
X54886995Y-122541545D01*
X54886998Y-122541550D01*
X55010424Y-122704993D01*
X55010429Y-122704998D01*
X55013882Y-122709571D01*
X55018118Y-122713432D01*
X55018122Y-122713437D01*
X55127943Y-122813552D01*
X55173712Y-122855276D01*
X55357595Y-122969131D01*
X55559267Y-123047260D01*
X55771861Y-123087000D01*
X55982410Y-123087000D01*
X55988139Y-123087000D01*
X56200733Y-123047260D01*
X56402405Y-122969131D01*
X56586288Y-122855276D01*
X56746118Y-122709571D01*
X56876454Y-122536978D01*
X56972857Y-122343375D01*
X57032044Y-122135354D01*
X57051114Y-121929558D01*
X57071218Y-121872507D01*
X57115921Y-121831754D01*
X57174585Y-121817000D01*
X57252410Y-121817000D01*
X57258139Y-121817000D01*
X57470733Y-121777260D01*
X57672405Y-121699131D01*
X57856288Y-121585276D01*
X58016118Y-121439571D01*
X58146454Y-121266978D01*
X58242857Y-121073375D01*
X58302044Y-120865354D01*
X58322000Y-120650000D01*
X58302044Y-120434646D01*
X58242857Y-120226625D01*
X58146454Y-120033022D01*
X58120250Y-119998322D01*
X58019575Y-119865006D01*
X58019571Y-119865002D01*
X58016118Y-119860429D01*
X58011881Y-119856566D01*
X58011877Y-119856562D01*
X57860522Y-119718584D01*
X57860523Y-119718584D01*
X57856288Y-119714724D01*
X57851418Y-119711709D01*
X57851416Y-119711707D01*
X57677281Y-119603888D01*
X57677280Y-119603887D01*
X57672405Y-119600869D01*
X57667058Y-119598797D01*
X57667055Y-119598796D01*
X57476081Y-119524812D01*
X57476082Y-119524812D01*
X57470733Y-119522740D01*
X57465107Y-119521688D01*
X57465099Y-119521686D01*
X57263769Y-119484052D01*
X57263764Y-119484051D01*
X57258139Y-119483000D01*
X57041861Y-119483000D01*
X57036236Y-119484051D01*
X57036230Y-119484052D01*
X56834900Y-119521686D01*
X56834889Y-119521688D01*
X56829267Y-119522740D01*
X56823920Y-119524811D01*
X56823918Y-119524812D01*
X56632943Y-119598796D01*
X56632932Y-119598801D01*
X56627595Y-119600869D01*
X56622723Y-119603885D01*
X56622716Y-119603889D01*
X56610542Y-119611427D01*
X56545265Y-119630000D01*
X54729826Y-119630000D01*
X54716950Y-119633450D01*
X54713500Y-119646326D01*
X54713500Y-120091018D01*
X54713853Y-120097614D01*
X54719073Y-120146167D01*
X54722611Y-120161141D01*
X54767047Y-120280277D01*
X54775462Y-120295689D01*
X54850998Y-120396592D01*
X54863407Y-120409001D01*
X54964310Y-120484537D01*
X54979722Y-120492952D01*
X55098858Y-120537388D01*
X55113832Y-120540926D01*
X55162385Y-120546146D01*
X55168982Y-120546500D01*
X55538360Y-120546500D01*
X55597024Y-120561255D01*
X55641727Y-120602008D01*
X55661831Y-120659061D01*
X55652551Y-120718836D01*
X55616096Y-120767108D01*
X55569918Y-120788350D01*
X55570421Y-120790116D01*
X55564899Y-120791687D01*
X55559267Y-120792740D01*
X55553920Y-120794811D01*
X55553918Y-120794812D01*
X55362944Y-120868796D01*
X55362937Y-120868799D01*
X55357595Y-120870869D01*
X55352723Y-120873885D01*
X55352718Y-120873888D01*
X55178583Y-120981707D01*
X55178575Y-120981712D01*
X55173712Y-120984724D01*
X55169481Y-120988580D01*
X55169477Y-120988584D01*
X55018122Y-121126562D01*
X55018112Y-121126572D01*
X55013882Y-121130429D01*
X55010433Y-121134995D01*
X55010424Y-121135006D01*
X54886998Y-121298449D01*
X54886991Y-121298459D01*
X54883546Y-121303022D01*
X54880996Y-121308142D01*
X54880991Y-121308151D01*
X54789697Y-121491494D01*
X54789693Y-121491502D01*
X54787143Y-121496625D01*
X54785574Y-121502137D01*
X54785574Y-121502139D01*
X54729525Y-121699129D01*
X54729525Y-121699131D01*
X54727956Y-121704646D01*
X54727427Y-121710351D01*
X54727427Y-121710353D01*
X54717642Y-121815947D01*
X54708000Y-121920000D01*
X53940500Y-121920000D01*
X53940500Y-120341141D01*
X53941561Y-120324956D01*
X53944621Y-120301713D01*
X53945682Y-120293654D01*
X53925044Y-120136892D01*
X53864536Y-119990813D01*
X53802014Y-119909333D01*
X53802014Y-119909332D01*
X53773228Y-119871818D01*
X53768282Y-119865372D01*
X53743222Y-119846143D01*
X53731034Y-119835453D01*
X53009255Y-119113674D01*
X54713500Y-119113674D01*
X54716950Y-119126549D01*
X54729826Y-119130000D01*
X55613674Y-119130000D01*
X55626549Y-119126549D01*
X55630000Y-119113674D01*
X56130000Y-119113674D01*
X56133450Y-119126549D01*
X56146326Y-119130000D01*
X57030174Y-119130000D01*
X57043049Y-119126549D01*
X57046500Y-119113674D01*
X57046500Y-118668982D01*
X57046146Y-118662385D01*
X57040926Y-118613832D01*
X57037388Y-118598858D01*
X56992952Y-118479722D01*
X56984537Y-118464310D01*
X56909001Y-118363407D01*
X56896592Y-118350998D01*
X56795689Y-118275462D01*
X56780277Y-118267047D01*
X56661141Y-118222611D01*
X56646167Y-118219073D01*
X56597614Y-118213853D01*
X56591018Y-118213500D01*
X56146326Y-118213500D01*
X56133450Y-118216950D01*
X56130000Y-118229826D01*
X56130000Y-119113674D01*
X55630000Y-119113674D01*
X55630000Y-118229826D01*
X55626549Y-118216950D01*
X55613674Y-118213500D01*
X55168982Y-118213500D01*
X55162385Y-118213853D01*
X55113832Y-118219073D01*
X55098858Y-118222611D01*
X54979722Y-118267047D01*
X54964310Y-118275462D01*
X54863407Y-118350998D01*
X54850998Y-118363407D01*
X54775462Y-118464310D01*
X54767047Y-118479722D01*
X54722611Y-118598858D01*
X54719073Y-118613832D01*
X54713853Y-118662385D01*
X54713500Y-118668982D01*
X54713500Y-119113674D01*
X53009255Y-119113674D01*
X44190419Y-110294838D01*
X44158325Y-110239249D01*
X44158326Y-110175061D01*
X44190420Y-110119474D01*
X44218495Y-110091401D01*
X44354035Y-109897830D01*
X44453903Y-109683663D01*
X44515063Y-109455408D01*
X44535659Y-109220000D01*
X44515063Y-108984592D01*
X44453903Y-108756337D01*
X44354035Y-108542171D01*
X44218495Y-108348599D01*
X44051401Y-108181505D01*
X44046968Y-108178401D01*
X44046961Y-108178395D01*
X43865842Y-108051575D01*
X43826976Y-108007257D01*
X43812965Y-107950000D01*
X43826976Y-107892743D01*
X43865842Y-107848425D01*
X44046961Y-107721604D01*
X44046961Y-107721603D01*
X44051401Y-107718495D01*
X44218495Y-107551401D01*
X44354035Y-107357830D01*
X44453903Y-107143663D01*
X44515063Y-106915408D01*
X44535659Y-106680000D01*
X44515063Y-106444592D01*
X44453903Y-106216337D01*
X44354035Y-106002171D01*
X44218495Y-105808599D01*
X44051401Y-105641505D01*
X44046968Y-105638401D01*
X44046961Y-105638395D01*
X43865842Y-105511575D01*
X43826976Y-105467257D01*
X43812965Y-105410000D01*
X43826976Y-105352743D01*
X43865842Y-105308425D01*
X44046961Y-105181604D01*
X44046961Y-105181603D01*
X44051401Y-105178495D01*
X44218495Y-105011401D01*
X44354035Y-104817830D01*
X44453903Y-104603663D01*
X44515063Y-104375408D01*
X44535659Y-104140000D01*
X44515063Y-103904592D01*
X44453903Y-103676337D01*
X44354035Y-103462171D01*
X44218495Y-103268599D01*
X44051401Y-103101505D01*
X44046968Y-103098401D01*
X44046961Y-103098395D01*
X43865842Y-102971575D01*
X43826976Y-102927257D01*
X43812965Y-102870000D01*
X43826976Y-102812743D01*
X43865842Y-102768425D01*
X44046961Y-102641604D01*
X44046961Y-102641603D01*
X44051401Y-102638495D01*
X44218495Y-102471401D01*
X44354035Y-102277830D01*
X44453903Y-102063663D01*
X44515063Y-101835408D01*
X44535659Y-101600000D01*
X44515063Y-101364592D01*
X44453903Y-101136337D01*
X44354035Y-100922171D01*
X44218495Y-100728599D01*
X44051401Y-100561505D01*
X44046970Y-100558402D01*
X44046966Y-100558399D01*
X43865841Y-100431574D01*
X43826976Y-100387256D01*
X43812965Y-100329999D01*
X43826976Y-100272742D01*
X43865839Y-100228426D01*
X44051401Y-100098495D01*
X44218495Y-99931401D01*
X44354035Y-99737830D01*
X44453903Y-99523663D01*
X44515063Y-99295408D01*
X44535659Y-99060000D01*
X44515063Y-98824592D01*
X44453903Y-98596337D01*
X44354035Y-98382171D01*
X44218495Y-98188599D01*
X44051401Y-98021505D01*
X44046968Y-98018401D01*
X44046961Y-98018395D01*
X43865842Y-97891575D01*
X43826976Y-97847257D01*
X43812965Y-97790000D01*
X43826976Y-97732743D01*
X43865842Y-97688425D01*
X44046961Y-97561604D01*
X44046961Y-97561603D01*
X44051401Y-97558495D01*
X44218495Y-97391401D01*
X44354035Y-97197830D01*
X44453903Y-96983663D01*
X44515063Y-96755408D01*
X44535659Y-96520000D01*
X44515063Y-96284592D01*
X44453903Y-96056337D01*
X44354035Y-95842171D01*
X44218495Y-95648599D01*
X44051401Y-95481505D01*
X44046968Y-95478401D01*
X44046961Y-95478395D01*
X43865842Y-95351575D01*
X43826976Y-95307257D01*
X43812965Y-95250000D01*
X43826976Y-95192743D01*
X43865842Y-95148425D01*
X44046961Y-95021604D01*
X44046961Y-95021603D01*
X44051401Y-95018495D01*
X44218495Y-94851401D01*
X44354035Y-94657830D01*
X44453903Y-94443663D01*
X44515063Y-94215408D01*
X44535659Y-93980000D01*
X44515063Y-93744592D01*
X44453903Y-93516337D01*
X44354035Y-93302171D01*
X44218495Y-93108599D01*
X44051401Y-92941505D01*
X44046968Y-92938401D01*
X44046961Y-92938395D01*
X43865842Y-92811575D01*
X43826976Y-92767257D01*
X43812965Y-92710000D01*
X43826976Y-92652743D01*
X43865842Y-92608425D01*
X44046961Y-92481604D01*
X44046961Y-92481603D01*
X44051401Y-92478495D01*
X44218495Y-92311401D01*
X44354035Y-92117830D01*
X44453903Y-91903663D01*
X44515063Y-91675408D01*
X44535659Y-91440000D01*
X44515063Y-91204592D01*
X44453903Y-90976337D01*
X44354035Y-90762171D01*
X44218495Y-90568599D01*
X44051401Y-90401505D01*
X44046968Y-90398401D01*
X44046961Y-90398395D01*
X43865842Y-90271575D01*
X43826976Y-90227257D01*
X43812965Y-90170000D01*
X43826976Y-90112743D01*
X43865842Y-90068425D01*
X44046961Y-89941604D01*
X44046961Y-89941603D01*
X44051401Y-89938495D01*
X44218495Y-89771401D01*
X44354035Y-89577830D01*
X44453903Y-89363663D01*
X44515063Y-89135408D01*
X44535659Y-88900000D01*
X44515063Y-88664592D01*
X44453903Y-88436337D01*
X44354035Y-88222171D01*
X44218495Y-88028599D01*
X44051401Y-87861505D01*
X44046970Y-87858402D01*
X44046966Y-87858399D01*
X43865841Y-87731574D01*
X43826976Y-87687256D01*
X43812965Y-87629999D01*
X43826976Y-87572742D01*
X43865839Y-87528426D01*
X44051401Y-87398495D01*
X44218495Y-87231401D01*
X44354035Y-87037830D01*
X44453903Y-86823663D01*
X44515063Y-86595408D01*
X44535659Y-86360000D01*
X44515063Y-86124592D01*
X44472728Y-85966593D01*
X44470886Y-85910308D01*
X44494127Y-85859013D01*
X44537659Y-85823288D01*
X44592503Y-85810500D01*
X59703997Y-85810500D01*
X59759269Y-85823500D01*
X59802951Y-85859773D01*
X59825886Y-85911715D01*
X59823263Y-85968432D01*
X59774885Y-86138464D01*
X59754357Y-86360000D01*
X59774885Y-86581536D01*
X59776454Y-86587050D01*
X59834201Y-86790013D01*
X59834204Y-86790021D01*
X59835771Y-86795528D01*
X59838323Y-86800653D01*
X59838325Y-86800658D01*
X59932387Y-86989559D01*
X59932389Y-86989563D01*
X59934942Y-86994689D01*
X59938391Y-86999256D01*
X59938394Y-86999261D01*
X60065561Y-87167658D01*
X60065566Y-87167663D01*
X60069019Y-87172236D01*
X60073255Y-87176097D01*
X60073259Y-87176102D01*
X60138122Y-87235232D01*
X60233438Y-87322124D01*
X60422599Y-87439247D01*
X60630060Y-87519618D01*
X60848757Y-87560500D01*
X61065514Y-87560500D01*
X61071243Y-87560500D01*
X61289940Y-87519618D01*
X61497401Y-87439247D01*
X61686562Y-87322124D01*
X61850981Y-87172236D01*
X61985058Y-86994689D01*
X62084229Y-86795528D01*
X62110734Y-86702371D01*
X62143133Y-86647818D01*
X62198275Y-86616433D01*
X62261725Y-86616433D01*
X62316867Y-86647818D01*
X62349265Y-86702371D01*
X62375771Y-86795528D01*
X62378323Y-86800653D01*
X62378325Y-86800658D01*
X62472387Y-86989559D01*
X62472389Y-86989563D01*
X62474942Y-86994689D01*
X62478391Y-86999256D01*
X62478394Y-86999261D01*
X62605561Y-87167658D01*
X62605566Y-87167663D01*
X62609019Y-87172236D01*
X62613255Y-87176097D01*
X62613259Y-87176102D01*
X62678122Y-87235232D01*
X62773438Y-87322124D01*
X62840777Y-87363818D01*
X62883829Y-87408906D01*
X62899500Y-87469245D01*
X62899500Y-92870755D01*
X62883829Y-92931094D01*
X62840777Y-92976181D01*
X62823414Y-92986931D01*
X62778309Y-93014859D01*
X62778301Y-93014864D01*
X62773438Y-93017876D01*
X62769207Y-93021732D01*
X62769203Y-93021736D01*
X62613259Y-93163897D01*
X62613249Y-93163907D01*
X62609019Y-93167764D01*
X62605570Y-93172330D01*
X62605561Y-93172341D01*
X62478394Y-93340738D01*
X62478387Y-93340748D01*
X62474942Y-93345311D01*
X62472392Y-93350431D01*
X62472387Y-93350440D01*
X62378325Y-93539341D01*
X62378321Y-93539349D01*
X62375771Y-93544472D01*
X62374205Y-93549975D01*
X62374201Y-93549986D01*
X62349266Y-93637627D01*
X62316867Y-93692181D01*
X62261724Y-93723566D01*
X62198276Y-93723566D01*
X62143133Y-93692181D01*
X62110734Y-93637627D01*
X62085798Y-93549986D01*
X62085797Y-93549984D01*
X62084229Y-93544472D01*
X61985058Y-93345311D01*
X61975780Y-93333025D01*
X61854438Y-93172341D01*
X61854434Y-93172337D01*
X61850981Y-93167764D01*
X61846744Y-93163901D01*
X61846740Y-93163897D01*
X61707854Y-93037286D01*
X61686562Y-93017876D01*
X61681692Y-93014861D01*
X61681690Y-93014859D01*
X61502275Y-92903771D01*
X61502276Y-92903771D01*
X61497401Y-92900753D01*
X61419967Y-92870755D01*
X61295286Y-92822453D01*
X61295285Y-92822452D01*
X61289940Y-92820382D01*
X61284302Y-92819328D01*
X61076872Y-92780552D01*
X61076869Y-92780551D01*
X61071243Y-92779500D01*
X60848757Y-92779500D01*
X60843131Y-92780551D01*
X60843127Y-92780552D01*
X60635697Y-92819328D01*
X60635694Y-92819328D01*
X60630060Y-92820382D01*
X60624717Y-92822451D01*
X60624713Y-92822453D01*
X60427941Y-92898683D01*
X60427936Y-92898685D01*
X60422599Y-92900753D01*
X60417727Y-92903769D01*
X60417724Y-92903771D01*
X60238309Y-93014859D01*
X60238301Y-93014864D01*
X60233438Y-93017876D01*
X60229207Y-93021732D01*
X60229203Y-93021736D01*
X60073259Y-93163897D01*
X60073249Y-93163907D01*
X60069019Y-93167764D01*
X60065570Y-93172330D01*
X60065561Y-93172341D01*
X59938394Y-93340738D01*
X59938387Y-93340748D01*
X59934942Y-93345311D01*
X59932392Y-93350431D01*
X59932387Y-93350440D01*
X59838325Y-93539341D01*
X59838321Y-93539349D01*
X59835771Y-93544472D01*
X59834205Y-93549975D01*
X59834201Y-93549986D01*
X59777298Y-93749982D01*
X59774885Y-93758464D01*
X59754357Y-93980000D01*
X59774885Y-94201536D01*
X59776454Y-94207050D01*
X59834201Y-94410013D01*
X59834204Y-94410021D01*
X59835771Y-94415528D01*
X59838323Y-94420653D01*
X59838325Y-94420658D01*
X59932387Y-94609559D01*
X59932389Y-94609563D01*
X59934942Y-94614689D01*
X59938391Y-94619256D01*
X59938394Y-94619261D01*
X60065561Y-94787658D01*
X60065566Y-94787663D01*
X60069019Y-94792236D01*
X60073255Y-94796097D01*
X60073259Y-94796102D01*
X60138122Y-94855232D01*
X60233438Y-94942124D01*
X60422599Y-95059247D01*
X60630060Y-95139618D01*
X60848757Y-95180500D01*
X61065514Y-95180500D01*
X61071243Y-95180500D01*
X61289940Y-95139618D01*
X61497401Y-95059247D01*
X61686562Y-94942124D01*
X61850981Y-94792236D01*
X61985058Y-94614689D01*
X62084229Y-94415528D01*
X62110734Y-94322371D01*
X62143133Y-94267818D01*
X62198275Y-94236433D01*
X62261725Y-94236433D01*
X62316867Y-94267818D01*
X62349265Y-94322371D01*
X62375771Y-94415528D01*
X62378323Y-94420653D01*
X62378325Y-94420658D01*
X62472387Y-94609559D01*
X62472389Y-94609563D01*
X62474942Y-94614689D01*
X62478391Y-94619256D01*
X62478394Y-94619261D01*
X62605561Y-94787658D01*
X62605566Y-94787663D01*
X62609019Y-94792236D01*
X62613255Y-94796097D01*
X62613259Y-94796102D01*
X62678122Y-94855232D01*
X62773438Y-94942124D01*
X62840777Y-94983818D01*
X62883829Y-95028906D01*
X62899500Y-95089245D01*
X62899500Y-100490755D01*
X62883829Y-100551094D01*
X62840777Y-100596181D01*
X62823414Y-100606931D01*
X62778309Y-100634859D01*
X62778301Y-100634864D01*
X62773438Y-100637876D01*
X62769207Y-100641732D01*
X62769203Y-100641736D01*
X62613259Y-100783897D01*
X62613249Y-100783907D01*
X62609019Y-100787764D01*
X62605570Y-100792330D01*
X62605561Y-100792341D01*
X62478394Y-100960738D01*
X62478387Y-100960748D01*
X62474942Y-100965311D01*
X62472392Y-100970431D01*
X62472387Y-100970440D01*
X62378325Y-101159341D01*
X62378321Y-101159349D01*
X62375771Y-101164472D01*
X62374205Y-101169975D01*
X62374201Y-101169986D01*
X62349266Y-101257627D01*
X62316867Y-101312181D01*
X62261724Y-101343566D01*
X62198276Y-101343566D01*
X62143133Y-101312181D01*
X62110734Y-101257627D01*
X62085798Y-101169986D01*
X62085797Y-101169984D01*
X62084229Y-101164472D01*
X61985058Y-100965311D01*
X61975780Y-100953025D01*
X61854438Y-100792341D01*
X61854434Y-100792337D01*
X61850981Y-100787764D01*
X61846744Y-100783901D01*
X61846740Y-100783897D01*
X61690796Y-100641736D01*
X61690797Y-100641736D01*
X61686562Y-100637876D01*
X61681692Y-100634861D01*
X61681690Y-100634859D01*
X61502275Y-100523771D01*
X61502276Y-100523771D01*
X61497401Y-100520753D01*
X61419967Y-100490755D01*
X61295286Y-100442453D01*
X61295285Y-100442452D01*
X61289940Y-100440382D01*
X61284302Y-100439328D01*
X61076872Y-100400552D01*
X61076869Y-100400551D01*
X61071243Y-100399500D01*
X60848757Y-100399500D01*
X60843131Y-100400551D01*
X60843127Y-100400552D01*
X60635697Y-100439328D01*
X60635694Y-100439328D01*
X60630060Y-100440382D01*
X60624717Y-100442451D01*
X60624713Y-100442453D01*
X60427941Y-100518683D01*
X60427936Y-100518685D01*
X60422599Y-100520753D01*
X60417727Y-100523769D01*
X60417724Y-100523771D01*
X60238309Y-100634859D01*
X60238301Y-100634864D01*
X60233438Y-100637876D01*
X60229207Y-100641732D01*
X60229203Y-100641736D01*
X60073259Y-100783897D01*
X60073249Y-100783907D01*
X60069019Y-100787764D01*
X60065570Y-100792330D01*
X60065561Y-100792341D01*
X59938394Y-100960738D01*
X59938387Y-100960748D01*
X59934942Y-100965311D01*
X59932392Y-100970431D01*
X59932387Y-100970440D01*
X59838325Y-101159341D01*
X59838321Y-101159349D01*
X59835771Y-101164472D01*
X59834205Y-101169975D01*
X59834201Y-101169986D01*
X59793744Y-101312181D01*
X59774885Y-101378464D01*
X59754357Y-101600000D01*
X59774885Y-101821536D01*
X59776454Y-101827050D01*
X59834201Y-102030013D01*
X59834204Y-102030021D01*
X59835771Y-102035528D01*
X59838323Y-102040653D01*
X59838325Y-102040658D01*
X59932387Y-102229559D01*
X59932389Y-102229563D01*
X59934942Y-102234689D01*
X59938391Y-102239256D01*
X59938394Y-102239261D01*
X60065561Y-102407658D01*
X60065566Y-102407663D01*
X60069019Y-102412236D01*
X60073255Y-102416097D01*
X60073259Y-102416102D01*
X60138122Y-102475232D01*
X60233438Y-102562124D01*
X60422599Y-102679247D01*
X60630060Y-102759618D01*
X60848757Y-102800500D01*
X61065514Y-102800500D01*
X61071243Y-102800500D01*
X61289940Y-102759618D01*
X61497401Y-102679247D01*
X61686562Y-102562124D01*
X61850981Y-102412236D01*
X61985058Y-102234689D01*
X62084229Y-102035528D01*
X62110734Y-101942371D01*
X62143133Y-101887818D01*
X62198275Y-101856433D01*
X62261725Y-101856433D01*
X62316867Y-101887818D01*
X62349265Y-101942371D01*
X62375771Y-102035528D01*
X62378323Y-102040653D01*
X62378325Y-102040658D01*
X62472387Y-102229559D01*
X62472389Y-102229563D01*
X62474942Y-102234689D01*
X62478391Y-102239256D01*
X62478394Y-102239261D01*
X62605561Y-102407658D01*
X62605566Y-102407663D01*
X62609019Y-102412236D01*
X62613255Y-102416097D01*
X62613259Y-102416102D01*
X62678122Y-102475232D01*
X62773438Y-102562124D01*
X62840777Y-102603818D01*
X62883829Y-102648906D01*
X62899500Y-102709245D01*
X62899500Y-108110755D01*
X62883829Y-108171094D01*
X62840777Y-108216181D01*
X62823414Y-108226931D01*
X62778309Y-108254859D01*
X62778301Y-108254864D01*
X62773438Y-108257876D01*
X62769207Y-108261732D01*
X62769203Y-108261736D01*
X62613259Y-108403897D01*
X62613249Y-108403907D01*
X62609019Y-108407764D01*
X62605570Y-108412330D01*
X62605561Y-108412341D01*
X62478394Y-108580738D01*
X62478387Y-108580748D01*
X62474942Y-108585311D01*
X62472392Y-108590431D01*
X62472387Y-108590440D01*
X62378325Y-108779341D01*
X62378321Y-108779349D01*
X62375771Y-108784472D01*
X62374205Y-108789975D01*
X62374201Y-108789986D01*
X62349266Y-108877627D01*
X62316867Y-108932181D01*
X62261724Y-108963566D01*
X62198276Y-108963566D01*
X62143133Y-108932181D01*
X62110734Y-108877627D01*
X62085798Y-108789986D01*
X62085797Y-108789984D01*
X62084229Y-108784472D01*
X61985058Y-108585311D01*
X61956193Y-108547087D01*
X61854438Y-108412341D01*
X61854434Y-108412337D01*
X61850981Y-108407764D01*
X61846744Y-108403901D01*
X61846740Y-108403897D01*
X61690796Y-108261736D01*
X61690797Y-108261736D01*
X61686562Y-108257876D01*
X61681692Y-108254861D01*
X61681690Y-108254859D01*
X61502275Y-108143771D01*
X61502276Y-108143771D01*
X61497401Y-108140753D01*
X61419967Y-108110755D01*
X61295286Y-108062453D01*
X61295285Y-108062452D01*
X61289940Y-108060382D01*
X61284302Y-108059328D01*
X61076872Y-108020552D01*
X61076869Y-108020551D01*
X61071243Y-108019500D01*
X60848757Y-108019500D01*
X60843131Y-108020551D01*
X60843127Y-108020552D01*
X60635697Y-108059328D01*
X60635694Y-108059328D01*
X60630060Y-108060382D01*
X60624717Y-108062451D01*
X60624713Y-108062453D01*
X60427941Y-108138683D01*
X60427936Y-108138685D01*
X60422599Y-108140753D01*
X60417727Y-108143769D01*
X60417724Y-108143771D01*
X60238309Y-108254859D01*
X60238301Y-108254864D01*
X60233438Y-108257876D01*
X60229207Y-108261732D01*
X60229203Y-108261736D01*
X60073259Y-108403897D01*
X60073249Y-108403907D01*
X60069019Y-108407764D01*
X60065570Y-108412330D01*
X60065561Y-108412341D01*
X59938394Y-108580738D01*
X59938387Y-108580748D01*
X59934942Y-108585311D01*
X59932392Y-108590431D01*
X59932387Y-108590440D01*
X59838325Y-108779341D01*
X59838321Y-108779349D01*
X59835771Y-108784472D01*
X59834205Y-108789975D01*
X59834201Y-108789986D01*
X59793744Y-108932181D01*
X59774885Y-108998464D01*
X59774356Y-109004169D01*
X59774356Y-109004171D01*
X59759159Y-109168181D01*
X59754357Y-109220000D01*
X59774885Y-109441536D01*
X59776454Y-109447050D01*
X59834201Y-109650013D01*
X59834202Y-109650015D01*
X59835771Y-109655528D01*
X59838323Y-109660653D01*
X59838325Y-109660658D01*
X59932387Y-109849559D01*
X59932389Y-109849563D01*
X59934942Y-109854689D01*
X59938391Y-109859256D01*
X59938394Y-109859261D01*
X60065561Y-110027658D01*
X60065566Y-110027663D01*
X60069019Y-110032236D01*
X60073255Y-110036097D01*
X60073259Y-110036102D01*
X60138119Y-110095229D01*
X60233438Y-110182124D01*
X60422599Y-110299247D01*
X60630060Y-110379618D01*
X60848757Y-110420500D01*
X61065514Y-110420500D01*
X61071243Y-110420500D01*
X61289940Y-110379618D01*
X61497401Y-110299247D01*
X61686562Y-110182124D01*
X61850981Y-110032236D01*
X61985058Y-109854689D01*
X62084229Y-109655528D01*
X62110735Y-109562366D01*
X62143131Y-109507819D01*
X62198273Y-109476433D01*
X62261722Y-109476433D01*
X62316866Y-109507818D01*
X62349265Y-109562371D01*
X62374202Y-109650015D01*
X62375771Y-109655528D01*
X62378323Y-109660653D01*
X62378325Y-109660658D01*
X62472387Y-109849559D01*
X62472389Y-109849563D01*
X62474942Y-109854689D01*
X62478391Y-109859256D01*
X62478394Y-109859261D01*
X62605561Y-110027658D01*
X62605566Y-110027663D01*
X62609019Y-110032236D01*
X62613255Y-110036097D01*
X62613259Y-110036102D01*
X62678119Y-110095229D01*
X62773438Y-110182124D01*
X62962599Y-110299247D01*
X63170060Y-110379618D01*
X63388757Y-110420500D01*
X63605514Y-110420500D01*
X63611243Y-110420500D01*
X63829940Y-110379618D01*
X64037401Y-110299247D01*
X64226562Y-110182124D01*
X64390981Y-110032236D01*
X64525058Y-109854689D01*
X64624229Y-109655528D01*
X64685115Y-109441536D01*
X64705643Y-109220000D01*
X64685115Y-108998464D01*
X64624229Y-108784472D01*
X64525058Y-108585311D01*
X64496193Y-108547087D01*
X64394438Y-108412341D01*
X64394434Y-108412337D01*
X64390981Y-108407764D01*
X64386744Y-108403901D01*
X64386740Y-108403897D01*
X64230796Y-108261736D01*
X64230797Y-108261736D01*
X64226562Y-108257876D01*
X64221692Y-108254861D01*
X64221690Y-108254859D01*
X64190239Y-108235386D01*
X64159222Y-108216181D01*
X64116171Y-108171094D01*
X64100500Y-108110755D01*
X64100500Y-104140000D01*
X72304341Y-104140000D01*
X72324937Y-104375408D01*
X72326336Y-104380630D01*
X72326337Y-104380634D01*
X72384694Y-104598430D01*
X72384697Y-104598438D01*
X72386097Y-104603663D01*
X72388385Y-104608570D01*
X72388386Y-104608572D01*
X72483678Y-104812927D01*
X72483681Y-104812933D01*
X72485965Y-104817830D01*
X72489064Y-104822257D01*
X72489066Y-104822259D01*
X72618399Y-105006966D01*
X72618402Y-105006970D01*
X72621505Y-105011401D01*
X72788599Y-105178495D01*
X72982170Y-105314035D01*
X73196337Y-105413903D01*
X73424592Y-105475063D01*
X73660000Y-105495659D01*
X73895408Y-105475063D01*
X74123663Y-105413903D01*
X74337830Y-105314035D01*
X74531401Y-105178495D01*
X74698495Y-105011401D01*
X74834035Y-104817830D01*
X74933903Y-104603663D01*
X74995063Y-104375408D01*
X75015659Y-104140000D01*
X74995063Y-103904592D01*
X74933903Y-103676337D01*
X74834035Y-103462171D01*
X74698495Y-103268599D01*
X74531401Y-103101505D01*
X74526968Y-103098401D01*
X74526961Y-103098395D01*
X74345842Y-102971575D01*
X74306976Y-102927257D01*
X74292965Y-102870000D01*
X74306976Y-102812743D01*
X74345842Y-102768425D01*
X74526961Y-102641604D01*
X74526961Y-102641603D01*
X74531401Y-102638495D01*
X74698495Y-102471401D01*
X74834035Y-102277830D01*
X74933903Y-102063663D01*
X74995063Y-101835408D01*
X75015659Y-101600000D01*
X74995063Y-101364592D01*
X74933903Y-101136337D01*
X74834035Y-100922171D01*
X74698495Y-100728599D01*
X74531401Y-100561505D01*
X74526970Y-100558402D01*
X74526966Y-100558399D01*
X74342259Y-100429066D01*
X74342257Y-100429064D01*
X74337830Y-100425965D01*
X74332933Y-100423681D01*
X74332927Y-100423678D01*
X74128572Y-100328386D01*
X74128570Y-100328385D01*
X74123663Y-100326097D01*
X74118438Y-100324697D01*
X74118430Y-100324694D01*
X73900634Y-100266337D01*
X73900630Y-100266336D01*
X73895408Y-100264937D01*
X73890020Y-100264465D01*
X73890017Y-100264465D01*
X73665395Y-100244813D01*
X73660000Y-100244341D01*
X73654605Y-100244813D01*
X73429982Y-100264465D01*
X73429977Y-100264465D01*
X73424592Y-100264937D01*
X73419371Y-100266335D01*
X73419365Y-100266337D01*
X73201569Y-100324694D01*
X73201557Y-100324698D01*
X73196337Y-100326097D01*
X73191432Y-100328383D01*
X73191427Y-100328386D01*
X72987081Y-100423675D01*
X72987077Y-100423677D01*
X72982171Y-100425965D01*
X72977738Y-100429068D01*
X72977731Y-100429073D01*
X72793034Y-100558399D01*
X72793029Y-100558402D01*
X72788599Y-100561505D01*
X72784775Y-100565328D01*
X72784769Y-100565334D01*
X72625334Y-100724769D01*
X72625328Y-100724775D01*
X72621505Y-100728599D01*
X72618402Y-100733029D01*
X72618399Y-100733034D01*
X72489073Y-100917731D01*
X72489068Y-100917738D01*
X72485965Y-100922171D01*
X72483677Y-100927077D01*
X72483675Y-100927081D01*
X72388386Y-101131427D01*
X72388383Y-101131432D01*
X72386097Y-101136337D01*
X72384698Y-101141557D01*
X72384694Y-101141569D01*
X72326337Y-101359365D01*
X72326335Y-101359371D01*
X72324937Y-101364592D01*
X72324465Y-101369977D01*
X72324465Y-101369982D01*
X72323723Y-101378464D01*
X72304341Y-101600000D01*
X72304813Y-101605395D01*
X72324205Y-101827050D01*
X72324937Y-101835408D01*
X72326336Y-101840630D01*
X72326337Y-101840634D01*
X72384694Y-102058430D01*
X72384697Y-102058438D01*
X72386097Y-102063663D01*
X72388385Y-102068570D01*
X72388386Y-102068572D01*
X72483678Y-102272927D01*
X72483681Y-102272933D01*
X72485965Y-102277830D01*
X72489064Y-102282257D01*
X72489066Y-102282259D01*
X72618399Y-102466966D01*
X72618402Y-102466970D01*
X72621505Y-102471401D01*
X72788599Y-102638495D01*
X72793032Y-102641599D01*
X72793038Y-102641604D01*
X72974158Y-102768425D01*
X73013024Y-102812743D01*
X73027035Y-102870000D01*
X73013024Y-102927257D01*
X72974159Y-102971575D01*
X72793041Y-103098395D01*
X72788599Y-103101505D01*
X72784775Y-103105328D01*
X72784769Y-103105334D01*
X72625334Y-103264769D01*
X72625328Y-103264775D01*
X72621505Y-103268599D01*
X72618402Y-103273029D01*
X72618399Y-103273034D01*
X72489073Y-103457731D01*
X72489068Y-103457738D01*
X72485965Y-103462171D01*
X72483677Y-103467077D01*
X72483675Y-103467081D01*
X72388386Y-103671427D01*
X72388383Y-103671432D01*
X72386097Y-103676337D01*
X72384698Y-103681557D01*
X72384694Y-103681569D01*
X72326337Y-103899365D01*
X72326335Y-103899371D01*
X72324937Y-103904592D01*
X72304341Y-104140000D01*
X64100500Y-104140000D01*
X64100500Y-102709245D01*
X64116171Y-102648906D01*
X64159222Y-102603818D01*
X64226562Y-102562124D01*
X64390981Y-102412236D01*
X64525058Y-102234689D01*
X64624229Y-102035528D01*
X64685115Y-101821536D01*
X64705643Y-101600000D01*
X64685115Y-101378464D01*
X64624229Y-101164472D01*
X64525058Y-100965311D01*
X64515780Y-100953025D01*
X64394438Y-100792341D01*
X64394434Y-100792337D01*
X64390981Y-100787764D01*
X64386744Y-100783901D01*
X64386740Y-100783897D01*
X64230796Y-100641736D01*
X64230797Y-100641736D01*
X64226562Y-100637876D01*
X64221692Y-100634861D01*
X64221690Y-100634859D01*
X64190239Y-100615386D01*
X64159222Y-100596181D01*
X64116171Y-100551094D01*
X64100500Y-100490755D01*
X64100500Y-95089245D01*
X64116171Y-95028906D01*
X64159222Y-94983818D01*
X64226562Y-94942124D01*
X64390981Y-94792236D01*
X64525058Y-94614689D01*
X64624229Y-94415528D01*
X64685115Y-94201536D01*
X64705643Y-93980000D01*
X64687786Y-93787292D01*
X64696916Y-93727873D01*
X64732925Y-93679729D01*
X64787347Y-93654181D01*
X64847389Y-93657235D01*
X64898938Y-93688173D01*
X65781799Y-94571034D01*
X65792489Y-94583222D01*
X65811718Y-94608282D01*
X65895886Y-94672866D01*
X65937159Y-94704536D01*
X66083238Y-94765044D01*
X66240000Y-94785682D01*
X66248059Y-94784621D01*
X66271302Y-94781561D01*
X66287487Y-94780500D01*
X73409308Y-94780500D01*
X73464580Y-94793500D01*
X73508261Y-94829772D01*
X73536438Y-94867085D01*
X73618549Y-94975818D01*
X73618553Y-94975823D01*
X73622007Y-94980396D01*
X73626243Y-94984257D01*
X73626247Y-94984262D01*
X73705190Y-95056228D01*
X73784029Y-95128099D01*
X73970433Y-95243515D01*
X74109458Y-95297373D01*
X74163619Y-95338273D01*
X74188136Y-95401558D01*
X74175665Y-95468271D01*
X74129943Y-95518427D01*
X74064665Y-95537000D01*
X73772939Y-95537000D01*
X73772920Y-95537000D01*
X73769628Y-95537001D01*
X73766350Y-95537353D01*
X73766338Y-95537354D01*
X73717731Y-95542579D01*
X73717725Y-95542580D01*
X73710017Y-95543409D01*
X73702752Y-95546118D01*
X73702746Y-95546120D01*
X73583480Y-95590604D01*
X73583478Y-95590604D01*
X73575169Y-95593704D01*
X73568072Y-95599016D01*
X73568068Y-95599019D01*
X73467050Y-95674641D01*
X73467046Y-95674644D01*
X73459954Y-95679954D01*
X73454644Y-95687046D01*
X73454641Y-95687050D01*
X73379019Y-95788068D01*
X73379016Y-95788072D01*
X73373704Y-95795169D01*
X73370604Y-95803478D01*
X73370604Y-95803480D01*
X73326120Y-95922747D01*
X73326119Y-95922750D01*
X73323409Y-95930017D01*
X73322579Y-95937727D01*
X73322579Y-95937732D01*
X73317355Y-95986319D01*
X73317354Y-95986331D01*
X73317000Y-95989627D01*
X73317000Y-95992948D01*
X73317000Y-95992949D01*
X73317000Y-97447060D01*
X73317000Y-97447078D01*
X73317001Y-97450372D01*
X73317353Y-97453650D01*
X73317354Y-97453661D01*
X73322579Y-97502268D01*
X73322580Y-97502273D01*
X73323409Y-97509983D01*
X73326119Y-97517249D01*
X73326120Y-97517253D01*
X73342662Y-97561604D01*
X73373704Y-97644831D01*
X73459954Y-97760046D01*
X73575169Y-97846296D01*
X73710017Y-97896591D01*
X73769627Y-97903000D01*
X75230372Y-97902999D01*
X75289983Y-97896591D01*
X75424831Y-97846296D01*
X75540046Y-97760046D01*
X75626296Y-97644831D01*
X75676591Y-97509983D01*
X75683000Y-97450373D01*
X75682999Y-95989628D01*
X75676591Y-95930017D01*
X75626296Y-95795169D01*
X75540046Y-95679954D01*
X75424831Y-95593704D01*
X75289983Y-95543409D01*
X75282270Y-95542579D01*
X75282267Y-95542579D01*
X75233680Y-95537355D01*
X75233669Y-95537354D01*
X75230373Y-95537000D01*
X75227051Y-95537000D01*
X74935336Y-95537000D01*
X74870058Y-95518427D01*
X74824336Y-95468271D01*
X74811865Y-95401558D01*
X74836382Y-95338273D01*
X74890541Y-95297373D01*
X75029567Y-95243515D01*
X75215971Y-95128099D01*
X75377993Y-94980396D01*
X75510116Y-94805437D01*
X75607840Y-94609180D01*
X75667839Y-94398307D01*
X75688068Y-94180000D01*
X75667839Y-93961693D01*
X75607840Y-93750820D01*
X75510116Y-93554563D01*
X75458220Y-93485842D01*
X75381450Y-93384181D01*
X75381446Y-93384177D01*
X75377993Y-93379604D01*
X75373756Y-93375741D01*
X75373752Y-93375737D01*
X75220205Y-93235761D01*
X75220206Y-93235761D01*
X75215971Y-93231901D01*
X75211101Y-93228886D01*
X75211099Y-93228884D01*
X75034441Y-93119503D01*
X75034442Y-93119503D01*
X75029567Y-93116485D01*
X75004490Y-93106770D01*
X74830477Y-93039357D01*
X74830472Y-93039355D01*
X74825130Y-93037286D01*
X74721297Y-93017876D01*
X74615250Y-92998052D01*
X74615247Y-92998051D01*
X74609621Y-92997000D01*
X74390379Y-92997000D01*
X74384753Y-92998051D01*
X74384749Y-92998052D01*
X74180507Y-93036232D01*
X74180504Y-93036232D01*
X74174870Y-93037286D01*
X74169529Y-93039354D01*
X74169522Y-93039357D01*
X73975775Y-93114415D01*
X73975770Y-93114417D01*
X73970433Y-93116485D01*
X73965561Y-93119501D01*
X73965558Y-93119503D01*
X73788900Y-93228884D01*
X73788892Y-93228889D01*
X73784029Y-93231901D01*
X73779798Y-93235757D01*
X73779794Y-93235761D01*
X73626247Y-93375737D01*
X73626237Y-93375747D01*
X73622007Y-93379604D01*
X73618558Y-93384170D01*
X73618549Y-93384181D01*
X73508262Y-93530227D01*
X73464580Y-93566500D01*
X73409308Y-93579500D01*
X66540097Y-93579500D01*
X66492644Y-93570061D01*
X66452416Y-93543181D01*
X65228199Y-92318964D01*
X65217504Y-92306769D01*
X65203228Y-92288164D01*
X65198282Y-92281718D01*
X65072841Y-92185464D01*
X65065333Y-92182354D01*
X64934271Y-92128066D01*
X64934268Y-92128065D01*
X64926762Y-92124956D01*
X64918708Y-92123895D01*
X64918702Y-92123894D01*
X64778059Y-92105379D01*
X64770000Y-92104318D01*
X64761941Y-92105379D01*
X64621297Y-92123894D01*
X64621289Y-92123896D01*
X64613238Y-92124956D01*
X64605733Y-92128064D01*
X64605728Y-92128066D01*
X64474666Y-92182354D01*
X64474662Y-92182355D01*
X64467159Y-92185464D01*
X64460714Y-92190408D01*
X64460711Y-92190411D01*
X64348163Y-92276772D01*
X64348160Y-92276774D01*
X64341718Y-92281718D01*
X64336773Y-92288161D01*
X64336773Y-92288162D01*
X64322875Y-92306274D01*
X64274934Y-92344066D01*
X64214770Y-92354404D01*
X64156964Y-92334781D01*
X64115527Y-92289953D01*
X64100500Y-92230786D01*
X64100500Y-87469245D01*
X64116171Y-87408906D01*
X64159222Y-87363818D01*
X64226562Y-87322124D01*
X64390981Y-87172236D01*
X64525058Y-86994689D01*
X64624229Y-86795528D01*
X64685115Y-86581536D01*
X64705643Y-86360000D01*
X64685115Y-86138464D01*
X64624229Y-85924472D01*
X64525058Y-85725311D01*
X64521605Y-85720738D01*
X64394438Y-85552341D01*
X64394434Y-85552337D01*
X64390981Y-85547764D01*
X64386744Y-85543901D01*
X64386740Y-85543897D01*
X64230796Y-85401736D01*
X64230797Y-85401736D01*
X64226562Y-85397876D01*
X64221692Y-85394861D01*
X64221690Y-85394859D01*
X64042275Y-85283771D01*
X64042276Y-85283771D01*
X64037401Y-85280753D01*
X63829940Y-85200382D01*
X63824302Y-85199328D01*
X63616872Y-85160552D01*
X63616869Y-85160551D01*
X63611243Y-85159500D01*
X63388757Y-85159500D01*
X63383134Y-85160551D01*
X63383124Y-85160552D01*
X63250783Y-85185291D01*
X63191319Y-85181853D01*
X63140318Y-85151083D01*
X62808199Y-84818964D01*
X62797504Y-84806769D01*
X62783228Y-84788164D01*
X62778282Y-84781718D01*
X62652841Y-84685464D01*
X62645333Y-84682354D01*
X62514271Y-84628066D01*
X62514268Y-84628065D01*
X62506762Y-84624956D01*
X62498708Y-84623895D01*
X62498702Y-84623894D01*
X62389361Y-84609500D01*
X62358059Y-84605379D01*
X62350000Y-84604318D01*
X62341941Y-84605379D01*
X62318698Y-84608439D01*
X62302513Y-84609500D01*
X44496604Y-84609500D01*
X44436961Y-84594214D01*
X44392024Y-84552125D01*
X44372870Y-84493610D01*
X44384222Y-84433096D01*
X44450000Y-84292032D01*
X44453903Y-84283663D01*
X44515063Y-84055408D01*
X44535659Y-83820000D01*
X44515063Y-83584592D01*
X44453903Y-83356337D01*
X44354035Y-83142171D01*
X44218495Y-82948599D01*
X44051401Y-82781505D01*
X44046968Y-82778401D01*
X44046961Y-82778395D01*
X43865842Y-82651575D01*
X43826976Y-82607257D01*
X43812965Y-82550000D01*
X43826976Y-82492743D01*
X43865842Y-82448425D01*
X44046961Y-82321604D01*
X44046961Y-82321603D01*
X44051401Y-82318495D01*
X44218495Y-82151401D01*
X44354035Y-81957830D01*
X44453903Y-81743663D01*
X44515063Y-81515408D01*
X44535659Y-81280000D01*
X44515063Y-81044592D01*
X44453903Y-80816337D01*
X44354035Y-80602171D01*
X44218495Y-80408599D01*
X44051401Y-80241505D01*
X44046968Y-80238401D01*
X44046961Y-80238395D01*
X43865842Y-80111575D01*
X43826976Y-80067257D01*
X43812965Y-80010000D01*
X43826976Y-79952743D01*
X43865842Y-79908425D01*
X44046961Y-79781604D01*
X44046961Y-79781603D01*
X44051401Y-79778495D01*
X44218495Y-79611401D01*
X44354035Y-79417830D01*
X44453903Y-79203663D01*
X44515063Y-78975408D01*
X44535659Y-78740000D01*
X44515063Y-78504592D01*
X44453903Y-78276337D01*
X44354035Y-78062171D01*
X44218495Y-77868599D01*
X44051401Y-77701505D01*
X44046970Y-77698402D01*
X44046966Y-77698399D01*
X43862259Y-77569066D01*
X43862257Y-77569064D01*
X43857830Y-77565965D01*
X43852933Y-77563681D01*
X43852927Y-77563678D01*
X43648572Y-77468386D01*
X43648570Y-77468385D01*
X43643663Y-77466097D01*
X43638438Y-77464697D01*
X43638430Y-77464694D01*
X43420634Y-77406337D01*
X43420630Y-77406336D01*
X43415408Y-77404937D01*
X43410020Y-77404465D01*
X43410017Y-77404465D01*
X43185395Y-77384813D01*
X43180000Y-77384341D01*
X43174605Y-77384813D01*
X42949982Y-77404465D01*
X42949977Y-77404465D01*
X42944592Y-77404937D01*
X42939376Y-77406334D01*
X42939362Y-77406337D01*
X42816241Y-77439327D01*
X42752055Y-77439327D01*
X42696468Y-77407233D01*
X42200253Y-76911018D01*
X49633500Y-76911018D01*
X49633853Y-76917614D01*
X49639073Y-76966167D01*
X49642611Y-76981141D01*
X49687047Y-77100277D01*
X49695462Y-77115689D01*
X49770998Y-77216592D01*
X49783407Y-77229001D01*
X49884310Y-77304537D01*
X49899722Y-77312952D01*
X50018858Y-77357388D01*
X50033832Y-77360926D01*
X50082385Y-77366146D01*
X50088982Y-77366500D01*
X50533674Y-77366500D01*
X50546549Y-77363049D01*
X50550000Y-77350174D01*
X50550000Y-76466326D01*
X50546549Y-76453450D01*
X50533674Y-76450000D01*
X49649826Y-76450000D01*
X49636950Y-76453450D01*
X49633500Y-76466326D01*
X49633500Y-76911018D01*
X42200253Y-76911018D01*
X41222909Y-75933674D01*
X49633500Y-75933674D01*
X49636950Y-75946549D01*
X49649826Y-75950000D01*
X50533674Y-75950000D01*
X50546549Y-75946549D01*
X50550000Y-75933674D01*
X50550000Y-75049826D01*
X50546549Y-75036950D01*
X50533674Y-75033500D01*
X50088982Y-75033500D01*
X50082385Y-75033853D01*
X50033832Y-75039073D01*
X50018858Y-75042611D01*
X49899722Y-75087047D01*
X49884310Y-75095462D01*
X49783407Y-75170998D01*
X49770998Y-75183407D01*
X49695462Y-75284310D01*
X49687047Y-75299722D01*
X49642611Y-75418858D01*
X49639073Y-75433832D01*
X49633853Y-75482385D01*
X49633500Y-75488982D01*
X49633500Y-75933674D01*
X41222909Y-75933674D01*
X40219235Y-74930000D01*
X50898000Y-74930000D01*
X50898529Y-74935709D01*
X50912526Y-75086762D01*
X50917956Y-75145354D01*
X50977143Y-75353375D01*
X50979695Y-75358501D01*
X50979697Y-75358505D01*
X51037000Y-75473584D01*
X51050000Y-75528856D01*
X51050000Y-77350174D01*
X51053450Y-77363049D01*
X51066326Y-77366500D01*
X51511018Y-77366500D01*
X51517614Y-77366146D01*
X51566167Y-77360926D01*
X51581141Y-77357388D01*
X51700277Y-77312952D01*
X51715689Y-77304537D01*
X51816592Y-77229001D01*
X51829001Y-77216592D01*
X51904537Y-77115689D01*
X51912952Y-77100277D01*
X51957388Y-76981141D01*
X51960926Y-76966167D01*
X51966146Y-76917614D01*
X51966500Y-76911018D01*
X51966500Y-76525942D01*
X51980364Y-76468968D01*
X52018856Y-76424734D01*
X52073369Y-76403131D01*
X52131712Y-76408991D01*
X52180840Y-76441003D01*
X52209765Y-76492007D01*
X52247143Y-76623375D01*
X52249695Y-76628501D01*
X52249697Y-76628505D01*
X52340991Y-76811848D01*
X52340993Y-76811852D01*
X52343546Y-76816978D01*
X52346995Y-76821545D01*
X52346998Y-76821550D01*
X52470424Y-76984993D01*
X52470429Y-76984998D01*
X52473882Y-76989571D01*
X52478118Y-76993432D01*
X52478122Y-76993437D01*
X52587943Y-77093552D01*
X52633712Y-77135276D01*
X52817595Y-77249131D01*
X53019267Y-77327260D01*
X53231861Y-77367000D01*
X53442410Y-77367000D01*
X53448139Y-77367000D01*
X53660733Y-77327260D01*
X53862405Y-77249131D01*
X54046288Y-77135276D01*
X54206118Y-76989571D01*
X54336454Y-76816978D01*
X54432857Y-76623375D01*
X54492044Y-76415354D01*
X54512000Y-76200000D01*
X54492044Y-75984646D01*
X54432857Y-75776625D01*
X54336454Y-75583022D01*
X54295550Y-75528856D01*
X54209575Y-75415006D01*
X54209571Y-75415002D01*
X54206118Y-75410429D01*
X54201881Y-75406566D01*
X54201877Y-75406562D01*
X54050522Y-75268584D01*
X54050523Y-75268584D01*
X54046288Y-75264724D01*
X54041418Y-75261709D01*
X54041416Y-75261707D01*
X53867281Y-75153888D01*
X53867280Y-75153887D01*
X53862405Y-75150869D01*
X53857058Y-75148797D01*
X53857055Y-75148796D01*
X53697663Y-75087047D01*
X53660733Y-75072740D01*
X53655107Y-75071688D01*
X53655099Y-75071686D01*
X53453769Y-75034052D01*
X53453764Y-75034051D01*
X53448139Y-75033000D01*
X53442410Y-75033000D01*
X53364585Y-75033000D01*
X53305921Y-75018246D01*
X53261218Y-74977493D01*
X53241114Y-74920441D01*
X53238352Y-74890639D01*
X53222044Y-74714646D01*
X53162857Y-74506625D01*
X53066454Y-74313022D01*
X53063001Y-74308449D01*
X52939575Y-74145006D01*
X52939571Y-74145002D01*
X52936118Y-74140429D01*
X52931881Y-74136566D01*
X52931877Y-74136562D01*
X52780522Y-73998584D01*
X52780523Y-73998584D01*
X52776288Y-73994724D01*
X52771418Y-73991709D01*
X52771416Y-73991707D01*
X52597281Y-73883888D01*
X52597280Y-73883887D01*
X52592405Y-73880869D01*
X52587058Y-73878797D01*
X52587055Y-73878796D01*
X52396081Y-73804812D01*
X52396082Y-73804812D01*
X52390733Y-73802740D01*
X52385107Y-73801688D01*
X52385099Y-73801686D01*
X52183769Y-73764052D01*
X52183764Y-73764051D01*
X52178139Y-73763000D01*
X51961861Y-73763000D01*
X51956236Y-73764051D01*
X51956230Y-73764052D01*
X51754900Y-73801686D01*
X51754889Y-73801688D01*
X51749267Y-73802740D01*
X51743920Y-73804811D01*
X51743918Y-73804812D01*
X51552944Y-73878796D01*
X51552937Y-73878799D01*
X51547595Y-73880869D01*
X51542723Y-73883885D01*
X51542718Y-73883888D01*
X51368583Y-73991707D01*
X51368575Y-73991712D01*
X51363712Y-73994724D01*
X51359481Y-73998580D01*
X51359477Y-73998584D01*
X51208122Y-74136562D01*
X51208112Y-74136572D01*
X51203882Y-74140429D01*
X51200433Y-74144995D01*
X51200424Y-74145006D01*
X51076998Y-74308449D01*
X51076991Y-74308459D01*
X51073546Y-74313022D01*
X51070996Y-74318142D01*
X51070991Y-74318151D01*
X50979697Y-74501494D01*
X50979693Y-74501502D01*
X50977143Y-74506625D01*
X50975574Y-74512137D01*
X50975574Y-74512139D01*
X50919525Y-74709129D01*
X50919523Y-74709136D01*
X50917956Y-74714646D01*
X50898000Y-74930000D01*
X40219235Y-74930000D01*
X40006819Y-74717584D01*
X39979939Y-74677356D01*
X39970500Y-74629903D01*
X39970500Y-49549091D01*
X39989921Y-49482464D01*
X40038645Y-49439736D01*
X40038237Y-49439029D01*
X40041793Y-49436975D01*
X40042100Y-49436707D01*
X40042125Y-49436695D01*
X40047830Y-49434035D01*
X40241401Y-49298495D01*
X40408495Y-49131401D01*
X40538424Y-48945842D01*
X40582743Y-48906976D01*
X40640000Y-48892965D01*
X40697257Y-48906976D01*
X40741575Y-48945842D01*
X40868395Y-49126961D01*
X40868401Y-49126968D01*
X40871505Y-49131401D01*
X41038599Y-49298495D01*
X41232170Y-49434035D01*
X41237070Y-49436320D01*
X41237072Y-49436321D01*
X41244396Y-49439736D01*
X41446337Y-49533903D01*
X41674592Y-49595063D01*
X41910000Y-49615659D01*
X42145408Y-49595063D01*
X42373663Y-49533903D01*
X42587830Y-49434035D01*
X42781401Y-49298495D01*
X42948495Y-49131401D01*
X43084035Y-48937830D01*
X43183903Y-48723663D01*
X43245063Y-48495408D01*
X43265659Y-48260000D01*
X43245063Y-48024592D01*
X43183903Y-47796337D01*
X43084035Y-47582171D01*
X42948495Y-47388599D01*
X42819577Y-47259681D01*
X42789327Y-47210318D01*
X42784785Y-47152602D01*
X42806940Y-47099115D01*
X42850963Y-47061515D01*
X42907258Y-47048000D01*
X44954534Y-47048000D01*
X45009807Y-47061001D01*
X45053491Y-47097277D01*
X45076424Y-47149221D01*
X45074054Y-47200409D01*
X45074783Y-47200546D01*
X45073805Y-47205773D01*
X45073798Y-47205939D01*
X45072161Y-47211693D01*
X45071632Y-47217398D01*
X45071632Y-47217400D01*
X45071252Y-47221505D01*
X45051932Y-47430000D01*
X45072161Y-47648307D01*
X45132160Y-47859180D01*
X45134717Y-47864316D01*
X45134719Y-47864320D01*
X45211922Y-48019365D01*
X45229884Y-48055437D01*
X45233336Y-48060008D01*
X45358549Y-48225818D01*
X45358553Y-48225823D01*
X45362007Y-48230396D01*
X45366243Y-48234257D01*
X45366247Y-48234262D01*
X45477146Y-48335359D01*
X45524029Y-48378099D01*
X45710433Y-48493515D01*
X45914870Y-48572714D01*
X46130379Y-48613000D01*
X46343892Y-48613000D01*
X46349621Y-48613000D01*
X46355258Y-48611946D01*
X46355260Y-48611946D01*
X46474214Y-48589709D01*
X46533679Y-48593146D01*
X46584681Y-48623916D01*
X50163181Y-52202416D01*
X50190061Y-52242644D01*
X50199500Y-52290097D01*
X50199500Y-54770755D01*
X50183829Y-54831094D01*
X50140777Y-54876181D01*
X50123414Y-54886931D01*
X50078309Y-54914859D01*
X50078301Y-54914864D01*
X50073438Y-54917876D01*
X50069207Y-54921732D01*
X50069203Y-54921736D01*
X49913259Y-55063897D01*
X49913249Y-55063907D01*
X49909019Y-55067764D01*
X49905570Y-55072330D01*
X49905561Y-55072341D01*
X49778394Y-55240738D01*
X49778387Y-55240748D01*
X49774942Y-55245311D01*
X49772392Y-55250431D01*
X49772387Y-55250440D01*
X49678325Y-55439341D01*
X49678321Y-55439349D01*
X49675771Y-55444472D01*
X49674205Y-55449975D01*
X49674201Y-55449986D01*
X49623589Y-55627872D01*
X49614885Y-55658464D01*
X49594357Y-55880000D01*
X49614885Y-56101536D01*
X49616454Y-56107050D01*
X49674201Y-56310013D01*
X49674204Y-56310021D01*
X49675771Y-56315528D01*
X49678323Y-56320653D01*
X49678325Y-56320658D01*
X49772387Y-56509559D01*
X49772389Y-56509563D01*
X49774942Y-56514689D01*
X49778391Y-56519256D01*
X49778394Y-56519261D01*
X49905561Y-56687658D01*
X49905566Y-56687663D01*
X49909019Y-56692236D01*
X49913255Y-56696097D01*
X49913259Y-56696102D01*
X50025603Y-56798517D01*
X50073438Y-56842124D01*
X50262599Y-56959247D01*
X50440097Y-57028010D01*
X50456521Y-57034373D01*
X50504892Y-57068169D01*
X50532166Y-57120496D01*
X50532166Y-57179504D01*
X50504892Y-57231831D01*
X50456521Y-57265627D01*
X50267941Y-57338683D01*
X50267936Y-57338685D01*
X50262599Y-57340753D01*
X50257727Y-57343769D01*
X50257724Y-57343771D01*
X50078309Y-57454859D01*
X50078301Y-57454864D01*
X50073438Y-57457876D01*
X50069207Y-57461732D01*
X50069203Y-57461736D01*
X49913259Y-57603897D01*
X49913249Y-57603907D01*
X49909019Y-57607764D01*
X49905570Y-57612330D01*
X49905561Y-57612341D01*
X49778394Y-57780738D01*
X49778387Y-57780748D01*
X49774942Y-57785311D01*
X49772392Y-57790431D01*
X49772387Y-57790440D01*
X49678325Y-57979341D01*
X49678321Y-57979349D01*
X49675771Y-57984472D01*
X49674205Y-57989975D01*
X49674201Y-57989986D01*
X49616454Y-58192949D01*
X49614885Y-58198464D01*
X49594357Y-58420000D01*
X49614885Y-58641536D01*
X49616454Y-58647050D01*
X49674201Y-58850013D01*
X49674204Y-58850021D01*
X49675771Y-58855528D01*
X49678323Y-58860653D01*
X49678325Y-58860658D01*
X49772387Y-59049559D01*
X49772389Y-59049563D01*
X49774942Y-59054689D01*
X49778391Y-59059256D01*
X49778394Y-59059261D01*
X49905561Y-59227658D01*
X49905566Y-59227663D01*
X49909019Y-59232236D01*
X49913255Y-59236097D01*
X49913259Y-59236102D01*
X50025603Y-59338517D01*
X50073438Y-59382124D01*
X50262599Y-59499247D01*
X50470060Y-59579618D01*
X50688757Y-59620500D01*
X50905514Y-59620500D01*
X50911243Y-59620500D01*
X51129940Y-59579618D01*
X51337401Y-59499247D01*
X51526562Y-59382124D01*
X51690981Y-59232236D01*
X51825058Y-59054689D01*
X51924229Y-58855528D01*
X51985115Y-58641536D01*
X52005643Y-58420000D01*
X51985115Y-58198464D01*
X51924229Y-57984472D01*
X51825058Y-57785311D01*
X51821605Y-57780738D01*
X51694438Y-57612341D01*
X51694434Y-57612337D01*
X51690981Y-57607764D01*
X51686744Y-57603901D01*
X51686740Y-57603897D01*
X51530796Y-57461736D01*
X51530797Y-57461736D01*
X51526562Y-57457876D01*
X51521692Y-57454861D01*
X51521690Y-57454859D01*
X51342275Y-57343771D01*
X51342276Y-57343771D01*
X51337401Y-57340753D01*
X51143476Y-57265626D01*
X51095107Y-57231831D01*
X51067833Y-57179504D01*
X51067833Y-57120496D01*
X51095107Y-57068169D01*
X51143476Y-57034373D01*
X51337401Y-56959247D01*
X51526562Y-56842124D01*
X51690981Y-56692236D01*
X51813667Y-56529772D01*
X51857349Y-56493500D01*
X51912621Y-56480500D01*
X55832513Y-56480500D01*
X55848698Y-56481561D01*
X55880000Y-56485682D01*
X56036762Y-56465044D01*
X56182841Y-56404536D01*
X56182840Y-56404536D01*
X56308282Y-56308282D01*
X56327510Y-56283222D01*
X56338189Y-56271044D01*
X57021062Y-55588172D01*
X57072610Y-55557235D01*
X57132652Y-55554181D01*
X57187074Y-55579729D01*
X57223082Y-55627872D01*
X57232213Y-55687295D01*
X57214357Y-55880000D01*
X57234885Y-56101536D01*
X57236454Y-56107050D01*
X57294201Y-56310013D01*
X57294204Y-56310021D01*
X57295771Y-56315528D01*
X57298323Y-56320653D01*
X57298325Y-56320658D01*
X57392387Y-56509559D01*
X57392389Y-56509563D01*
X57394942Y-56514689D01*
X57398391Y-56519256D01*
X57398394Y-56519261D01*
X57525561Y-56687658D01*
X57525566Y-56687663D01*
X57529019Y-56692236D01*
X57533255Y-56696097D01*
X57533259Y-56696102D01*
X57645603Y-56798517D01*
X57693438Y-56842124D01*
X57882599Y-56959247D01*
X58090060Y-57039618D01*
X58308757Y-57080500D01*
X58525514Y-57080500D01*
X58531243Y-57080500D01*
X58749940Y-57039618D01*
X58957401Y-56959247D01*
X59146562Y-56842124D01*
X59310981Y-56692236D01*
X59445058Y-56514689D01*
X59544229Y-56315528D01*
X59605115Y-56101536D01*
X59625643Y-55880000D01*
X59605115Y-55658464D01*
X59544229Y-55444472D01*
X59445058Y-55245311D01*
X59349389Y-55118624D01*
X59314438Y-55072341D01*
X59314434Y-55072337D01*
X59310981Y-55067764D01*
X59306744Y-55063901D01*
X59306740Y-55063897D01*
X59150796Y-54921736D01*
X59150797Y-54921736D01*
X59146562Y-54917876D01*
X59141692Y-54914861D01*
X59141690Y-54914859D01*
X58962275Y-54803771D01*
X58962276Y-54803771D01*
X58957401Y-54800753D01*
X58763476Y-54725626D01*
X58715107Y-54691831D01*
X58687833Y-54639504D01*
X58687833Y-54580496D01*
X58715107Y-54528169D01*
X58763476Y-54494373D01*
X58957401Y-54419247D01*
X59146562Y-54302124D01*
X59310981Y-54152236D01*
X59433667Y-53989772D01*
X59477349Y-53953500D01*
X59532621Y-53940500D01*
X64927379Y-53940500D01*
X64982651Y-53953500D01*
X65026333Y-53989773D01*
X65145561Y-54147658D01*
X65145566Y-54147663D01*
X65149019Y-54152236D01*
X65153255Y-54156097D01*
X65153259Y-54156102D01*
X65265603Y-54258517D01*
X65313438Y-54302124D01*
X65502599Y-54419247D01*
X65680097Y-54488010D01*
X65696521Y-54494373D01*
X65744892Y-54528169D01*
X65772166Y-54580496D01*
X65772166Y-54639504D01*
X65744892Y-54691831D01*
X65696521Y-54725627D01*
X65507941Y-54798683D01*
X65507936Y-54798685D01*
X65502599Y-54800753D01*
X65497727Y-54803769D01*
X65497724Y-54803771D01*
X65318309Y-54914859D01*
X65318301Y-54914864D01*
X65313438Y-54917876D01*
X65309207Y-54921732D01*
X65309203Y-54921736D01*
X65153259Y-55063897D01*
X65153249Y-55063907D01*
X65149019Y-55067764D01*
X65145570Y-55072330D01*
X65145561Y-55072341D01*
X65018394Y-55240738D01*
X65018387Y-55240748D01*
X65014942Y-55245311D01*
X65012392Y-55250431D01*
X65012387Y-55250440D01*
X64918325Y-55439341D01*
X64918321Y-55439349D01*
X64915771Y-55444472D01*
X64914205Y-55449975D01*
X64914201Y-55449986D01*
X64863589Y-55627872D01*
X64854885Y-55658464D01*
X64834357Y-55880000D01*
X64854885Y-56101536D01*
X64856454Y-56107050D01*
X64914201Y-56310013D01*
X64914204Y-56310021D01*
X64915771Y-56315528D01*
X64918323Y-56320653D01*
X64918325Y-56320658D01*
X65012387Y-56509559D01*
X65012389Y-56509563D01*
X65014942Y-56514689D01*
X65018391Y-56519256D01*
X65018394Y-56519261D01*
X65145561Y-56687658D01*
X65145566Y-56687663D01*
X65149019Y-56692236D01*
X65153255Y-56696097D01*
X65153259Y-56696102D01*
X65265603Y-56798517D01*
X65313438Y-56842124D01*
X65502599Y-56959247D01*
X65710060Y-57039618D01*
X65928757Y-57080500D01*
X66145514Y-57080500D01*
X66151243Y-57080500D01*
X66369940Y-57039618D01*
X66577401Y-56959247D01*
X66766562Y-56842124D01*
X66930981Y-56692236D01*
X67065058Y-56514689D01*
X67164229Y-56315528D01*
X67225115Y-56101536D01*
X67245643Y-55880000D01*
X67225115Y-55658464D01*
X67164229Y-55444472D01*
X67065058Y-55245311D01*
X66969389Y-55118624D01*
X66934438Y-55072341D01*
X66934434Y-55072337D01*
X66930981Y-55067764D01*
X66926744Y-55063901D01*
X66926740Y-55063897D01*
X66770796Y-54921736D01*
X66770797Y-54921736D01*
X66766562Y-54917876D01*
X66761692Y-54914861D01*
X66761690Y-54914859D01*
X66582275Y-54803771D01*
X66582276Y-54803771D01*
X66577401Y-54800753D01*
X66383476Y-54725626D01*
X66335107Y-54691831D01*
X66307833Y-54639504D01*
X66307833Y-54580496D01*
X66335107Y-54528169D01*
X66383476Y-54494373D01*
X66577401Y-54419247D01*
X66766562Y-54302124D01*
X66930981Y-54152236D01*
X67053667Y-53989772D01*
X67097349Y-53953500D01*
X67152621Y-53940500D01*
X70819903Y-53940500D01*
X70867356Y-53949939D01*
X70907584Y-53976819D01*
X72448684Y-55517919D01*
X72481021Y-55574427D01*
X72480271Y-55639528D01*
X72476453Y-55652947D01*
X72476449Y-55652964D01*
X72474885Y-55658464D01*
X72474357Y-55664161D01*
X72474356Y-55664167D01*
X72474356Y-55664171D01*
X72454357Y-55880000D01*
X72474885Y-56101536D01*
X72476454Y-56107050D01*
X72534201Y-56310013D01*
X72534204Y-56310021D01*
X72535771Y-56315528D01*
X72538323Y-56320653D01*
X72538325Y-56320658D01*
X72632387Y-56509559D01*
X72632389Y-56509563D01*
X72634942Y-56514689D01*
X72638391Y-56519256D01*
X72638394Y-56519261D01*
X72765561Y-56687658D01*
X72765566Y-56687663D01*
X72769019Y-56692236D01*
X72773255Y-56696097D01*
X72773259Y-56696102D01*
X72885603Y-56798517D01*
X72933438Y-56842124D01*
X73122599Y-56959247D01*
X73300097Y-57028010D01*
X73316521Y-57034373D01*
X73364892Y-57068169D01*
X73392166Y-57120496D01*
X73392166Y-57179504D01*
X73364892Y-57231831D01*
X73316521Y-57265627D01*
X73127941Y-57338683D01*
X73127936Y-57338685D01*
X73122599Y-57340753D01*
X73117727Y-57343769D01*
X73117724Y-57343771D01*
X72938309Y-57454859D01*
X72938301Y-57454864D01*
X72933438Y-57457876D01*
X72929207Y-57461732D01*
X72929203Y-57461736D01*
X72773259Y-57603897D01*
X72773249Y-57603907D01*
X72769019Y-57607764D01*
X72765570Y-57612330D01*
X72765561Y-57612341D01*
X72638394Y-57780738D01*
X72638387Y-57780748D01*
X72634942Y-57785311D01*
X72632392Y-57790431D01*
X72632387Y-57790440D01*
X72538325Y-57979341D01*
X72538321Y-57979349D01*
X72535771Y-57984472D01*
X72534205Y-57989975D01*
X72534201Y-57989986D01*
X72476454Y-58192949D01*
X72474885Y-58198464D01*
X72454357Y-58420000D01*
X72474885Y-58641536D01*
X72476454Y-58647050D01*
X72534201Y-58850013D01*
X72534204Y-58850021D01*
X72535771Y-58855528D01*
X72538323Y-58860653D01*
X72538325Y-58860658D01*
X72632387Y-59049559D01*
X72632389Y-59049563D01*
X72634942Y-59054689D01*
X72638391Y-59059256D01*
X72638394Y-59059261D01*
X72765561Y-59227658D01*
X72765566Y-59227663D01*
X72769019Y-59232236D01*
X72773255Y-59236097D01*
X72773259Y-59236102D01*
X72885603Y-59338517D01*
X72933438Y-59382124D01*
X73122599Y-59499247D01*
X73330060Y-59579618D01*
X73548757Y-59620500D01*
X73765514Y-59620500D01*
X73771243Y-59620500D01*
X73989940Y-59579618D01*
X74197401Y-59499247D01*
X74386562Y-59382124D01*
X74550981Y-59232236D01*
X74685058Y-59054689D01*
X74784229Y-58855528D01*
X74845115Y-58641536D01*
X74865643Y-58420000D01*
X74845115Y-58198464D01*
X74784229Y-57984472D01*
X74685058Y-57785311D01*
X74681605Y-57780738D01*
X74554438Y-57612341D01*
X74554434Y-57612337D01*
X74550981Y-57607764D01*
X74546744Y-57603901D01*
X74546740Y-57603897D01*
X74390796Y-57461736D01*
X74390797Y-57461736D01*
X74386562Y-57457876D01*
X74381692Y-57454861D01*
X74381690Y-57454859D01*
X74202275Y-57343771D01*
X74202276Y-57343771D01*
X74197401Y-57340753D01*
X74003476Y-57265626D01*
X73955107Y-57231831D01*
X73927833Y-57179504D01*
X73927833Y-57120496D01*
X73955107Y-57068169D01*
X74003476Y-57034373D01*
X74197401Y-56959247D01*
X74386562Y-56842124D01*
X74550981Y-56692236D01*
X74685058Y-56514689D01*
X74784229Y-56315528D01*
X74845115Y-56101536D01*
X74865643Y-55880000D01*
X74845115Y-55658464D01*
X74784229Y-55444472D01*
X74685058Y-55245311D01*
X74589389Y-55118624D01*
X74554438Y-55072341D01*
X74554434Y-55072337D01*
X74550981Y-55067764D01*
X74546744Y-55063901D01*
X74546740Y-55063897D01*
X74390796Y-54921736D01*
X74390797Y-54921736D01*
X74386562Y-54917876D01*
X74381692Y-54914861D01*
X74381690Y-54914859D01*
X74202275Y-54803771D01*
X74202276Y-54803771D01*
X74197401Y-54800753D01*
X74119967Y-54770755D01*
X73995286Y-54722453D01*
X73995285Y-54722452D01*
X73989940Y-54720382D01*
X73984302Y-54719328D01*
X73776872Y-54680552D01*
X73776869Y-54680551D01*
X73771243Y-54679500D01*
X73548757Y-54679500D01*
X73543132Y-54680551D01*
X73543126Y-54680552D01*
X73410785Y-54705291D01*
X73351320Y-54701853D01*
X73300319Y-54671083D01*
X71578199Y-52948964D01*
X71567504Y-52936769D01*
X71553228Y-52918164D01*
X71548282Y-52911718D01*
X71422841Y-52815464D01*
X71415333Y-52812354D01*
X71284271Y-52758066D01*
X71284268Y-52758065D01*
X71276762Y-52754956D01*
X71268708Y-52753895D01*
X71268702Y-52753894D01*
X71159361Y-52739500D01*
X71128059Y-52735379D01*
X71120000Y-52734318D01*
X71111941Y-52735379D01*
X71088698Y-52738439D01*
X71072513Y-52739500D01*
X67152621Y-52739500D01*
X67097349Y-52726500D01*
X67053667Y-52690227D01*
X66934438Y-52532341D01*
X66934434Y-52532337D01*
X66930981Y-52527764D01*
X66926744Y-52523901D01*
X66926740Y-52523897D01*
X66770796Y-52381736D01*
X66770797Y-52381736D01*
X66766562Y-52377876D01*
X66761692Y-52374861D01*
X66761690Y-52374859D01*
X66582275Y-52263771D01*
X66582276Y-52263771D01*
X66577401Y-52260753D01*
X66530656Y-52242644D01*
X66375286Y-52182453D01*
X66375285Y-52182452D01*
X66369940Y-52180382D01*
X66364302Y-52179328D01*
X66156872Y-52140552D01*
X66156869Y-52140551D01*
X66151243Y-52139500D01*
X65928757Y-52139500D01*
X65923131Y-52140551D01*
X65923127Y-52140552D01*
X65715697Y-52179328D01*
X65715694Y-52179328D01*
X65710060Y-52180382D01*
X65704717Y-52182451D01*
X65704713Y-52182453D01*
X65507941Y-52258683D01*
X65507936Y-52258685D01*
X65502599Y-52260753D01*
X65497727Y-52263769D01*
X65497724Y-52263771D01*
X65318309Y-52374859D01*
X65318301Y-52374864D01*
X65313438Y-52377876D01*
X65309207Y-52381732D01*
X65309203Y-52381736D01*
X65153259Y-52523897D01*
X65153249Y-52523907D01*
X65149019Y-52527764D01*
X65145570Y-52532330D01*
X65145561Y-52532341D01*
X65026333Y-52690227D01*
X64982651Y-52726500D01*
X64927379Y-52739500D01*
X59532621Y-52739500D01*
X59477349Y-52726500D01*
X59433667Y-52690227D01*
X59314438Y-52532341D01*
X59314434Y-52532337D01*
X59310981Y-52527764D01*
X59306744Y-52523901D01*
X59306740Y-52523897D01*
X59150796Y-52381736D01*
X59150797Y-52381736D01*
X59146562Y-52377876D01*
X59141692Y-52374861D01*
X59141690Y-52374859D01*
X58962275Y-52263771D01*
X58962276Y-52263771D01*
X58957401Y-52260753D01*
X58910656Y-52242644D01*
X58755286Y-52182453D01*
X58755285Y-52182452D01*
X58749940Y-52180382D01*
X58744302Y-52179328D01*
X58536872Y-52140552D01*
X58536869Y-52140551D01*
X58531243Y-52139500D01*
X58308757Y-52139500D01*
X58303131Y-52140551D01*
X58303127Y-52140552D01*
X58095697Y-52179328D01*
X58095694Y-52179328D01*
X58090060Y-52180382D01*
X58084717Y-52182451D01*
X58084713Y-52182453D01*
X57887941Y-52258683D01*
X57887936Y-52258685D01*
X57882599Y-52260753D01*
X57877727Y-52263769D01*
X57877724Y-52263771D01*
X57698309Y-52374859D01*
X57698301Y-52374864D01*
X57693438Y-52377876D01*
X57689207Y-52381732D01*
X57689203Y-52381736D01*
X57533259Y-52523897D01*
X57533249Y-52523907D01*
X57529019Y-52527764D01*
X57525570Y-52532330D01*
X57525561Y-52532341D01*
X57398394Y-52700738D01*
X57398387Y-52700748D01*
X57394942Y-52705311D01*
X57392392Y-52710431D01*
X57392387Y-52710440D01*
X57298325Y-52899341D01*
X57298321Y-52899349D01*
X57295771Y-52904472D01*
X57294205Y-52909975D01*
X57294201Y-52909986D01*
X57236454Y-53112949D01*
X57234885Y-53118464D01*
X57214357Y-53340000D01*
X57234885Y-53561536D01*
X57240271Y-53580466D01*
X57241022Y-53645568D01*
X57208685Y-53702078D01*
X55667584Y-55243181D01*
X55627356Y-55270061D01*
X55579903Y-55279500D01*
X51912621Y-55279500D01*
X51857349Y-55266500D01*
X51813667Y-55230227D01*
X51694438Y-55072341D01*
X51694434Y-55072337D01*
X51690981Y-55067764D01*
X51686744Y-55063901D01*
X51686740Y-55063897D01*
X51530796Y-54921736D01*
X51530797Y-54921736D01*
X51526562Y-54917876D01*
X51521692Y-54914861D01*
X51521690Y-54914859D01*
X51490239Y-54895386D01*
X51459222Y-54876181D01*
X51416171Y-54831094D01*
X51400500Y-54770755D01*
X51400500Y-52037487D01*
X51401561Y-52021302D01*
X51404621Y-51998059D01*
X51405682Y-51990000D01*
X51385044Y-51833238D01*
X51324536Y-51687159D01*
X51252450Y-51593215D01*
X51228282Y-51561718D01*
X51203222Y-51542489D01*
X51191034Y-51531799D01*
X48483915Y-48824680D01*
X48453665Y-48775317D01*
X48449123Y-48717601D01*
X48471278Y-48664114D01*
X48515301Y-48626514D01*
X48571596Y-48612999D01*
X49507061Y-48612999D01*
X49510372Y-48612999D01*
X49569983Y-48606591D01*
X49704831Y-48556296D01*
X49820046Y-48470046D01*
X49906296Y-48354831D01*
X49956591Y-48219983D01*
X49963000Y-48160373D01*
X49962999Y-46699628D01*
X49956591Y-46640017D01*
X49906296Y-46505169D01*
X49820046Y-46389954D01*
X49704831Y-46303704D01*
X49569983Y-46253409D01*
X49562270Y-46252579D01*
X49562267Y-46252579D01*
X49513680Y-46247355D01*
X49513669Y-46247354D01*
X49510373Y-46247000D01*
X49507051Y-46247000D01*
X48497597Y-46247000D01*
X48450144Y-46237561D01*
X48409916Y-46210681D01*
X48255699Y-46056464D01*
X48245004Y-46044269D01*
X48230728Y-46025664D01*
X48225782Y-46019218D01*
X48100341Y-45922964D01*
X48092833Y-45919854D01*
X47961771Y-45865566D01*
X47961768Y-45865565D01*
X47954262Y-45862456D01*
X47946208Y-45861395D01*
X47946202Y-45861394D01*
X47836861Y-45847000D01*
X47805559Y-45842879D01*
X47797500Y-45841818D01*
X47789441Y-45842879D01*
X47766198Y-45845939D01*
X47750013Y-45847000D01*
X41229987Y-45847000D01*
X41213802Y-45845939D01*
X41190559Y-45842879D01*
X41182500Y-45841818D01*
X41174441Y-45842879D01*
X41143139Y-45847000D01*
X41033797Y-45861394D01*
X41033789Y-45861396D01*
X41025738Y-45862456D01*
X41018233Y-45865564D01*
X41018228Y-45865566D01*
X40887166Y-45919854D01*
X40887162Y-45919855D01*
X40879659Y-45922964D01*
X40873214Y-45927908D01*
X40873211Y-45927911D01*
X40760663Y-46014272D01*
X40760660Y-46014274D01*
X40754218Y-46019218D01*
X40749273Y-46025661D01*
X40749270Y-46025665D01*
X40734990Y-46044274D01*
X40724298Y-46056465D01*
X39853530Y-46927233D01*
X39797943Y-46959327D01*
X39733756Y-46959327D01*
X39610634Y-46926337D01*
X39610630Y-46926336D01*
X39605408Y-46924937D01*
X39600020Y-46924465D01*
X39600017Y-46924465D01*
X39375395Y-46904813D01*
X39370000Y-46904341D01*
X39364605Y-46904813D01*
X39139982Y-46924465D01*
X39139977Y-46924465D01*
X39134592Y-46924937D01*
X39129371Y-46926335D01*
X39129365Y-46926337D01*
X38911569Y-46984694D01*
X38911557Y-46984698D01*
X38906337Y-46986097D01*
X38901432Y-46988383D01*
X38901427Y-46988386D01*
X38697081Y-47083675D01*
X38697077Y-47083677D01*
X38692171Y-47085965D01*
X38687738Y-47089068D01*
X38687731Y-47089073D01*
X38503034Y-47218399D01*
X38503029Y-47218402D01*
X38498599Y-47221505D01*
X38494775Y-47225328D01*
X38494769Y-47225334D01*
X38335334Y-47384769D01*
X38335328Y-47384775D01*
X38331505Y-47388599D01*
X38328402Y-47393029D01*
X38328399Y-47393034D01*
X38199073Y-47577731D01*
X38199068Y-47577738D01*
X38195965Y-47582171D01*
X38193677Y-47587077D01*
X38193675Y-47587081D01*
X38098386Y-47791427D01*
X38098383Y-47791432D01*
X38096097Y-47796337D01*
X38094698Y-47801557D01*
X38094694Y-47801569D01*
X38036337Y-48019365D01*
X38036335Y-48019371D01*
X38034937Y-48024592D01*
X38014341Y-48260000D01*
X38014813Y-48265395D01*
X38033182Y-48475358D01*
X38034937Y-48495408D01*
X38036336Y-48500630D01*
X38036337Y-48500634D01*
X38094694Y-48718430D01*
X38094697Y-48718438D01*
X38096097Y-48723663D01*
X38098385Y-48728570D01*
X38098386Y-48728572D01*
X38193678Y-48932927D01*
X38193681Y-48932933D01*
X38195965Y-48937830D01*
X38199064Y-48942257D01*
X38199066Y-48942259D01*
X38328399Y-49126966D01*
X38328402Y-49126970D01*
X38331505Y-49131401D01*
X38498599Y-49298495D01*
X38692170Y-49434035D01*
X38697841Y-49436679D01*
X38697900Y-49436707D01*
X38698206Y-49436975D01*
X38701763Y-49439029D01*
X38701354Y-49439736D01*
X38750079Y-49482464D01*
X38769500Y-49549091D01*
X38769500Y-74882513D01*
X38768438Y-74898698D01*
X38764318Y-74930000D01*
X38765379Y-74938059D01*
X38769500Y-74969361D01*
X38783894Y-75078702D01*
X38783895Y-75078708D01*
X38784956Y-75086762D01*
X38788065Y-75094268D01*
X38788066Y-75094271D01*
X38819848Y-75170998D01*
X38845464Y-75232841D01*
X38941718Y-75358282D01*
X38948164Y-75363228D01*
X38966769Y-75377504D01*
X38978964Y-75388199D01*
X40768584Y-77177819D01*
X40798834Y-77227182D01*
X40803376Y-77284898D01*
X40781221Y-77338385D01*
X40737198Y-77375985D01*
X40680903Y-77389500D01*
X39745439Y-77389500D01*
X39745420Y-77389500D01*
X39742128Y-77389501D01*
X39738850Y-77389853D01*
X39738838Y-77389854D01*
X39690231Y-77395079D01*
X39690225Y-77395080D01*
X39682517Y-77395909D01*
X39675252Y-77398618D01*
X39675246Y-77398620D01*
X39555980Y-77443104D01*
X39555978Y-77443104D01*
X39547669Y-77446204D01*
X39540572Y-77451516D01*
X39540568Y-77451519D01*
X39439550Y-77527141D01*
X39439546Y-77527144D01*
X39432454Y-77532454D01*
X39427144Y-77539546D01*
X39427141Y-77539550D01*
X39351519Y-77640568D01*
X39351516Y-77640572D01*
X39346204Y-77647669D01*
X39343104Y-77655978D01*
X39343104Y-77655980D01*
X39298620Y-77775247D01*
X39298619Y-77775250D01*
X39295909Y-77782517D01*
X39295079Y-77790227D01*
X39295079Y-77790232D01*
X39289855Y-77838819D01*
X39289854Y-77838831D01*
X39289500Y-77842127D01*
X39289500Y-77845448D01*
X39289500Y-77845449D01*
X39289500Y-79634560D01*
X39289500Y-79634578D01*
X39289501Y-79637872D01*
X39289853Y-79641150D01*
X39289854Y-79641161D01*
X39295079Y-79689768D01*
X39295080Y-79689773D01*
X39295909Y-79697483D01*
X39298619Y-79704749D01*
X39298620Y-79704753D01*
X39324695Y-79774663D01*
X39346204Y-79832331D01*
X39351518Y-79839430D01*
X39351519Y-79839431D01*
X39407367Y-79914035D01*
X39432454Y-79947546D01*
X39547669Y-80033796D01*
X39637383Y-80067257D01*
X39679082Y-80082810D01*
X39729462Y-80117789D01*
X39756915Y-80172633D01*
X39754726Y-80233926D01*
X39723431Y-80286673D01*
X39601505Y-80408599D01*
X39598402Y-80413029D01*
X39598399Y-80413034D01*
X39469073Y-80597731D01*
X39469068Y-80597738D01*
X39465965Y-80602171D01*
X39463677Y-80607077D01*
X39463675Y-80607081D01*
X39368386Y-80811427D01*
X39368383Y-80811432D01*
X39366097Y-80816337D01*
X39364698Y-80821557D01*
X39364694Y-80821569D01*
X39306337Y-81039365D01*
X39306335Y-81039371D01*
X39304937Y-81044592D01*
X39284341Y-81280000D01*
X39304937Y-81515408D01*
X39306336Y-81520630D01*
X39306337Y-81520634D01*
X39364694Y-81738430D01*
X39364697Y-81738438D01*
X39366097Y-81743663D01*
X39368385Y-81748570D01*
X39368386Y-81748572D01*
X39463678Y-81952927D01*
X39463681Y-81952933D01*
X39465965Y-81957830D01*
X39469064Y-81962257D01*
X39469066Y-81962259D01*
X39598399Y-82146966D01*
X39598402Y-82146970D01*
X39601505Y-82151401D01*
X39768599Y-82318495D01*
X39773032Y-82321599D01*
X39773038Y-82321604D01*
X39954158Y-82448425D01*
X39993024Y-82492743D01*
X40007035Y-82550000D01*
X39993024Y-82607257D01*
X39954159Y-82651575D01*
X39773041Y-82778395D01*
X39768599Y-82781505D01*
X39764775Y-82785328D01*
X39764769Y-82785334D01*
X39605334Y-82944769D01*
X39605328Y-82944775D01*
X39601505Y-82948599D01*
X39598402Y-82953029D01*
X39598399Y-82953034D01*
X39469073Y-83137731D01*
X39469068Y-83137738D01*
X39465965Y-83142171D01*
X39463677Y-83147077D01*
X39463675Y-83147081D01*
X39368386Y-83351427D01*
X39368383Y-83351432D01*
X39366097Y-83356337D01*
X39364698Y-83361557D01*
X39364694Y-83361569D01*
X39306337Y-83579365D01*
X39306335Y-83579371D01*
X39304937Y-83584592D01*
X39284341Y-83820000D01*
X39304937Y-84055408D01*
X39306336Y-84060630D01*
X39306337Y-84060634D01*
X39364694Y-84278430D01*
X39364697Y-84278438D01*
X39366097Y-84283663D01*
X39368385Y-84288570D01*
X39368386Y-84288572D01*
X39463678Y-84492927D01*
X39463681Y-84492933D01*
X39465965Y-84497830D01*
X39469064Y-84502257D01*
X39469066Y-84502259D01*
X39598399Y-84686966D01*
X39598402Y-84686970D01*
X39601505Y-84691401D01*
X39768599Y-84858495D01*
X39773032Y-84861599D01*
X39773038Y-84861604D01*
X39954158Y-84988425D01*
X39993024Y-85032743D01*
X40007035Y-85090000D01*
X39993024Y-85147257D01*
X39954158Y-85191575D01*
X39768599Y-85321505D01*
X39764775Y-85325328D01*
X39764769Y-85325334D01*
X39605334Y-85484769D01*
X39605328Y-85484775D01*
X39601505Y-85488599D01*
X39598402Y-85493029D01*
X39598399Y-85493034D01*
X39469073Y-85677731D01*
X39469068Y-85677738D01*
X39465965Y-85682171D01*
X39463677Y-85687077D01*
X39463675Y-85687081D01*
X39368386Y-85891427D01*
X39368383Y-85891432D01*
X39366097Y-85896337D01*
X39364698Y-85901557D01*
X39364694Y-85901569D01*
X39306337Y-86119365D01*
X39306335Y-86119371D01*
X39304937Y-86124592D01*
X39304465Y-86129977D01*
X39304465Y-86129982D01*
X39303723Y-86138464D01*
X39284341Y-86360000D01*
X39284813Y-86365395D01*
X39304205Y-86587050D01*
X39304937Y-86595408D01*
X39306336Y-86600630D01*
X39306337Y-86600634D01*
X39364694Y-86818430D01*
X39364697Y-86818438D01*
X39366097Y-86823663D01*
X39368385Y-86828570D01*
X39368386Y-86828572D01*
X39463678Y-87032927D01*
X39463681Y-87032933D01*
X39465965Y-87037830D01*
X39469064Y-87042257D01*
X39469066Y-87042259D01*
X39598399Y-87226966D01*
X39598402Y-87226970D01*
X39601505Y-87231401D01*
X39768599Y-87398495D01*
X39773031Y-87401598D01*
X39773033Y-87401600D01*
X39954595Y-87528731D01*
X39993460Y-87573049D01*
X40007471Y-87630306D01*
X39993460Y-87687563D01*
X39954595Y-87731881D01*
X39773352Y-87858788D01*
X39765092Y-87865719D01*
X39605719Y-88025092D01*
X39598784Y-88033357D01*
X39469508Y-88217982D01*
X39464110Y-88227332D01*
X39368856Y-88431602D01*
X39365168Y-88441736D01*
X39313056Y-88636219D01*
X39312688Y-88647448D01*
X39323631Y-88650000D01*
X40766000Y-88650000D01*
X40828000Y-88666613D01*
X40873387Y-88712000D01*
X40890000Y-88774000D01*
X40890000Y-89026000D01*
X40873387Y-89088000D01*
X40828000Y-89133387D01*
X40766000Y-89150000D01*
X39323631Y-89150000D01*
X39312688Y-89152551D01*
X39313056Y-89163780D01*
X39365168Y-89358263D01*
X39368856Y-89368397D01*
X39464113Y-89572676D01*
X39469501Y-89582008D01*
X39598784Y-89766643D01*
X39605721Y-89774909D01*
X39765090Y-89934278D01*
X39773356Y-89941215D01*
X39954595Y-90068120D01*
X39993460Y-90112438D01*
X40007471Y-90169695D01*
X39993460Y-90226952D01*
X39954594Y-90271270D01*
X39773034Y-90398399D01*
X39773029Y-90398402D01*
X39768599Y-90401505D01*
X39764775Y-90405328D01*
X39764769Y-90405334D01*
X39605334Y-90564769D01*
X39605328Y-90564775D01*
X39601505Y-90568599D01*
X39598402Y-90573029D01*
X39598399Y-90573034D01*
X39469073Y-90757731D01*
X39469068Y-90757738D01*
X39465965Y-90762171D01*
X39463677Y-90767077D01*
X39463675Y-90767081D01*
X39368386Y-90971427D01*
X39368383Y-90971432D01*
X39366097Y-90976337D01*
X39364698Y-90981557D01*
X39364694Y-90981569D01*
X39306337Y-91199365D01*
X39306335Y-91199371D01*
X39304937Y-91204592D01*
X39284341Y-91440000D01*
X39304937Y-91675408D01*
X39306336Y-91680630D01*
X39306337Y-91680634D01*
X39339327Y-91803756D01*
X39339327Y-91867943D01*
X39307233Y-91923530D01*
X38148965Y-93081798D01*
X38136774Y-93092490D01*
X38118165Y-93106770D01*
X38118161Y-93106773D01*
X38111718Y-93111718D01*
X38106774Y-93118160D01*
X38106772Y-93118163D01*
X38068712Y-93167764D01*
X38068713Y-93167764D01*
X38020410Y-93230712D01*
X38020406Y-93230717D01*
X38015464Y-93237159D01*
X38012355Y-93244663D01*
X38012353Y-93244668D01*
X37958066Y-93375728D01*
X37958064Y-93375733D01*
X37954956Y-93383238D01*
X37953896Y-93391289D01*
X37953894Y-93391297D01*
X37938535Y-93507967D01*
X37934318Y-93540000D01*
X37935379Y-93548059D01*
X37938439Y-93571302D01*
X37939500Y-93587487D01*
X37939500Y-108698859D01*
X37938438Y-108715044D01*
X37934318Y-108746346D01*
X33030500Y-108746346D01*
X33030500Y-43314500D01*
X33047113Y-43252500D01*
X33092500Y-43207113D01*
X33154500Y-43190500D01*
X78605500Y-43190500D01*
X78667500Y-43207113D01*
G37*
%TD.AperFunction*%
%TD*%
M02*
