%TF.GenerationSoftware,KiCad,Pcbnew,(7.0.0)*%
%TF.CreationDate,2024-04-19T19:54:10+02:00*%
%TF.ProjectId,IR Sensor Project,49522053-656e-4736-9f72-2050726f6a65,v1*%
%TF.SameCoordinates,Original*%
%TF.FileFunction,Soldermask,Top*%
%TF.FilePolarity,Negative*%
%FSLAX46Y46*%
G04 Gerber Fmt 4.6, Leading zero omitted, Abs format (unit mm)*
G04 Created by KiCad (PCBNEW (7.0.0)) date 2024-04-19 19:54:10*
%MOMM*%
%LPD*%
G01*
G04 APERTURE LIST*
%ADD10R,2.000000X2.000000*%
%ADD11R,1.000000X1.450000*%
%ADD12C,1.400000*%
%ADD13C,1.700000*%
%ADD14R,1.700000X1.700000*%
%ADD15O,1.700000X1.700000*%
%ADD16R,1.450000X1.000000*%
%ADD17R,1.000000X0.900000*%
%ADD18R,0.900000X1.000000*%
%ADD19R,1.365000X1.365000*%
%ADD20C,1.365000*%
%ADD21R,1.333000X1.333000*%
%ADD22C,1.333000*%
G04 APERTURE END LIST*
D10*
%TO.C,TP8*%
X63499999Y-149859999D03*
%TD*%
%TO.C,TP6*%
X68579999Y-78739999D03*
%TD*%
D11*
%TO.C,R24*%
X39889999Y-140699999D03*
X37989999Y-140699999D03*
%TD*%
D12*
%TO.C,JP1*%
X50800000Y-58420000D03*
X50800000Y-55880000D03*
%TD*%
D13*
%TO.C,LED2*%
X73660000Y-101600000D03*
X73660000Y-104140000D03*
%TD*%
D14*
%TO.C,J1*%
X40639999Y-78739999D03*
D15*
X43179999Y-78739999D03*
X40639999Y-81279999D03*
X43179999Y-81279999D03*
X40639999Y-83819999D03*
X43179999Y-83819999D03*
X40639999Y-86359999D03*
X43179999Y-86359999D03*
X40639999Y-88899999D03*
X43179999Y-88899999D03*
X40639999Y-91439999D03*
X43179999Y-91439999D03*
X40639999Y-93979999D03*
X43179999Y-93979999D03*
X40639999Y-96519999D03*
X43179999Y-96519999D03*
X40639999Y-99059999D03*
X43179999Y-99059999D03*
X40639999Y-101599999D03*
X43179999Y-101599999D03*
X40639999Y-104139999D03*
X43179999Y-104139999D03*
X40639999Y-106679999D03*
X43179999Y-106679999D03*
X40639999Y-109219999D03*
X43179999Y-109219999D03*
X40639999Y-111759999D03*
X43179999Y-111759999D03*
%TD*%
D16*
%TO.C,R21*%
X63499999Y-115889999D03*
X63499999Y-117789999D03*
%TD*%
D11*
%TO.C,R2*%
X38739999Y-58419999D03*
X40639999Y-58419999D03*
%TD*%
D10*
%TO.C,TP9*%
X48259999Y-121919999D03*
%TD*%
D17*
%TO.C,R7*%
X73659999Y-67639999D03*
X73659999Y-66039999D03*
%TD*%
D12*
%TO.C,JP9*%
X53340000Y-139700000D03*
X53340000Y-137160000D03*
%TD*%
%TO.C,JP8*%
X60960000Y-109220000D03*
X63500000Y-109220000D03*
%TD*%
%TO.C,JP7*%
X60960000Y-101600000D03*
X63500000Y-101600000D03*
%TD*%
D18*
%TO.C,R11*%
X53339999Y-96519999D03*
X54939999Y-96519999D03*
%TD*%
D11*
%TO.C,R1*%
X39379999Y-66039999D03*
X41279999Y-66039999D03*
%TD*%
D10*
%TO.C,TP4*%
X43179999Y-71119999D03*
%TD*%
D18*
%TO.C,R14*%
X48259999Y-109219999D03*
X49859999Y-109219999D03*
%TD*%
D10*
%TO.C,TP7*%
X73659999Y-85089999D03*
%TD*%
D12*
%TO.C,JP3*%
X66040000Y-55880000D03*
X66040000Y-53340000D03*
%TD*%
D10*
%TO.C,TP1*%
X55879999Y-48259999D03*
%TD*%
D12*
%TO.C,JP10*%
X60960000Y-139700000D03*
X60960000Y-137160000D03*
%TD*%
D19*
%TO.C,D2*%
X74499999Y-96719999D03*
D20*
X74500000Y-94180000D03*
%TD*%
D19*
%TO.C,D1*%
X48779999Y-47429999D03*
D20*
X46240000Y-47430000D03*
%TD*%
D18*
%TO.C,R13*%
X53339999Y-106679999D03*
X54939999Y-106679999D03*
%TD*%
D12*
%TO.C,JP4*%
X73660000Y-58420000D03*
X73660000Y-55880000D03*
%TD*%
D11*
%TO.C,R23*%
X42539999Y-134619999D03*
X40639999Y-134619999D03*
%TD*%
D12*
%TO.C,JP2*%
X58420000Y-55880000D03*
X58420000Y-53340000D03*
%TD*%
D17*
%TO.C,R16*%
X60959999Y-130479999D03*
X60959999Y-132079999D03*
%TD*%
D12*
%TO.C,JP6*%
X60960000Y-93980000D03*
X63500000Y-93980000D03*
%TD*%
D17*
%TO.C,R3*%
X50799999Y-67639999D03*
X50799999Y-66039999D03*
%TD*%
D18*
%TO.C,R12*%
X48259999Y-104139999D03*
X49859999Y-104139999D03*
%TD*%
%TO.C,R9*%
X59359999Y-73659999D03*
X60959999Y-73659999D03*
%TD*%
D16*
%TO.C,R22*%
X73409999Y-118429999D03*
X73409999Y-120329999D03*
%TD*%
D21*
%TO.C,Q3*%
X41799999Y-126729999D03*
D22*
X40530000Y-128000000D03*
X39260000Y-126730000D03*
%TD*%
D17*
%TO.C,R6*%
X66039999Y-71119999D03*
X66039999Y-69519999D03*
%TD*%
D18*
%TO.C,R10*%
X52539999Y-85559999D03*
X54139999Y-85559999D03*
%TD*%
D19*
%TO.C,D3*%
X45129999Y-151229999D03*
D20*
X47670000Y-151230000D03*
%TD*%
D21*
%TO.C,Q1*%
X50799999Y-76199999D03*
D22*
X52070000Y-74930000D03*
X53340000Y-76200000D03*
%TD*%
D17*
%TO.C,R5*%
X66039999Y-63499999D03*
X66039999Y-61899999D03*
%TD*%
D10*
%TO.C,TP5*%
X55879999Y-149859999D03*
%TD*%
D17*
%TO.C,R15*%
X53339999Y-131279999D03*
X53339999Y-132879999D03*
%TD*%
D13*
%TO.C,LED1*%
X39370000Y-48260000D03*
X41910000Y-48260000D03*
%TD*%
D17*
%TO.C,R17*%
X63249999Y-126999999D03*
X63249999Y-125399999D03*
%TD*%
%TO.C,R19*%
X69269999Y-126199999D03*
X69269999Y-124599999D03*
%TD*%
%TO.C,R8*%
X73659999Y-73659999D03*
X73659999Y-72059999D03*
%TD*%
%TO.C,R4*%
X58419999Y-66039999D03*
X58419999Y-64439999D03*
%TD*%
%TO.C,R18*%
X63249999Y-121119999D03*
X63249999Y-122719999D03*
%TD*%
D10*
%TO.C,TP12*%
X40639999Y-119379999D03*
%TD*%
D12*
%TO.C,JP11*%
X68580000Y-139700000D03*
X68580000Y-137160000D03*
%TD*%
D17*
%TO.C,R20*%
X68329999Y-117779999D03*
X68329999Y-119379999D03*
%TD*%
D10*
%TO.C,TP10*%
X73659999Y-126999999D03*
%TD*%
D21*
%TO.C,Q2*%
X55879999Y-119379999D03*
D22*
X57150000Y-120650000D03*
X55880000Y-121920000D03*
%TD*%
D10*
%TO.C,TP3*%
X45719999Y-58419999D03*
%TD*%
%TO.C,TP2*%
X73659999Y-50799999D03*
%TD*%
D12*
%TO.C,JP5*%
X60960000Y-86360000D03*
X63500000Y-86360000D03*
%TD*%
D10*
%TO.C,TP11*%
X48259999Y-134619999D03*
%TD*%
D13*
%TO.C,LED3*%
X40300000Y-150420000D03*
X37760000Y-150420000D03*
%TD*%
D12*
%TO.C,JP12*%
X71120000Y-149860000D03*
X73660000Y-149860000D03*
%TD*%
M02*
