%TF.GenerationSoftware,KiCad,Pcbnew,(7.0.0)*%
%TF.CreationDate,2024-04-19T19:54:10+02:00*%
%TF.ProjectId,IR Sensor Project,49522053-656e-4736-9f72-2050726f6a65,v1*%
%TF.SameCoordinates,Original*%
%TF.FileFunction,Legend,Bot*%
%TF.FilePolarity,Positive*%
%FSLAX46Y46*%
G04 Gerber Fmt 4.6, Leading zero omitted, Abs format (unit mm)*
G04 Created by KiCad (PCBNEW (7.0.0)) date 2024-04-19 19:54:10*
%MOMM*%
%LPD*%
G01*
G04 APERTURE LIST*
%ADD10C,0.100000*%
%ADD11C,0.200000*%
G04 APERTURE END LIST*
D10*
X76939523Y-153884761D02*
X76796666Y-153932380D01*
X76796666Y-153932380D02*
X76558571Y-153932380D01*
X76558571Y-153932380D02*
X76463333Y-153884761D01*
X76463333Y-153884761D02*
X76415714Y-153837142D01*
X76415714Y-153837142D02*
X76368095Y-153741904D01*
X76368095Y-153741904D02*
X76368095Y-153646666D01*
X76368095Y-153646666D02*
X76415714Y-153551428D01*
X76415714Y-153551428D02*
X76463333Y-153503809D01*
X76463333Y-153503809D02*
X76558571Y-153456190D01*
X76558571Y-153456190D02*
X76749047Y-153408571D01*
X76749047Y-153408571D02*
X76844285Y-153360952D01*
X76844285Y-153360952D02*
X76891904Y-153313333D01*
X76891904Y-153313333D02*
X76939523Y-153218095D01*
X76939523Y-153218095D02*
X76939523Y-153122857D01*
X76939523Y-153122857D02*
X76891904Y-153027619D01*
X76891904Y-153027619D02*
X76844285Y-152980000D01*
X76844285Y-152980000D02*
X76749047Y-152932380D01*
X76749047Y-152932380D02*
X76510952Y-152932380D01*
X76510952Y-152932380D02*
X76368095Y-152980000D01*
X75939523Y-153932380D02*
X75939523Y-152932380D01*
X75510952Y-153932380D02*
X75510952Y-153408571D01*
X75510952Y-153408571D02*
X75558571Y-153313333D01*
X75558571Y-153313333D02*
X75653809Y-153265714D01*
X75653809Y-153265714D02*
X75796666Y-153265714D01*
X75796666Y-153265714D02*
X75891904Y-153313333D01*
X75891904Y-153313333D02*
X75939523Y-153360952D01*
X74606190Y-153932380D02*
X74606190Y-153408571D01*
X74606190Y-153408571D02*
X74653809Y-153313333D01*
X74653809Y-153313333D02*
X74749047Y-153265714D01*
X74749047Y-153265714D02*
X74939523Y-153265714D01*
X74939523Y-153265714D02*
X75034761Y-153313333D01*
X74606190Y-153884761D02*
X74701428Y-153932380D01*
X74701428Y-153932380D02*
X74939523Y-153932380D01*
X74939523Y-153932380D02*
X75034761Y-153884761D01*
X75034761Y-153884761D02*
X75082380Y-153789523D01*
X75082380Y-153789523D02*
X75082380Y-153694285D01*
X75082380Y-153694285D02*
X75034761Y-153599047D01*
X75034761Y-153599047D02*
X74939523Y-153551428D01*
X74939523Y-153551428D02*
X74701428Y-153551428D01*
X74701428Y-153551428D02*
X74606190Y-153503809D01*
X74225237Y-153265714D02*
X74034761Y-153932380D01*
X74034761Y-153932380D02*
X73844285Y-153456190D01*
X73844285Y-153456190D02*
X73653809Y-153932380D01*
X73653809Y-153932380D02*
X73463333Y-153265714D01*
X71910952Y-153837142D02*
X71958571Y-153884761D01*
X71958571Y-153884761D02*
X72101428Y-153932380D01*
X72101428Y-153932380D02*
X72196666Y-153932380D01*
X72196666Y-153932380D02*
X72339523Y-153884761D01*
X72339523Y-153884761D02*
X72434761Y-153789523D01*
X72434761Y-153789523D02*
X72482380Y-153694285D01*
X72482380Y-153694285D02*
X72529999Y-153503809D01*
X72529999Y-153503809D02*
X72529999Y-153360952D01*
X72529999Y-153360952D02*
X72482380Y-153170476D01*
X72482380Y-153170476D02*
X72434761Y-153075238D01*
X72434761Y-153075238D02*
X72339523Y-152980000D01*
X72339523Y-152980000D02*
X72196666Y-152932380D01*
X72196666Y-152932380D02*
X72101428Y-152932380D01*
X72101428Y-152932380D02*
X71958571Y-152980000D01*
X71958571Y-152980000D02*
X71910952Y-153027619D01*
X71053809Y-153932380D02*
X71053809Y-153408571D01*
X71053809Y-153408571D02*
X71101428Y-153313333D01*
X71101428Y-153313333D02*
X71196666Y-153265714D01*
X71196666Y-153265714D02*
X71387142Y-153265714D01*
X71387142Y-153265714D02*
X71482380Y-153313333D01*
X71053809Y-153884761D02*
X71149047Y-153932380D01*
X71149047Y-153932380D02*
X71387142Y-153932380D01*
X71387142Y-153932380D02*
X71482380Y-153884761D01*
X71482380Y-153884761D02*
X71529999Y-153789523D01*
X71529999Y-153789523D02*
X71529999Y-153694285D01*
X71529999Y-153694285D02*
X71482380Y-153599047D01*
X71482380Y-153599047D02*
X71387142Y-153551428D01*
X71387142Y-153551428D02*
X71149047Y-153551428D01*
X71149047Y-153551428D02*
X71053809Y-153503809D01*
X70577618Y-153932380D02*
X70577618Y-153265714D01*
X70577618Y-153360952D02*
X70529999Y-153313333D01*
X70529999Y-153313333D02*
X70434761Y-153265714D01*
X70434761Y-153265714D02*
X70291904Y-153265714D01*
X70291904Y-153265714D02*
X70196666Y-153313333D01*
X70196666Y-153313333D02*
X70149047Y-153408571D01*
X70149047Y-153408571D02*
X70149047Y-153932380D01*
X70149047Y-153408571D02*
X70101428Y-153313333D01*
X70101428Y-153313333D02*
X70006190Y-153265714D01*
X70006190Y-153265714D02*
X69863333Y-153265714D01*
X69863333Y-153265714D02*
X69768094Y-153313333D01*
X69768094Y-153313333D02*
X69720475Y-153408571D01*
X69720475Y-153408571D02*
X69720475Y-153932380D01*
X69244285Y-153265714D02*
X69244285Y-154265714D01*
X69244285Y-153313333D02*
X69149047Y-153265714D01*
X69149047Y-153265714D02*
X68958571Y-153265714D01*
X68958571Y-153265714D02*
X68863333Y-153313333D01*
X68863333Y-153313333D02*
X68815714Y-153360952D01*
X68815714Y-153360952D02*
X68768095Y-153456190D01*
X68768095Y-153456190D02*
X68768095Y-153741904D01*
X68768095Y-153741904D02*
X68815714Y-153837142D01*
X68815714Y-153837142D02*
X68863333Y-153884761D01*
X68863333Y-153884761D02*
X68958571Y-153932380D01*
X68958571Y-153932380D02*
X69149047Y-153932380D01*
X69149047Y-153932380D02*
X69244285Y-153884761D01*
X68339523Y-153932380D02*
X68339523Y-152932380D01*
X68339523Y-153313333D02*
X68244285Y-153265714D01*
X68244285Y-153265714D02*
X68053809Y-153265714D01*
X68053809Y-153265714D02*
X67958571Y-153313333D01*
X67958571Y-153313333D02*
X67910952Y-153360952D01*
X67910952Y-153360952D02*
X67863333Y-153456190D01*
X67863333Y-153456190D02*
X67863333Y-153741904D01*
X67863333Y-153741904D02*
X67910952Y-153837142D01*
X67910952Y-153837142D02*
X67958571Y-153884761D01*
X67958571Y-153884761D02*
X68053809Y-153932380D01*
X68053809Y-153932380D02*
X68244285Y-153932380D01*
X68244285Y-153932380D02*
X68339523Y-153884761D01*
X67053809Y-153884761D02*
X67149047Y-153932380D01*
X67149047Y-153932380D02*
X67339523Y-153932380D01*
X67339523Y-153932380D02*
X67434761Y-153884761D01*
X67434761Y-153884761D02*
X67482380Y-153789523D01*
X67482380Y-153789523D02*
X67482380Y-153408571D01*
X67482380Y-153408571D02*
X67434761Y-153313333D01*
X67434761Y-153313333D02*
X67339523Y-153265714D01*
X67339523Y-153265714D02*
X67149047Y-153265714D01*
X67149047Y-153265714D02*
X67053809Y-153313333D01*
X67053809Y-153313333D02*
X67006190Y-153408571D01*
X67006190Y-153408571D02*
X67006190Y-153503809D01*
X67006190Y-153503809D02*
X67482380Y-153599047D01*
X66434761Y-153932380D02*
X66529999Y-153884761D01*
X66529999Y-153884761D02*
X66577618Y-153789523D01*
X66577618Y-153789523D02*
X66577618Y-152932380D01*
X65910951Y-153932380D02*
X66006189Y-153884761D01*
X66006189Y-153884761D02*
X66053808Y-153789523D01*
X66053808Y-153789523D02*
X66053808Y-152932380D01*
D11*
X77527142Y-44882380D02*
X76860476Y-44882380D01*
X76860476Y-44882380D02*
X77527142Y-45882380D01*
X77527142Y-45882380D02*
X76860476Y-45882380D01*
X76050952Y-45882380D02*
X76050952Y-45358571D01*
X76050952Y-45358571D02*
X76098571Y-45263333D01*
X76098571Y-45263333D02*
X76193809Y-45215714D01*
X76193809Y-45215714D02*
X76384285Y-45215714D01*
X76384285Y-45215714D02*
X76479523Y-45263333D01*
X76050952Y-45834761D02*
X76146190Y-45882380D01*
X76146190Y-45882380D02*
X76384285Y-45882380D01*
X76384285Y-45882380D02*
X76479523Y-45834761D01*
X76479523Y-45834761D02*
X76527142Y-45739523D01*
X76527142Y-45739523D02*
X76527142Y-45644285D01*
X76527142Y-45644285D02*
X76479523Y-45549047D01*
X76479523Y-45549047D02*
X76384285Y-45501428D01*
X76384285Y-45501428D02*
X76146190Y-45501428D01*
X76146190Y-45501428D02*
X76050952Y-45453809D01*
X75574761Y-45882380D02*
X75574761Y-45215714D01*
X75574761Y-44882380D02*
X75622380Y-44930000D01*
X75622380Y-44930000D02*
X75574761Y-44977619D01*
X75574761Y-44977619D02*
X75527142Y-44930000D01*
X75527142Y-44930000D02*
X75574761Y-44882380D01*
X75574761Y-44882380D02*
X75574761Y-44977619D01*
X74670000Y-45882380D02*
X74670000Y-45358571D01*
X74670000Y-45358571D02*
X74717619Y-45263333D01*
X74717619Y-45263333D02*
X74812857Y-45215714D01*
X74812857Y-45215714D02*
X75003333Y-45215714D01*
X75003333Y-45215714D02*
X75098571Y-45263333D01*
X74670000Y-45834761D02*
X74765238Y-45882380D01*
X74765238Y-45882380D02*
X75003333Y-45882380D01*
X75003333Y-45882380D02*
X75098571Y-45834761D01*
X75098571Y-45834761D02*
X75146190Y-45739523D01*
X75146190Y-45739523D02*
X75146190Y-45644285D01*
X75146190Y-45644285D02*
X75098571Y-45549047D01*
X75098571Y-45549047D02*
X75003333Y-45501428D01*
X75003333Y-45501428D02*
X74765238Y-45501428D01*
X74765238Y-45501428D02*
X74670000Y-45453809D01*
X74193809Y-45215714D02*
X74193809Y-45882380D01*
X74193809Y-45310952D02*
X74146190Y-45263333D01*
X74146190Y-45263333D02*
X74050952Y-45215714D01*
X74050952Y-45215714D02*
X73908095Y-45215714D01*
X73908095Y-45215714D02*
X73812857Y-45263333D01*
X73812857Y-45263333D02*
X73765238Y-45358571D01*
X73765238Y-45358571D02*
X73765238Y-45882380D01*
M02*
