%TF.GenerationSoftware,KiCad,Pcbnew,(7.0.0)*%
%TF.CreationDate,2024-04-19T19:54:10+02:00*%
%TF.ProjectId,IR Sensor Project,49522053-656e-4736-9f72-2050726f6a65,v1*%
%TF.SameCoordinates,Original*%
%TF.FileFunction,Legend,Top*%
%TF.FilePolarity,Positive*%
%FSLAX46Y46*%
G04 Gerber Fmt 4.6, Leading zero omitted, Abs format (unit mm)*
G04 Created by KiCad (PCBNEW (7.0.0)) date 2024-04-19 19:54:10*
%MOMM*%
%LPD*%
G01*
G04 APERTURE LIST*
%ADD10C,0.100000*%
%ADD11C,0.150000*%
%ADD12C,0.254000*%
%ADD13C,0.120000*%
%ADD14C,0.200000*%
%ADD15C,0.058000*%
G04 APERTURE END LIST*
D10*
X47801428Y-91508571D02*
X47468095Y-91508571D01*
X47468095Y-92032380D02*
X47468095Y-91032380D01*
X47468095Y-91032380D02*
X47944285Y-91032380D01*
X48325238Y-91365714D02*
X48325238Y-92032380D01*
X48325238Y-91460952D02*
X48372857Y-91413333D01*
X48372857Y-91413333D02*
X48468095Y-91365714D01*
X48468095Y-91365714D02*
X48610952Y-91365714D01*
X48610952Y-91365714D02*
X48706190Y-91413333D01*
X48706190Y-91413333D02*
X48753809Y-91508571D01*
X48753809Y-91508571D02*
X48753809Y-92032380D01*
X49610952Y-91984761D02*
X49515714Y-92032380D01*
X49515714Y-92032380D02*
X49325238Y-92032380D01*
X49325238Y-92032380D02*
X49230000Y-91984761D01*
X49230000Y-91984761D02*
X49182381Y-91889523D01*
X49182381Y-91889523D02*
X49182381Y-91508571D01*
X49182381Y-91508571D02*
X49230000Y-91413333D01*
X49230000Y-91413333D02*
X49325238Y-91365714D01*
X49325238Y-91365714D02*
X49515714Y-91365714D01*
X49515714Y-91365714D02*
X49610952Y-91413333D01*
X49610952Y-91413333D02*
X49658571Y-91508571D01*
X49658571Y-91508571D02*
X49658571Y-91603809D01*
X49658571Y-91603809D02*
X49182381Y-91699047D01*
X49944286Y-91365714D02*
X50325238Y-91365714D01*
X50087143Y-91032380D02*
X50087143Y-91889523D01*
X50087143Y-91889523D02*
X50134762Y-91984761D01*
X50134762Y-91984761D02*
X50230000Y-92032380D01*
X50230000Y-92032380D02*
X50325238Y-92032380D01*
X51258572Y-91508571D02*
X52020477Y-91508571D01*
X52020477Y-91794285D02*
X51258572Y-91794285D01*
X53096667Y-92032380D02*
X53096667Y-91365714D01*
X53096667Y-91460952D02*
X53144286Y-91413333D01*
X53144286Y-91413333D02*
X53239524Y-91365714D01*
X53239524Y-91365714D02*
X53382381Y-91365714D01*
X53382381Y-91365714D02*
X53477619Y-91413333D01*
X53477619Y-91413333D02*
X53525238Y-91508571D01*
X53525238Y-91508571D02*
X53525238Y-92032380D01*
X53525238Y-91508571D02*
X53572857Y-91413333D01*
X53572857Y-91413333D02*
X53668095Y-91365714D01*
X53668095Y-91365714D02*
X53810952Y-91365714D01*
X53810952Y-91365714D02*
X53906191Y-91413333D01*
X53906191Y-91413333D02*
X53953810Y-91508571D01*
X53953810Y-91508571D02*
X53953810Y-92032380D01*
X54858571Y-92032380D02*
X54858571Y-91508571D01*
X54858571Y-91508571D02*
X54810952Y-91413333D01*
X54810952Y-91413333D02*
X54715714Y-91365714D01*
X54715714Y-91365714D02*
X54525238Y-91365714D01*
X54525238Y-91365714D02*
X54430000Y-91413333D01*
X54858571Y-91984761D02*
X54763333Y-92032380D01*
X54763333Y-92032380D02*
X54525238Y-92032380D01*
X54525238Y-92032380D02*
X54430000Y-91984761D01*
X54430000Y-91984761D02*
X54382381Y-91889523D01*
X54382381Y-91889523D02*
X54382381Y-91794285D01*
X54382381Y-91794285D02*
X54430000Y-91699047D01*
X54430000Y-91699047D02*
X54525238Y-91651428D01*
X54525238Y-91651428D02*
X54763333Y-91651428D01*
X54763333Y-91651428D02*
X54858571Y-91603809D01*
D11*
%TO.C,TP8*%
X64865380Y-151121904D02*
X64865380Y-150550476D01*
X65865380Y-150836190D02*
X64865380Y-150836190D01*
X65865380Y-150217142D02*
X64865380Y-150217142D01*
X64865380Y-150217142D02*
X64865380Y-149836190D01*
X64865380Y-149836190D02*
X64913000Y-149740952D01*
X64913000Y-149740952D02*
X64960619Y-149693333D01*
X64960619Y-149693333D02*
X65055857Y-149645714D01*
X65055857Y-149645714D02*
X65198714Y-149645714D01*
X65198714Y-149645714D02*
X65293952Y-149693333D01*
X65293952Y-149693333D02*
X65341571Y-149740952D01*
X65341571Y-149740952D02*
X65389190Y-149836190D01*
X65389190Y-149836190D02*
X65389190Y-150217142D01*
X65293952Y-149074285D02*
X65246333Y-149169523D01*
X65246333Y-149169523D02*
X65198714Y-149217142D01*
X65198714Y-149217142D02*
X65103476Y-149264761D01*
X65103476Y-149264761D02*
X65055857Y-149264761D01*
X65055857Y-149264761D02*
X64960619Y-149217142D01*
X64960619Y-149217142D02*
X64913000Y-149169523D01*
X64913000Y-149169523D02*
X64865380Y-149074285D01*
X64865380Y-149074285D02*
X64865380Y-148883809D01*
X64865380Y-148883809D02*
X64913000Y-148788571D01*
X64913000Y-148788571D02*
X64960619Y-148740952D01*
X64960619Y-148740952D02*
X65055857Y-148693333D01*
X65055857Y-148693333D02*
X65103476Y-148693333D01*
X65103476Y-148693333D02*
X65198714Y-148740952D01*
X65198714Y-148740952D02*
X65246333Y-148788571D01*
X65246333Y-148788571D02*
X65293952Y-148883809D01*
X65293952Y-148883809D02*
X65293952Y-149074285D01*
X65293952Y-149074285D02*
X65341571Y-149169523D01*
X65341571Y-149169523D02*
X65389190Y-149217142D01*
X65389190Y-149217142D02*
X65484428Y-149264761D01*
X65484428Y-149264761D02*
X65674904Y-149264761D01*
X65674904Y-149264761D02*
X65770142Y-149217142D01*
X65770142Y-149217142D02*
X65817761Y-149169523D01*
X65817761Y-149169523D02*
X65865380Y-149074285D01*
X65865380Y-149074285D02*
X65865380Y-148883809D01*
X65865380Y-148883809D02*
X65817761Y-148788571D01*
X65817761Y-148788571D02*
X65770142Y-148740952D01*
X65770142Y-148740952D02*
X65674904Y-148693333D01*
X65674904Y-148693333D02*
X65484428Y-148693333D01*
X65484428Y-148693333D02*
X65389190Y-148740952D01*
X65389190Y-148740952D02*
X65341571Y-148788571D01*
X65341571Y-148788571D02*
X65293952Y-148883809D01*
%TO.C,TP6*%
X69945380Y-80001904D02*
X69945380Y-79430476D01*
X70945380Y-79716190D02*
X69945380Y-79716190D01*
X70945380Y-79097142D02*
X69945380Y-79097142D01*
X69945380Y-79097142D02*
X69945380Y-78716190D01*
X69945380Y-78716190D02*
X69993000Y-78620952D01*
X69993000Y-78620952D02*
X70040619Y-78573333D01*
X70040619Y-78573333D02*
X70135857Y-78525714D01*
X70135857Y-78525714D02*
X70278714Y-78525714D01*
X70278714Y-78525714D02*
X70373952Y-78573333D01*
X70373952Y-78573333D02*
X70421571Y-78620952D01*
X70421571Y-78620952D02*
X70469190Y-78716190D01*
X70469190Y-78716190D02*
X70469190Y-79097142D01*
X69945380Y-77668571D02*
X69945380Y-77859047D01*
X69945380Y-77859047D02*
X69993000Y-77954285D01*
X69993000Y-77954285D02*
X70040619Y-78001904D01*
X70040619Y-78001904D02*
X70183476Y-78097142D01*
X70183476Y-78097142D02*
X70373952Y-78144761D01*
X70373952Y-78144761D02*
X70754904Y-78144761D01*
X70754904Y-78144761D02*
X70850142Y-78097142D01*
X70850142Y-78097142D02*
X70897761Y-78049523D01*
X70897761Y-78049523D02*
X70945380Y-77954285D01*
X70945380Y-77954285D02*
X70945380Y-77763809D01*
X70945380Y-77763809D02*
X70897761Y-77668571D01*
X70897761Y-77668571D02*
X70850142Y-77620952D01*
X70850142Y-77620952D02*
X70754904Y-77573333D01*
X70754904Y-77573333D02*
X70516809Y-77573333D01*
X70516809Y-77573333D02*
X70421571Y-77620952D01*
X70421571Y-77620952D02*
X70373952Y-77668571D01*
X70373952Y-77668571D02*
X70326333Y-77763809D01*
X70326333Y-77763809D02*
X70326333Y-77954285D01*
X70326333Y-77954285D02*
X70373952Y-78049523D01*
X70373952Y-78049523D02*
X70421571Y-78097142D01*
X70421571Y-78097142D02*
X70516809Y-78144761D01*
D12*
%TO.C,R24*%
X38113571Y-139296573D02*
X37690237Y-138691811D01*
X37387856Y-139296573D02*
X37387856Y-138026573D01*
X37387856Y-138026573D02*
X37871666Y-138026573D01*
X37871666Y-138026573D02*
X37992618Y-138087050D01*
X37992618Y-138087050D02*
X38053095Y-138147526D01*
X38053095Y-138147526D02*
X38113571Y-138268478D01*
X38113571Y-138268478D02*
X38113571Y-138449907D01*
X38113571Y-138449907D02*
X38053095Y-138570859D01*
X38053095Y-138570859D02*
X37992618Y-138631335D01*
X37992618Y-138631335D02*
X37871666Y-138691811D01*
X37871666Y-138691811D02*
X37387856Y-138691811D01*
X38597380Y-138147526D02*
X38657856Y-138087050D01*
X38657856Y-138087050D02*
X38778809Y-138026573D01*
X38778809Y-138026573D02*
X39081190Y-138026573D01*
X39081190Y-138026573D02*
X39202142Y-138087050D01*
X39202142Y-138087050D02*
X39262618Y-138147526D01*
X39262618Y-138147526D02*
X39323095Y-138268478D01*
X39323095Y-138268478D02*
X39323095Y-138389430D01*
X39323095Y-138389430D02*
X39262618Y-138570859D01*
X39262618Y-138570859D02*
X38536904Y-139296573D01*
X38536904Y-139296573D02*
X39323095Y-139296573D01*
X40411666Y-138449907D02*
X40411666Y-139296573D01*
X40109285Y-137966097D02*
X39806904Y-138873240D01*
X39806904Y-138873240D02*
X40593095Y-138873240D01*
D11*
%TO.C,JP1*%
X48167380Y-57953333D02*
X48881666Y-57953333D01*
X48881666Y-57953333D02*
X49024523Y-58000952D01*
X49024523Y-58000952D02*
X49119761Y-58096190D01*
X49119761Y-58096190D02*
X49167380Y-58239047D01*
X49167380Y-58239047D02*
X49167380Y-58334285D01*
X49167380Y-57477142D02*
X48167380Y-57477142D01*
X48167380Y-57477142D02*
X48167380Y-57096190D01*
X48167380Y-57096190D02*
X48215000Y-57000952D01*
X48215000Y-57000952D02*
X48262619Y-56953333D01*
X48262619Y-56953333D02*
X48357857Y-56905714D01*
X48357857Y-56905714D02*
X48500714Y-56905714D01*
X48500714Y-56905714D02*
X48595952Y-56953333D01*
X48595952Y-56953333D02*
X48643571Y-57000952D01*
X48643571Y-57000952D02*
X48691190Y-57096190D01*
X48691190Y-57096190D02*
X48691190Y-57477142D01*
X49167380Y-55953333D02*
X49167380Y-56524761D01*
X49167380Y-56239047D02*
X48167380Y-56239047D01*
X48167380Y-56239047D02*
X48310238Y-56334285D01*
X48310238Y-56334285D02*
X48405476Y-56429523D01*
X48405476Y-56429523D02*
X48453095Y-56524761D01*
D12*
%TO.C,LED2*%
X74126573Y-104019190D02*
X74126573Y-104623952D01*
X74126573Y-104623952D02*
X72856573Y-104623952D01*
X73461335Y-103595857D02*
X73461335Y-103172523D01*
X74126573Y-102991095D02*
X74126573Y-103595857D01*
X74126573Y-103595857D02*
X72856573Y-103595857D01*
X72856573Y-103595857D02*
X72856573Y-102991095D01*
X74126573Y-102446809D02*
X72856573Y-102446809D01*
X72856573Y-102446809D02*
X72856573Y-102144428D01*
X72856573Y-102144428D02*
X72917050Y-101962999D01*
X72917050Y-101962999D02*
X73038002Y-101842047D01*
X73038002Y-101842047D02*
X73158954Y-101781570D01*
X73158954Y-101781570D02*
X73400859Y-101721094D01*
X73400859Y-101721094D02*
X73582288Y-101721094D01*
X73582288Y-101721094D02*
X73824192Y-101781570D01*
X73824192Y-101781570D02*
X73945145Y-101842047D01*
X73945145Y-101842047D02*
X74066097Y-101962999D01*
X74066097Y-101962999D02*
X74126573Y-102144428D01*
X74126573Y-102144428D02*
X74126573Y-102446809D01*
X72977526Y-101237285D02*
X72917050Y-101176809D01*
X72917050Y-101176809D02*
X72856573Y-101055856D01*
X72856573Y-101055856D02*
X72856573Y-100753475D01*
X72856573Y-100753475D02*
X72917050Y-100632523D01*
X72917050Y-100632523D02*
X72977526Y-100572047D01*
X72977526Y-100572047D02*
X73098478Y-100511570D01*
X73098478Y-100511570D02*
X73219430Y-100511570D01*
X73219430Y-100511570D02*
X73400859Y-100572047D01*
X73400859Y-100572047D02*
X74126573Y-101297761D01*
X74126573Y-101297761D02*
X74126573Y-100511570D01*
D11*
%TO.C,J1*%
X41576666Y-75777380D02*
X41576666Y-76491666D01*
X41576666Y-76491666D02*
X41529047Y-76634523D01*
X41529047Y-76634523D02*
X41433809Y-76729761D01*
X41433809Y-76729761D02*
X41290952Y-76777380D01*
X41290952Y-76777380D02*
X41195714Y-76777380D01*
X42576666Y-76777380D02*
X42005238Y-76777380D01*
X42290952Y-76777380D02*
X42290952Y-75777380D01*
X42290952Y-75777380D02*
X42195714Y-75920238D01*
X42195714Y-75920238D02*
X42100476Y-76015476D01*
X42100476Y-76015476D02*
X42005238Y-76063095D01*
D12*
%TO.C,R21*%
X62116573Y-117576428D02*
X61511811Y-117999762D01*
X62116573Y-118302143D02*
X60846573Y-118302143D01*
X60846573Y-118302143D02*
X60846573Y-117818333D01*
X60846573Y-117818333D02*
X60907050Y-117697381D01*
X60907050Y-117697381D02*
X60967526Y-117636904D01*
X60967526Y-117636904D02*
X61088478Y-117576428D01*
X61088478Y-117576428D02*
X61269907Y-117576428D01*
X61269907Y-117576428D02*
X61390859Y-117636904D01*
X61390859Y-117636904D02*
X61451335Y-117697381D01*
X61451335Y-117697381D02*
X61511811Y-117818333D01*
X61511811Y-117818333D02*
X61511811Y-118302143D01*
X60967526Y-117092619D02*
X60907050Y-117032143D01*
X60907050Y-117032143D02*
X60846573Y-116911190D01*
X60846573Y-116911190D02*
X60846573Y-116608809D01*
X60846573Y-116608809D02*
X60907050Y-116487857D01*
X60907050Y-116487857D02*
X60967526Y-116427381D01*
X60967526Y-116427381D02*
X61088478Y-116366904D01*
X61088478Y-116366904D02*
X61209430Y-116366904D01*
X61209430Y-116366904D02*
X61390859Y-116427381D01*
X61390859Y-116427381D02*
X62116573Y-117153095D01*
X62116573Y-117153095D02*
X62116573Y-116366904D01*
X62116573Y-115157380D02*
X62116573Y-115883095D01*
X62116573Y-115520238D02*
X60846573Y-115520238D01*
X60846573Y-115520238D02*
X61028002Y-115641190D01*
X61028002Y-115641190D02*
X61148954Y-115762142D01*
X61148954Y-115762142D02*
X61209430Y-115883095D01*
%TO.C,R2*%
X39558333Y-56816573D02*
X39134999Y-56211811D01*
X38832618Y-56816573D02*
X38832618Y-55546573D01*
X38832618Y-55546573D02*
X39316428Y-55546573D01*
X39316428Y-55546573D02*
X39437380Y-55607050D01*
X39437380Y-55607050D02*
X39497857Y-55667526D01*
X39497857Y-55667526D02*
X39558333Y-55788478D01*
X39558333Y-55788478D02*
X39558333Y-55969907D01*
X39558333Y-55969907D02*
X39497857Y-56090859D01*
X39497857Y-56090859D02*
X39437380Y-56151335D01*
X39437380Y-56151335D02*
X39316428Y-56211811D01*
X39316428Y-56211811D02*
X38832618Y-56211811D01*
X40042142Y-55667526D02*
X40102618Y-55607050D01*
X40102618Y-55607050D02*
X40223571Y-55546573D01*
X40223571Y-55546573D02*
X40525952Y-55546573D01*
X40525952Y-55546573D02*
X40646904Y-55607050D01*
X40646904Y-55607050D02*
X40707380Y-55667526D01*
X40707380Y-55667526D02*
X40767857Y-55788478D01*
X40767857Y-55788478D02*
X40767857Y-55909430D01*
X40767857Y-55909430D02*
X40707380Y-56090859D01*
X40707380Y-56090859D02*
X39981666Y-56816573D01*
X39981666Y-56816573D02*
X40767857Y-56816573D01*
D11*
%TO.C,TP9*%
X49625380Y-123181904D02*
X49625380Y-122610476D01*
X50625380Y-122896190D02*
X49625380Y-122896190D01*
X50625380Y-122277142D02*
X49625380Y-122277142D01*
X49625380Y-122277142D02*
X49625380Y-121896190D01*
X49625380Y-121896190D02*
X49673000Y-121800952D01*
X49673000Y-121800952D02*
X49720619Y-121753333D01*
X49720619Y-121753333D02*
X49815857Y-121705714D01*
X49815857Y-121705714D02*
X49958714Y-121705714D01*
X49958714Y-121705714D02*
X50053952Y-121753333D01*
X50053952Y-121753333D02*
X50101571Y-121800952D01*
X50101571Y-121800952D02*
X50149190Y-121896190D01*
X50149190Y-121896190D02*
X50149190Y-122277142D01*
X50625380Y-121229523D02*
X50625380Y-121039047D01*
X50625380Y-121039047D02*
X50577761Y-120943809D01*
X50577761Y-120943809D02*
X50530142Y-120896190D01*
X50530142Y-120896190D02*
X50387285Y-120800952D01*
X50387285Y-120800952D02*
X50196809Y-120753333D01*
X50196809Y-120753333D02*
X49815857Y-120753333D01*
X49815857Y-120753333D02*
X49720619Y-120800952D01*
X49720619Y-120800952D02*
X49673000Y-120848571D01*
X49673000Y-120848571D02*
X49625380Y-120943809D01*
X49625380Y-120943809D02*
X49625380Y-121134285D01*
X49625380Y-121134285D02*
X49673000Y-121229523D01*
X49673000Y-121229523D02*
X49720619Y-121277142D01*
X49720619Y-121277142D02*
X49815857Y-121324761D01*
X49815857Y-121324761D02*
X50053952Y-121324761D01*
X50053952Y-121324761D02*
X50149190Y-121277142D01*
X50149190Y-121277142D02*
X50196809Y-121229523D01*
X50196809Y-121229523D02*
X50244428Y-121134285D01*
X50244428Y-121134285D02*
X50244428Y-120943809D01*
X50244428Y-120943809D02*
X50196809Y-120848571D01*
X50196809Y-120848571D02*
X50149190Y-120800952D01*
X50149190Y-120800952D02*
X50053952Y-120753333D01*
D12*
%TO.C,R7*%
X72416573Y-66871666D02*
X71811811Y-67295000D01*
X72416573Y-67597381D02*
X71146573Y-67597381D01*
X71146573Y-67597381D02*
X71146573Y-67113571D01*
X71146573Y-67113571D02*
X71207050Y-66992619D01*
X71207050Y-66992619D02*
X71267526Y-66932142D01*
X71267526Y-66932142D02*
X71388478Y-66871666D01*
X71388478Y-66871666D02*
X71569907Y-66871666D01*
X71569907Y-66871666D02*
X71690859Y-66932142D01*
X71690859Y-66932142D02*
X71751335Y-66992619D01*
X71751335Y-66992619D02*
X71811811Y-67113571D01*
X71811811Y-67113571D02*
X71811811Y-67597381D01*
X71146573Y-66448333D02*
X71146573Y-65601666D01*
X71146573Y-65601666D02*
X72416573Y-66145952D01*
D11*
%TO.C,JP9*%
X50707380Y-139233333D02*
X51421666Y-139233333D01*
X51421666Y-139233333D02*
X51564523Y-139280952D01*
X51564523Y-139280952D02*
X51659761Y-139376190D01*
X51659761Y-139376190D02*
X51707380Y-139519047D01*
X51707380Y-139519047D02*
X51707380Y-139614285D01*
X51707380Y-138757142D02*
X50707380Y-138757142D01*
X50707380Y-138757142D02*
X50707380Y-138376190D01*
X50707380Y-138376190D02*
X50755000Y-138280952D01*
X50755000Y-138280952D02*
X50802619Y-138233333D01*
X50802619Y-138233333D02*
X50897857Y-138185714D01*
X50897857Y-138185714D02*
X51040714Y-138185714D01*
X51040714Y-138185714D02*
X51135952Y-138233333D01*
X51135952Y-138233333D02*
X51183571Y-138280952D01*
X51183571Y-138280952D02*
X51231190Y-138376190D01*
X51231190Y-138376190D02*
X51231190Y-138757142D01*
X51707380Y-137709523D02*
X51707380Y-137519047D01*
X51707380Y-137519047D02*
X51659761Y-137423809D01*
X51659761Y-137423809D02*
X51612142Y-137376190D01*
X51612142Y-137376190D02*
X51469285Y-137280952D01*
X51469285Y-137280952D02*
X51278809Y-137233333D01*
X51278809Y-137233333D02*
X50897857Y-137233333D01*
X50897857Y-137233333D02*
X50802619Y-137280952D01*
X50802619Y-137280952D02*
X50755000Y-137328571D01*
X50755000Y-137328571D02*
X50707380Y-137423809D01*
X50707380Y-137423809D02*
X50707380Y-137614285D01*
X50707380Y-137614285D02*
X50755000Y-137709523D01*
X50755000Y-137709523D02*
X50802619Y-137757142D01*
X50802619Y-137757142D02*
X50897857Y-137804761D01*
X50897857Y-137804761D02*
X51135952Y-137804761D01*
X51135952Y-137804761D02*
X51231190Y-137757142D01*
X51231190Y-137757142D02*
X51278809Y-137709523D01*
X51278809Y-137709523D02*
X51326428Y-137614285D01*
X51326428Y-137614285D02*
X51326428Y-137423809D01*
X51326428Y-137423809D02*
X51278809Y-137328571D01*
X51278809Y-137328571D02*
X51231190Y-137280952D01*
X51231190Y-137280952D02*
X51135952Y-137233333D01*
%TO.C,JP8*%
X61426666Y-106587380D02*
X61426666Y-107301666D01*
X61426666Y-107301666D02*
X61379047Y-107444523D01*
X61379047Y-107444523D02*
X61283809Y-107539761D01*
X61283809Y-107539761D02*
X61140952Y-107587380D01*
X61140952Y-107587380D02*
X61045714Y-107587380D01*
X61902857Y-107587380D02*
X61902857Y-106587380D01*
X61902857Y-106587380D02*
X62283809Y-106587380D01*
X62283809Y-106587380D02*
X62379047Y-106635000D01*
X62379047Y-106635000D02*
X62426666Y-106682619D01*
X62426666Y-106682619D02*
X62474285Y-106777857D01*
X62474285Y-106777857D02*
X62474285Y-106920714D01*
X62474285Y-106920714D02*
X62426666Y-107015952D01*
X62426666Y-107015952D02*
X62379047Y-107063571D01*
X62379047Y-107063571D02*
X62283809Y-107111190D01*
X62283809Y-107111190D02*
X61902857Y-107111190D01*
X63045714Y-107015952D02*
X62950476Y-106968333D01*
X62950476Y-106968333D02*
X62902857Y-106920714D01*
X62902857Y-106920714D02*
X62855238Y-106825476D01*
X62855238Y-106825476D02*
X62855238Y-106777857D01*
X62855238Y-106777857D02*
X62902857Y-106682619D01*
X62902857Y-106682619D02*
X62950476Y-106635000D01*
X62950476Y-106635000D02*
X63045714Y-106587380D01*
X63045714Y-106587380D02*
X63236190Y-106587380D01*
X63236190Y-106587380D02*
X63331428Y-106635000D01*
X63331428Y-106635000D02*
X63379047Y-106682619D01*
X63379047Y-106682619D02*
X63426666Y-106777857D01*
X63426666Y-106777857D02*
X63426666Y-106825476D01*
X63426666Y-106825476D02*
X63379047Y-106920714D01*
X63379047Y-106920714D02*
X63331428Y-106968333D01*
X63331428Y-106968333D02*
X63236190Y-107015952D01*
X63236190Y-107015952D02*
X63045714Y-107015952D01*
X63045714Y-107015952D02*
X62950476Y-107063571D01*
X62950476Y-107063571D02*
X62902857Y-107111190D01*
X62902857Y-107111190D02*
X62855238Y-107206428D01*
X62855238Y-107206428D02*
X62855238Y-107396904D01*
X62855238Y-107396904D02*
X62902857Y-107492142D01*
X62902857Y-107492142D02*
X62950476Y-107539761D01*
X62950476Y-107539761D02*
X63045714Y-107587380D01*
X63045714Y-107587380D02*
X63236190Y-107587380D01*
X63236190Y-107587380D02*
X63331428Y-107539761D01*
X63331428Y-107539761D02*
X63379047Y-107492142D01*
X63379047Y-107492142D02*
X63426666Y-107396904D01*
X63426666Y-107396904D02*
X63426666Y-107206428D01*
X63426666Y-107206428D02*
X63379047Y-107111190D01*
X63379047Y-107111190D02*
X63331428Y-107063571D01*
X63331428Y-107063571D02*
X63236190Y-107015952D01*
%TO.C,JP7*%
X61426666Y-98967380D02*
X61426666Y-99681666D01*
X61426666Y-99681666D02*
X61379047Y-99824523D01*
X61379047Y-99824523D02*
X61283809Y-99919761D01*
X61283809Y-99919761D02*
X61140952Y-99967380D01*
X61140952Y-99967380D02*
X61045714Y-99967380D01*
X61902857Y-99967380D02*
X61902857Y-98967380D01*
X61902857Y-98967380D02*
X62283809Y-98967380D01*
X62283809Y-98967380D02*
X62379047Y-99015000D01*
X62379047Y-99015000D02*
X62426666Y-99062619D01*
X62426666Y-99062619D02*
X62474285Y-99157857D01*
X62474285Y-99157857D02*
X62474285Y-99300714D01*
X62474285Y-99300714D02*
X62426666Y-99395952D01*
X62426666Y-99395952D02*
X62379047Y-99443571D01*
X62379047Y-99443571D02*
X62283809Y-99491190D01*
X62283809Y-99491190D02*
X61902857Y-99491190D01*
X62807619Y-98967380D02*
X63474285Y-98967380D01*
X63474285Y-98967380D02*
X63045714Y-99967380D01*
D12*
%TO.C,R11*%
X53323571Y-95106573D02*
X52900237Y-94501811D01*
X52597856Y-95106573D02*
X52597856Y-93836573D01*
X52597856Y-93836573D02*
X53081666Y-93836573D01*
X53081666Y-93836573D02*
X53202618Y-93897050D01*
X53202618Y-93897050D02*
X53263095Y-93957526D01*
X53263095Y-93957526D02*
X53323571Y-94078478D01*
X53323571Y-94078478D02*
X53323571Y-94259907D01*
X53323571Y-94259907D02*
X53263095Y-94380859D01*
X53263095Y-94380859D02*
X53202618Y-94441335D01*
X53202618Y-94441335D02*
X53081666Y-94501811D01*
X53081666Y-94501811D02*
X52597856Y-94501811D01*
X54533095Y-95106573D02*
X53807380Y-95106573D01*
X54170237Y-95106573D02*
X54170237Y-93836573D01*
X54170237Y-93836573D02*
X54049285Y-94018002D01*
X54049285Y-94018002D02*
X53928333Y-94138954D01*
X53928333Y-94138954D02*
X53807380Y-94199430D01*
X55742619Y-95106573D02*
X55016904Y-95106573D01*
X55379761Y-95106573D02*
X55379761Y-93836573D01*
X55379761Y-93836573D02*
X55258809Y-94018002D01*
X55258809Y-94018002D02*
X55137857Y-94138954D01*
X55137857Y-94138954D02*
X55016904Y-94199430D01*
%TO.C,R1*%
X40158333Y-64486573D02*
X39734999Y-63881811D01*
X39432618Y-64486573D02*
X39432618Y-63216573D01*
X39432618Y-63216573D02*
X39916428Y-63216573D01*
X39916428Y-63216573D02*
X40037380Y-63277050D01*
X40037380Y-63277050D02*
X40097857Y-63337526D01*
X40097857Y-63337526D02*
X40158333Y-63458478D01*
X40158333Y-63458478D02*
X40158333Y-63639907D01*
X40158333Y-63639907D02*
X40097857Y-63760859D01*
X40097857Y-63760859D02*
X40037380Y-63821335D01*
X40037380Y-63821335D02*
X39916428Y-63881811D01*
X39916428Y-63881811D02*
X39432618Y-63881811D01*
X41367857Y-64486573D02*
X40642142Y-64486573D01*
X41004999Y-64486573D02*
X41004999Y-63216573D01*
X41004999Y-63216573D02*
X40884047Y-63398002D01*
X40884047Y-63398002D02*
X40763095Y-63518954D01*
X40763095Y-63518954D02*
X40642142Y-63579430D01*
D11*
%TO.C,TP4*%
X41918095Y-68489380D02*
X42489523Y-68489380D01*
X42203809Y-69489380D02*
X42203809Y-68489380D01*
X42822857Y-69489380D02*
X42822857Y-68489380D01*
X42822857Y-68489380D02*
X43203809Y-68489380D01*
X43203809Y-68489380D02*
X43299047Y-68537000D01*
X43299047Y-68537000D02*
X43346666Y-68584619D01*
X43346666Y-68584619D02*
X43394285Y-68679857D01*
X43394285Y-68679857D02*
X43394285Y-68822714D01*
X43394285Y-68822714D02*
X43346666Y-68917952D01*
X43346666Y-68917952D02*
X43299047Y-68965571D01*
X43299047Y-68965571D02*
X43203809Y-69013190D01*
X43203809Y-69013190D02*
X42822857Y-69013190D01*
X44251428Y-68822714D02*
X44251428Y-69489380D01*
X44013333Y-68441761D02*
X43775238Y-69156047D01*
X43775238Y-69156047D02*
X44394285Y-69156047D01*
D12*
%TO.C,R14*%
X48233571Y-108286573D02*
X47810237Y-107681811D01*
X47507856Y-108286573D02*
X47507856Y-107016573D01*
X47507856Y-107016573D02*
X47991666Y-107016573D01*
X47991666Y-107016573D02*
X48112618Y-107077050D01*
X48112618Y-107077050D02*
X48173095Y-107137526D01*
X48173095Y-107137526D02*
X48233571Y-107258478D01*
X48233571Y-107258478D02*
X48233571Y-107439907D01*
X48233571Y-107439907D02*
X48173095Y-107560859D01*
X48173095Y-107560859D02*
X48112618Y-107621335D01*
X48112618Y-107621335D02*
X47991666Y-107681811D01*
X47991666Y-107681811D02*
X47507856Y-107681811D01*
X49443095Y-108286573D02*
X48717380Y-108286573D01*
X49080237Y-108286573D02*
X49080237Y-107016573D01*
X49080237Y-107016573D02*
X48959285Y-107198002D01*
X48959285Y-107198002D02*
X48838333Y-107318954D01*
X48838333Y-107318954D02*
X48717380Y-107379430D01*
X50531666Y-107439907D02*
X50531666Y-108286573D01*
X50229285Y-106956097D02*
X49926904Y-107863240D01*
X49926904Y-107863240D02*
X50713095Y-107863240D01*
D11*
%TO.C,TP7*%
X75025380Y-86351904D02*
X75025380Y-85780476D01*
X76025380Y-86066190D02*
X75025380Y-86066190D01*
X76025380Y-85447142D02*
X75025380Y-85447142D01*
X75025380Y-85447142D02*
X75025380Y-85066190D01*
X75025380Y-85066190D02*
X75073000Y-84970952D01*
X75073000Y-84970952D02*
X75120619Y-84923333D01*
X75120619Y-84923333D02*
X75215857Y-84875714D01*
X75215857Y-84875714D02*
X75358714Y-84875714D01*
X75358714Y-84875714D02*
X75453952Y-84923333D01*
X75453952Y-84923333D02*
X75501571Y-84970952D01*
X75501571Y-84970952D02*
X75549190Y-85066190D01*
X75549190Y-85066190D02*
X75549190Y-85447142D01*
X75025380Y-84542380D02*
X75025380Y-83875714D01*
X75025380Y-83875714D02*
X76025380Y-84304285D01*
%TO.C,JP3*%
X63407380Y-55413333D02*
X64121666Y-55413333D01*
X64121666Y-55413333D02*
X64264523Y-55460952D01*
X64264523Y-55460952D02*
X64359761Y-55556190D01*
X64359761Y-55556190D02*
X64407380Y-55699047D01*
X64407380Y-55699047D02*
X64407380Y-55794285D01*
X64407380Y-54937142D02*
X63407380Y-54937142D01*
X63407380Y-54937142D02*
X63407380Y-54556190D01*
X63407380Y-54556190D02*
X63455000Y-54460952D01*
X63455000Y-54460952D02*
X63502619Y-54413333D01*
X63502619Y-54413333D02*
X63597857Y-54365714D01*
X63597857Y-54365714D02*
X63740714Y-54365714D01*
X63740714Y-54365714D02*
X63835952Y-54413333D01*
X63835952Y-54413333D02*
X63883571Y-54460952D01*
X63883571Y-54460952D02*
X63931190Y-54556190D01*
X63931190Y-54556190D02*
X63931190Y-54937142D01*
X63407380Y-54032380D02*
X63407380Y-53413333D01*
X63407380Y-53413333D02*
X63788333Y-53746666D01*
X63788333Y-53746666D02*
X63788333Y-53603809D01*
X63788333Y-53603809D02*
X63835952Y-53508571D01*
X63835952Y-53508571D02*
X63883571Y-53460952D01*
X63883571Y-53460952D02*
X63978809Y-53413333D01*
X63978809Y-53413333D02*
X64216904Y-53413333D01*
X64216904Y-53413333D02*
X64312142Y-53460952D01*
X64312142Y-53460952D02*
X64359761Y-53508571D01*
X64359761Y-53508571D02*
X64407380Y-53603809D01*
X64407380Y-53603809D02*
X64407380Y-53889523D01*
X64407380Y-53889523D02*
X64359761Y-53984761D01*
X64359761Y-53984761D02*
X64312142Y-54032380D01*
%TO.C,TP1*%
X54618095Y-45629380D02*
X55189523Y-45629380D01*
X54903809Y-46629380D02*
X54903809Y-45629380D01*
X55522857Y-46629380D02*
X55522857Y-45629380D01*
X55522857Y-45629380D02*
X55903809Y-45629380D01*
X55903809Y-45629380D02*
X55999047Y-45677000D01*
X55999047Y-45677000D02*
X56046666Y-45724619D01*
X56046666Y-45724619D02*
X56094285Y-45819857D01*
X56094285Y-45819857D02*
X56094285Y-45962714D01*
X56094285Y-45962714D02*
X56046666Y-46057952D01*
X56046666Y-46057952D02*
X55999047Y-46105571D01*
X55999047Y-46105571D02*
X55903809Y-46153190D01*
X55903809Y-46153190D02*
X55522857Y-46153190D01*
X57046666Y-46629380D02*
X56475238Y-46629380D01*
X56760952Y-46629380D02*
X56760952Y-45629380D01*
X56760952Y-45629380D02*
X56665714Y-45772238D01*
X56665714Y-45772238D02*
X56570476Y-45867476D01*
X56570476Y-45867476D02*
X56475238Y-45915095D01*
%TO.C,JP10*%
X58327380Y-139709523D02*
X59041666Y-139709523D01*
X59041666Y-139709523D02*
X59184523Y-139757142D01*
X59184523Y-139757142D02*
X59279761Y-139852380D01*
X59279761Y-139852380D02*
X59327380Y-139995237D01*
X59327380Y-139995237D02*
X59327380Y-140090475D01*
X59327380Y-139233332D02*
X58327380Y-139233332D01*
X58327380Y-139233332D02*
X58327380Y-138852380D01*
X58327380Y-138852380D02*
X58375000Y-138757142D01*
X58375000Y-138757142D02*
X58422619Y-138709523D01*
X58422619Y-138709523D02*
X58517857Y-138661904D01*
X58517857Y-138661904D02*
X58660714Y-138661904D01*
X58660714Y-138661904D02*
X58755952Y-138709523D01*
X58755952Y-138709523D02*
X58803571Y-138757142D01*
X58803571Y-138757142D02*
X58851190Y-138852380D01*
X58851190Y-138852380D02*
X58851190Y-139233332D01*
X59327380Y-137709523D02*
X59327380Y-138280951D01*
X59327380Y-137995237D02*
X58327380Y-137995237D01*
X58327380Y-137995237D02*
X58470238Y-138090475D01*
X58470238Y-138090475D02*
X58565476Y-138185713D01*
X58565476Y-138185713D02*
X58613095Y-138280951D01*
X58327380Y-137090475D02*
X58327380Y-136995237D01*
X58327380Y-136995237D02*
X58375000Y-136899999D01*
X58375000Y-136899999D02*
X58422619Y-136852380D01*
X58422619Y-136852380D02*
X58517857Y-136804761D01*
X58517857Y-136804761D02*
X58708333Y-136757142D01*
X58708333Y-136757142D02*
X58946428Y-136757142D01*
X58946428Y-136757142D02*
X59136904Y-136804761D01*
X59136904Y-136804761D02*
X59232142Y-136852380D01*
X59232142Y-136852380D02*
X59279761Y-136899999D01*
X59279761Y-136899999D02*
X59327380Y-136995237D01*
X59327380Y-136995237D02*
X59327380Y-137090475D01*
X59327380Y-137090475D02*
X59279761Y-137185713D01*
X59279761Y-137185713D02*
X59232142Y-137233332D01*
X59232142Y-137233332D02*
X59136904Y-137280951D01*
X59136904Y-137280951D02*
X58946428Y-137328570D01*
X58946428Y-137328570D02*
X58708333Y-137328570D01*
X58708333Y-137328570D02*
X58517857Y-137280951D01*
X58517857Y-137280951D02*
X58422619Y-137233332D01*
X58422619Y-137233332D02*
X58375000Y-137185713D01*
X58375000Y-137185713D02*
X58327380Y-137090475D01*
D12*
%TO.C,D2*%
X74966573Y-96387381D02*
X73696573Y-96387381D01*
X73696573Y-96387381D02*
X73696573Y-96085000D01*
X73696573Y-96085000D02*
X73757050Y-95903571D01*
X73757050Y-95903571D02*
X73878002Y-95782619D01*
X73878002Y-95782619D02*
X73998954Y-95722142D01*
X73998954Y-95722142D02*
X74240859Y-95661666D01*
X74240859Y-95661666D02*
X74422288Y-95661666D01*
X74422288Y-95661666D02*
X74664192Y-95722142D01*
X74664192Y-95722142D02*
X74785145Y-95782619D01*
X74785145Y-95782619D02*
X74906097Y-95903571D01*
X74906097Y-95903571D02*
X74966573Y-96085000D01*
X74966573Y-96085000D02*
X74966573Y-96387381D01*
X73817526Y-95177857D02*
X73757050Y-95117381D01*
X73757050Y-95117381D02*
X73696573Y-94996428D01*
X73696573Y-94996428D02*
X73696573Y-94694047D01*
X73696573Y-94694047D02*
X73757050Y-94573095D01*
X73757050Y-94573095D02*
X73817526Y-94512619D01*
X73817526Y-94512619D02*
X73938478Y-94452142D01*
X73938478Y-94452142D02*
X74059430Y-94452142D01*
X74059430Y-94452142D02*
X74240859Y-94512619D01*
X74240859Y-94512619D02*
X74966573Y-95238333D01*
X74966573Y-95238333D02*
X74966573Y-94452142D01*
%TO.C,D1*%
X46572618Y-47896573D02*
X46572618Y-46626573D01*
X46572618Y-46626573D02*
X46874999Y-46626573D01*
X46874999Y-46626573D02*
X47056428Y-46687050D01*
X47056428Y-46687050D02*
X47177380Y-46808002D01*
X47177380Y-46808002D02*
X47237857Y-46928954D01*
X47237857Y-46928954D02*
X47298333Y-47170859D01*
X47298333Y-47170859D02*
X47298333Y-47352288D01*
X47298333Y-47352288D02*
X47237857Y-47594192D01*
X47237857Y-47594192D02*
X47177380Y-47715145D01*
X47177380Y-47715145D02*
X47056428Y-47836097D01*
X47056428Y-47836097D02*
X46874999Y-47896573D01*
X46874999Y-47896573D02*
X46572618Y-47896573D01*
X48507857Y-47896573D02*
X47782142Y-47896573D01*
X48144999Y-47896573D02*
X48144999Y-46626573D01*
X48144999Y-46626573D02*
X48024047Y-46808002D01*
X48024047Y-46808002D02*
X47903095Y-46928954D01*
X47903095Y-46928954D02*
X47782142Y-46989430D01*
%TO.C,R13*%
X53343571Y-105416573D02*
X52920237Y-104811811D01*
X52617856Y-105416573D02*
X52617856Y-104146573D01*
X52617856Y-104146573D02*
X53101666Y-104146573D01*
X53101666Y-104146573D02*
X53222618Y-104207050D01*
X53222618Y-104207050D02*
X53283095Y-104267526D01*
X53283095Y-104267526D02*
X53343571Y-104388478D01*
X53343571Y-104388478D02*
X53343571Y-104569907D01*
X53343571Y-104569907D02*
X53283095Y-104690859D01*
X53283095Y-104690859D02*
X53222618Y-104751335D01*
X53222618Y-104751335D02*
X53101666Y-104811811D01*
X53101666Y-104811811D02*
X52617856Y-104811811D01*
X54553095Y-105416573D02*
X53827380Y-105416573D01*
X54190237Y-105416573D02*
X54190237Y-104146573D01*
X54190237Y-104146573D02*
X54069285Y-104328002D01*
X54069285Y-104328002D02*
X53948333Y-104448954D01*
X53948333Y-104448954D02*
X53827380Y-104509430D01*
X54976428Y-104146573D02*
X55762619Y-104146573D01*
X55762619Y-104146573D02*
X55339285Y-104630383D01*
X55339285Y-104630383D02*
X55520714Y-104630383D01*
X55520714Y-104630383D02*
X55641666Y-104690859D01*
X55641666Y-104690859D02*
X55702142Y-104751335D01*
X55702142Y-104751335D02*
X55762619Y-104872288D01*
X55762619Y-104872288D02*
X55762619Y-105174669D01*
X55762619Y-105174669D02*
X55702142Y-105295621D01*
X55702142Y-105295621D02*
X55641666Y-105356097D01*
X55641666Y-105356097D02*
X55520714Y-105416573D01*
X55520714Y-105416573D02*
X55157857Y-105416573D01*
X55157857Y-105416573D02*
X55036904Y-105356097D01*
X55036904Y-105356097D02*
X54976428Y-105295621D01*
D11*
%TO.C,JP4*%
X71027380Y-57953333D02*
X71741666Y-57953333D01*
X71741666Y-57953333D02*
X71884523Y-58000952D01*
X71884523Y-58000952D02*
X71979761Y-58096190D01*
X71979761Y-58096190D02*
X72027380Y-58239047D01*
X72027380Y-58239047D02*
X72027380Y-58334285D01*
X72027380Y-57477142D02*
X71027380Y-57477142D01*
X71027380Y-57477142D02*
X71027380Y-57096190D01*
X71027380Y-57096190D02*
X71075000Y-57000952D01*
X71075000Y-57000952D02*
X71122619Y-56953333D01*
X71122619Y-56953333D02*
X71217857Y-56905714D01*
X71217857Y-56905714D02*
X71360714Y-56905714D01*
X71360714Y-56905714D02*
X71455952Y-56953333D01*
X71455952Y-56953333D02*
X71503571Y-57000952D01*
X71503571Y-57000952D02*
X71551190Y-57096190D01*
X71551190Y-57096190D02*
X71551190Y-57477142D01*
X71360714Y-56048571D02*
X72027380Y-56048571D01*
X70979761Y-56286666D02*
X71694047Y-56524761D01*
X71694047Y-56524761D02*
X71694047Y-55905714D01*
D12*
%TO.C,R23*%
X40793571Y-133186573D02*
X40370237Y-132581811D01*
X40067856Y-133186573D02*
X40067856Y-131916573D01*
X40067856Y-131916573D02*
X40551666Y-131916573D01*
X40551666Y-131916573D02*
X40672618Y-131977050D01*
X40672618Y-131977050D02*
X40733095Y-132037526D01*
X40733095Y-132037526D02*
X40793571Y-132158478D01*
X40793571Y-132158478D02*
X40793571Y-132339907D01*
X40793571Y-132339907D02*
X40733095Y-132460859D01*
X40733095Y-132460859D02*
X40672618Y-132521335D01*
X40672618Y-132521335D02*
X40551666Y-132581811D01*
X40551666Y-132581811D02*
X40067856Y-132581811D01*
X41277380Y-132037526D02*
X41337856Y-131977050D01*
X41337856Y-131977050D02*
X41458809Y-131916573D01*
X41458809Y-131916573D02*
X41761190Y-131916573D01*
X41761190Y-131916573D02*
X41882142Y-131977050D01*
X41882142Y-131977050D02*
X41942618Y-132037526D01*
X41942618Y-132037526D02*
X42003095Y-132158478D01*
X42003095Y-132158478D02*
X42003095Y-132279430D01*
X42003095Y-132279430D02*
X41942618Y-132460859D01*
X41942618Y-132460859D02*
X41216904Y-133186573D01*
X41216904Y-133186573D02*
X42003095Y-133186573D01*
X42426428Y-131916573D02*
X43212619Y-131916573D01*
X43212619Y-131916573D02*
X42789285Y-132400383D01*
X42789285Y-132400383D02*
X42970714Y-132400383D01*
X42970714Y-132400383D02*
X43091666Y-132460859D01*
X43091666Y-132460859D02*
X43152142Y-132521335D01*
X43152142Y-132521335D02*
X43212619Y-132642288D01*
X43212619Y-132642288D02*
X43212619Y-132944669D01*
X43212619Y-132944669D02*
X43152142Y-133065621D01*
X43152142Y-133065621D02*
X43091666Y-133126097D01*
X43091666Y-133126097D02*
X42970714Y-133186573D01*
X42970714Y-133186573D02*
X42607857Y-133186573D01*
X42607857Y-133186573D02*
X42486904Y-133126097D01*
X42486904Y-133126097D02*
X42426428Y-133065621D01*
D11*
%TO.C,JP2*%
X55787380Y-55413333D02*
X56501666Y-55413333D01*
X56501666Y-55413333D02*
X56644523Y-55460952D01*
X56644523Y-55460952D02*
X56739761Y-55556190D01*
X56739761Y-55556190D02*
X56787380Y-55699047D01*
X56787380Y-55699047D02*
X56787380Y-55794285D01*
X56787380Y-54937142D02*
X55787380Y-54937142D01*
X55787380Y-54937142D02*
X55787380Y-54556190D01*
X55787380Y-54556190D02*
X55835000Y-54460952D01*
X55835000Y-54460952D02*
X55882619Y-54413333D01*
X55882619Y-54413333D02*
X55977857Y-54365714D01*
X55977857Y-54365714D02*
X56120714Y-54365714D01*
X56120714Y-54365714D02*
X56215952Y-54413333D01*
X56215952Y-54413333D02*
X56263571Y-54460952D01*
X56263571Y-54460952D02*
X56311190Y-54556190D01*
X56311190Y-54556190D02*
X56311190Y-54937142D01*
X55882619Y-53984761D02*
X55835000Y-53937142D01*
X55835000Y-53937142D02*
X55787380Y-53841904D01*
X55787380Y-53841904D02*
X55787380Y-53603809D01*
X55787380Y-53603809D02*
X55835000Y-53508571D01*
X55835000Y-53508571D02*
X55882619Y-53460952D01*
X55882619Y-53460952D02*
X55977857Y-53413333D01*
X55977857Y-53413333D02*
X56073095Y-53413333D01*
X56073095Y-53413333D02*
X56215952Y-53460952D01*
X56215952Y-53460952D02*
X56787380Y-54032380D01*
X56787380Y-54032380D02*
X56787380Y-53413333D01*
D12*
%TO.C,R16*%
X59786573Y-132116428D02*
X59181811Y-132539762D01*
X59786573Y-132842143D02*
X58516573Y-132842143D01*
X58516573Y-132842143D02*
X58516573Y-132358333D01*
X58516573Y-132358333D02*
X58577050Y-132237381D01*
X58577050Y-132237381D02*
X58637526Y-132176904D01*
X58637526Y-132176904D02*
X58758478Y-132116428D01*
X58758478Y-132116428D02*
X58939907Y-132116428D01*
X58939907Y-132116428D02*
X59060859Y-132176904D01*
X59060859Y-132176904D02*
X59121335Y-132237381D01*
X59121335Y-132237381D02*
X59181811Y-132358333D01*
X59181811Y-132358333D02*
X59181811Y-132842143D01*
X59786573Y-130906904D02*
X59786573Y-131632619D01*
X59786573Y-131269762D02*
X58516573Y-131269762D01*
X58516573Y-131269762D02*
X58698002Y-131390714D01*
X58698002Y-131390714D02*
X58818954Y-131511666D01*
X58818954Y-131511666D02*
X58879430Y-131632619D01*
X58516573Y-129818333D02*
X58516573Y-130060238D01*
X58516573Y-130060238D02*
X58577050Y-130181190D01*
X58577050Y-130181190D02*
X58637526Y-130241666D01*
X58637526Y-130241666D02*
X58818954Y-130362619D01*
X58818954Y-130362619D02*
X59060859Y-130423095D01*
X59060859Y-130423095D02*
X59544669Y-130423095D01*
X59544669Y-130423095D02*
X59665621Y-130362619D01*
X59665621Y-130362619D02*
X59726097Y-130302142D01*
X59726097Y-130302142D02*
X59786573Y-130181190D01*
X59786573Y-130181190D02*
X59786573Y-129939285D01*
X59786573Y-129939285D02*
X59726097Y-129818333D01*
X59726097Y-129818333D02*
X59665621Y-129757857D01*
X59665621Y-129757857D02*
X59544669Y-129697380D01*
X59544669Y-129697380D02*
X59242288Y-129697380D01*
X59242288Y-129697380D02*
X59121335Y-129757857D01*
X59121335Y-129757857D02*
X59060859Y-129818333D01*
X59060859Y-129818333D02*
X59000383Y-129939285D01*
X59000383Y-129939285D02*
X59000383Y-130181190D01*
X59000383Y-130181190D02*
X59060859Y-130302142D01*
X59060859Y-130302142D02*
X59121335Y-130362619D01*
X59121335Y-130362619D02*
X59242288Y-130423095D01*
D11*
%TO.C,JP6*%
X61426666Y-91347380D02*
X61426666Y-92061666D01*
X61426666Y-92061666D02*
X61379047Y-92204523D01*
X61379047Y-92204523D02*
X61283809Y-92299761D01*
X61283809Y-92299761D02*
X61140952Y-92347380D01*
X61140952Y-92347380D02*
X61045714Y-92347380D01*
X61902857Y-92347380D02*
X61902857Y-91347380D01*
X61902857Y-91347380D02*
X62283809Y-91347380D01*
X62283809Y-91347380D02*
X62379047Y-91395000D01*
X62379047Y-91395000D02*
X62426666Y-91442619D01*
X62426666Y-91442619D02*
X62474285Y-91537857D01*
X62474285Y-91537857D02*
X62474285Y-91680714D01*
X62474285Y-91680714D02*
X62426666Y-91775952D01*
X62426666Y-91775952D02*
X62379047Y-91823571D01*
X62379047Y-91823571D02*
X62283809Y-91871190D01*
X62283809Y-91871190D02*
X61902857Y-91871190D01*
X63331428Y-91347380D02*
X63140952Y-91347380D01*
X63140952Y-91347380D02*
X63045714Y-91395000D01*
X63045714Y-91395000D02*
X62998095Y-91442619D01*
X62998095Y-91442619D02*
X62902857Y-91585476D01*
X62902857Y-91585476D02*
X62855238Y-91775952D01*
X62855238Y-91775952D02*
X62855238Y-92156904D01*
X62855238Y-92156904D02*
X62902857Y-92252142D01*
X62902857Y-92252142D02*
X62950476Y-92299761D01*
X62950476Y-92299761D02*
X63045714Y-92347380D01*
X63045714Y-92347380D02*
X63236190Y-92347380D01*
X63236190Y-92347380D02*
X63331428Y-92299761D01*
X63331428Y-92299761D02*
X63379047Y-92252142D01*
X63379047Y-92252142D02*
X63426666Y-92156904D01*
X63426666Y-92156904D02*
X63426666Y-91918809D01*
X63426666Y-91918809D02*
X63379047Y-91823571D01*
X63379047Y-91823571D02*
X63331428Y-91775952D01*
X63331428Y-91775952D02*
X63236190Y-91728333D01*
X63236190Y-91728333D02*
X63045714Y-91728333D01*
X63045714Y-91728333D02*
X62950476Y-91775952D01*
X62950476Y-91775952D02*
X62902857Y-91823571D01*
X62902857Y-91823571D02*
X62855238Y-91918809D01*
D12*
%TO.C,R3*%
X49156573Y-67041666D02*
X48551811Y-67465000D01*
X49156573Y-67767381D02*
X47886573Y-67767381D01*
X47886573Y-67767381D02*
X47886573Y-67283571D01*
X47886573Y-67283571D02*
X47947050Y-67162619D01*
X47947050Y-67162619D02*
X48007526Y-67102142D01*
X48007526Y-67102142D02*
X48128478Y-67041666D01*
X48128478Y-67041666D02*
X48309907Y-67041666D01*
X48309907Y-67041666D02*
X48430859Y-67102142D01*
X48430859Y-67102142D02*
X48491335Y-67162619D01*
X48491335Y-67162619D02*
X48551811Y-67283571D01*
X48551811Y-67283571D02*
X48551811Y-67767381D01*
X47886573Y-66618333D02*
X47886573Y-65832142D01*
X47886573Y-65832142D02*
X48370383Y-66255476D01*
X48370383Y-66255476D02*
X48370383Y-66074047D01*
X48370383Y-66074047D02*
X48430859Y-65953095D01*
X48430859Y-65953095D02*
X48491335Y-65892619D01*
X48491335Y-65892619D02*
X48612288Y-65832142D01*
X48612288Y-65832142D02*
X48914669Y-65832142D01*
X48914669Y-65832142D02*
X49035621Y-65892619D01*
X49035621Y-65892619D02*
X49096097Y-65953095D01*
X49096097Y-65953095D02*
X49156573Y-66074047D01*
X49156573Y-66074047D02*
X49156573Y-66436904D01*
X49156573Y-66436904D02*
X49096097Y-66557857D01*
X49096097Y-66557857D02*
X49035621Y-66618333D01*
%TO.C,R12*%
X48273571Y-102816573D02*
X47850237Y-102211811D01*
X47547856Y-102816573D02*
X47547856Y-101546573D01*
X47547856Y-101546573D02*
X48031666Y-101546573D01*
X48031666Y-101546573D02*
X48152618Y-101607050D01*
X48152618Y-101607050D02*
X48213095Y-101667526D01*
X48213095Y-101667526D02*
X48273571Y-101788478D01*
X48273571Y-101788478D02*
X48273571Y-101969907D01*
X48273571Y-101969907D02*
X48213095Y-102090859D01*
X48213095Y-102090859D02*
X48152618Y-102151335D01*
X48152618Y-102151335D02*
X48031666Y-102211811D01*
X48031666Y-102211811D02*
X47547856Y-102211811D01*
X49483095Y-102816573D02*
X48757380Y-102816573D01*
X49120237Y-102816573D02*
X49120237Y-101546573D01*
X49120237Y-101546573D02*
X48999285Y-101728002D01*
X48999285Y-101728002D02*
X48878333Y-101848954D01*
X48878333Y-101848954D02*
X48757380Y-101909430D01*
X49966904Y-101667526D02*
X50027380Y-101607050D01*
X50027380Y-101607050D02*
X50148333Y-101546573D01*
X50148333Y-101546573D02*
X50450714Y-101546573D01*
X50450714Y-101546573D02*
X50571666Y-101607050D01*
X50571666Y-101607050D02*
X50632142Y-101667526D01*
X50632142Y-101667526D02*
X50692619Y-101788478D01*
X50692619Y-101788478D02*
X50692619Y-101909430D01*
X50692619Y-101909430D02*
X50632142Y-102090859D01*
X50632142Y-102090859D02*
X49906428Y-102816573D01*
X49906428Y-102816573D02*
X50692619Y-102816573D01*
%TO.C,R9*%
X59978333Y-72556573D02*
X59554999Y-71951811D01*
X59252618Y-72556573D02*
X59252618Y-71286573D01*
X59252618Y-71286573D02*
X59736428Y-71286573D01*
X59736428Y-71286573D02*
X59857380Y-71347050D01*
X59857380Y-71347050D02*
X59917857Y-71407526D01*
X59917857Y-71407526D02*
X59978333Y-71528478D01*
X59978333Y-71528478D02*
X59978333Y-71709907D01*
X59978333Y-71709907D02*
X59917857Y-71830859D01*
X59917857Y-71830859D02*
X59857380Y-71891335D01*
X59857380Y-71891335D02*
X59736428Y-71951811D01*
X59736428Y-71951811D02*
X59252618Y-71951811D01*
X60583095Y-72556573D02*
X60824999Y-72556573D01*
X60824999Y-72556573D02*
X60945952Y-72496097D01*
X60945952Y-72496097D02*
X61006428Y-72435621D01*
X61006428Y-72435621D02*
X61127380Y-72254192D01*
X61127380Y-72254192D02*
X61187857Y-72012288D01*
X61187857Y-72012288D02*
X61187857Y-71528478D01*
X61187857Y-71528478D02*
X61127380Y-71407526D01*
X61127380Y-71407526D02*
X61066904Y-71347050D01*
X61066904Y-71347050D02*
X60945952Y-71286573D01*
X60945952Y-71286573D02*
X60704047Y-71286573D01*
X60704047Y-71286573D02*
X60583095Y-71347050D01*
X60583095Y-71347050D02*
X60522618Y-71407526D01*
X60522618Y-71407526D02*
X60462142Y-71528478D01*
X60462142Y-71528478D02*
X60462142Y-71830859D01*
X60462142Y-71830859D02*
X60522618Y-71951811D01*
X60522618Y-71951811D02*
X60583095Y-72012288D01*
X60583095Y-72012288D02*
X60704047Y-72072764D01*
X60704047Y-72072764D02*
X60945952Y-72072764D01*
X60945952Y-72072764D02*
X61066904Y-72012288D01*
X61066904Y-72012288D02*
X61127380Y-71951811D01*
X61127380Y-71951811D02*
X61187857Y-71830859D01*
%TO.C,R22*%
X72176573Y-120076428D02*
X71571811Y-120499762D01*
X72176573Y-120802143D02*
X70906573Y-120802143D01*
X70906573Y-120802143D02*
X70906573Y-120318333D01*
X70906573Y-120318333D02*
X70967050Y-120197381D01*
X70967050Y-120197381D02*
X71027526Y-120136904D01*
X71027526Y-120136904D02*
X71148478Y-120076428D01*
X71148478Y-120076428D02*
X71329907Y-120076428D01*
X71329907Y-120076428D02*
X71450859Y-120136904D01*
X71450859Y-120136904D02*
X71511335Y-120197381D01*
X71511335Y-120197381D02*
X71571811Y-120318333D01*
X71571811Y-120318333D02*
X71571811Y-120802143D01*
X71027526Y-119592619D02*
X70967050Y-119532143D01*
X70967050Y-119532143D02*
X70906573Y-119411190D01*
X70906573Y-119411190D02*
X70906573Y-119108809D01*
X70906573Y-119108809D02*
X70967050Y-118987857D01*
X70967050Y-118987857D02*
X71027526Y-118927381D01*
X71027526Y-118927381D02*
X71148478Y-118866904D01*
X71148478Y-118866904D02*
X71269430Y-118866904D01*
X71269430Y-118866904D02*
X71450859Y-118927381D01*
X71450859Y-118927381D02*
X72176573Y-119653095D01*
X72176573Y-119653095D02*
X72176573Y-118866904D01*
X71027526Y-118383095D02*
X70967050Y-118322619D01*
X70967050Y-118322619D02*
X70906573Y-118201666D01*
X70906573Y-118201666D02*
X70906573Y-117899285D01*
X70906573Y-117899285D02*
X70967050Y-117778333D01*
X70967050Y-117778333D02*
X71027526Y-117717857D01*
X71027526Y-117717857D02*
X71148478Y-117657380D01*
X71148478Y-117657380D02*
X71269430Y-117657380D01*
X71269430Y-117657380D02*
X71450859Y-117717857D01*
X71450859Y-117717857D02*
X72176573Y-118443571D01*
X72176573Y-118443571D02*
X72176573Y-117657380D01*
%TO.C,Q3*%
X40384047Y-127907526D02*
X40263095Y-127847050D01*
X40263095Y-127847050D02*
X40142142Y-127726097D01*
X40142142Y-127726097D02*
X39960714Y-127544669D01*
X39960714Y-127544669D02*
X39839761Y-127484192D01*
X39839761Y-127484192D02*
X39718809Y-127484192D01*
X39779285Y-127786573D02*
X39658333Y-127726097D01*
X39658333Y-127726097D02*
X39537380Y-127605145D01*
X39537380Y-127605145D02*
X39476904Y-127363240D01*
X39476904Y-127363240D02*
X39476904Y-126939907D01*
X39476904Y-126939907D02*
X39537380Y-126698002D01*
X39537380Y-126698002D02*
X39658333Y-126577050D01*
X39658333Y-126577050D02*
X39779285Y-126516573D01*
X39779285Y-126516573D02*
X40021190Y-126516573D01*
X40021190Y-126516573D02*
X40142142Y-126577050D01*
X40142142Y-126577050D02*
X40263095Y-126698002D01*
X40263095Y-126698002D02*
X40323571Y-126939907D01*
X40323571Y-126939907D02*
X40323571Y-127363240D01*
X40323571Y-127363240D02*
X40263095Y-127605145D01*
X40263095Y-127605145D02*
X40142142Y-127726097D01*
X40142142Y-127726097D02*
X40021190Y-127786573D01*
X40021190Y-127786573D02*
X39779285Y-127786573D01*
X40746904Y-126516573D02*
X41533095Y-126516573D01*
X41533095Y-126516573D02*
X41109761Y-127000383D01*
X41109761Y-127000383D02*
X41291190Y-127000383D01*
X41291190Y-127000383D02*
X41412142Y-127060859D01*
X41412142Y-127060859D02*
X41472618Y-127121335D01*
X41472618Y-127121335D02*
X41533095Y-127242288D01*
X41533095Y-127242288D02*
X41533095Y-127544669D01*
X41533095Y-127544669D02*
X41472618Y-127665621D01*
X41472618Y-127665621D02*
X41412142Y-127726097D01*
X41412142Y-127726097D02*
X41291190Y-127786573D01*
X41291190Y-127786573D02*
X40928333Y-127786573D01*
X40928333Y-127786573D02*
X40807380Y-127726097D01*
X40807380Y-127726097D02*
X40746904Y-127665621D01*
%TO.C,R6*%
X64966573Y-70521666D02*
X64361811Y-70945000D01*
X64966573Y-71247381D02*
X63696573Y-71247381D01*
X63696573Y-71247381D02*
X63696573Y-70763571D01*
X63696573Y-70763571D02*
X63757050Y-70642619D01*
X63757050Y-70642619D02*
X63817526Y-70582142D01*
X63817526Y-70582142D02*
X63938478Y-70521666D01*
X63938478Y-70521666D02*
X64119907Y-70521666D01*
X64119907Y-70521666D02*
X64240859Y-70582142D01*
X64240859Y-70582142D02*
X64301335Y-70642619D01*
X64301335Y-70642619D02*
X64361811Y-70763571D01*
X64361811Y-70763571D02*
X64361811Y-71247381D01*
X63696573Y-69433095D02*
X63696573Y-69675000D01*
X63696573Y-69675000D02*
X63757050Y-69795952D01*
X63757050Y-69795952D02*
X63817526Y-69856428D01*
X63817526Y-69856428D02*
X63998954Y-69977381D01*
X63998954Y-69977381D02*
X64240859Y-70037857D01*
X64240859Y-70037857D02*
X64724669Y-70037857D01*
X64724669Y-70037857D02*
X64845621Y-69977381D01*
X64845621Y-69977381D02*
X64906097Y-69916904D01*
X64906097Y-69916904D02*
X64966573Y-69795952D01*
X64966573Y-69795952D02*
X64966573Y-69554047D01*
X64966573Y-69554047D02*
X64906097Y-69433095D01*
X64906097Y-69433095D02*
X64845621Y-69372619D01*
X64845621Y-69372619D02*
X64724669Y-69312142D01*
X64724669Y-69312142D02*
X64422288Y-69312142D01*
X64422288Y-69312142D02*
X64301335Y-69372619D01*
X64301335Y-69372619D02*
X64240859Y-69433095D01*
X64240859Y-69433095D02*
X64180383Y-69554047D01*
X64180383Y-69554047D02*
X64180383Y-69795952D01*
X64180383Y-69795952D02*
X64240859Y-69916904D01*
X64240859Y-69916904D02*
X64301335Y-69977381D01*
X64301335Y-69977381D02*
X64422288Y-70037857D01*
%TO.C,R10*%
X52653571Y-83736573D02*
X52230237Y-83131811D01*
X51927856Y-83736573D02*
X51927856Y-82466573D01*
X51927856Y-82466573D02*
X52411666Y-82466573D01*
X52411666Y-82466573D02*
X52532618Y-82527050D01*
X52532618Y-82527050D02*
X52593095Y-82587526D01*
X52593095Y-82587526D02*
X52653571Y-82708478D01*
X52653571Y-82708478D02*
X52653571Y-82889907D01*
X52653571Y-82889907D02*
X52593095Y-83010859D01*
X52593095Y-83010859D02*
X52532618Y-83071335D01*
X52532618Y-83071335D02*
X52411666Y-83131811D01*
X52411666Y-83131811D02*
X51927856Y-83131811D01*
X53863095Y-83736573D02*
X53137380Y-83736573D01*
X53500237Y-83736573D02*
X53500237Y-82466573D01*
X53500237Y-82466573D02*
X53379285Y-82648002D01*
X53379285Y-82648002D02*
X53258333Y-82768954D01*
X53258333Y-82768954D02*
X53137380Y-82829430D01*
X54649285Y-82466573D02*
X54770238Y-82466573D01*
X54770238Y-82466573D02*
X54891190Y-82527050D01*
X54891190Y-82527050D02*
X54951666Y-82587526D01*
X54951666Y-82587526D02*
X55012142Y-82708478D01*
X55012142Y-82708478D02*
X55072619Y-82950383D01*
X55072619Y-82950383D02*
X55072619Y-83252764D01*
X55072619Y-83252764D02*
X55012142Y-83494669D01*
X55012142Y-83494669D02*
X54951666Y-83615621D01*
X54951666Y-83615621D02*
X54891190Y-83676097D01*
X54891190Y-83676097D02*
X54770238Y-83736573D01*
X54770238Y-83736573D02*
X54649285Y-83736573D01*
X54649285Y-83736573D02*
X54528333Y-83676097D01*
X54528333Y-83676097D02*
X54467857Y-83615621D01*
X54467857Y-83615621D02*
X54407380Y-83494669D01*
X54407380Y-83494669D02*
X54346904Y-83252764D01*
X54346904Y-83252764D02*
X54346904Y-82950383D01*
X54346904Y-82950383D02*
X54407380Y-82708478D01*
X54407380Y-82708478D02*
X54467857Y-82587526D01*
X54467857Y-82587526D02*
X54528333Y-82527050D01*
X54528333Y-82527050D02*
X54649285Y-82466573D01*
%TO.C,D3*%
X45462618Y-151696573D02*
X45462618Y-150426573D01*
X45462618Y-150426573D02*
X45764999Y-150426573D01*
X45764999Y-150426573D02*
X45946428Y-150487050D01*
X45946428Y-150487050D02*
X46067380Y-150608002D01*
X46067380Y-150608002D02*
X46127857Y-150728954D01*
X46127857Y-150728954D02*
X46188333Y-150970859D01*
X46188333Y-150970859D02*
X46188333Y-151152288D01*
X46188333Y-151152288D02*
X46127857Y-151394192D01*
X46127857Y-151394192D02*
X46067380Y-151515145D01*
X46067380Y-151515145D02*
X45946428Y-151636097D01*
X45946428Y-151636097D02*
X45764999Y-151696573D01*
X45764999Y-151696573D02*
X45462618Y-151696573D01*
X46611666Y-150426573D02*
X47397857Y-150426573D01*
X47397857Y-150426573D02*
X46974523Y-150910383D01*
X46974523Y-150910383D02*
X47155952Y-150910383D01*
X47155952Y-150910383D02*
X47276904Y-150970859D01*
X47276904Y-150970859D02*
X47337380Y-151031335D01*
X47337380Y-151031335D02*
X47397857Y-151152288D01*
X47397857Y-151152288D02*
X47397857Y-151454669D01*
X47397857Y-151454669D02*
X47337380Y-151575621D01*
X47337380Y-151575621D02*
X47276904Y-151636097D01*
X47276904Y-151636097D02*
X47155952Y-151696573D01*
X47155952Y-151696573D02*
X46793095Y-151696573D01*
X46793095Y-151696573D02*
X46672142Y-151636097D01*
X46672142Y-151636097D02*
X46611666Y-151575621D01*
%TO.C,Q1*%
X51974047Y-76197526D02*
X51853095Y-76137050D01*
X51853095Y-76137050D02*
X51732142Y-76016097D01*
X51732142Y-76016097D02*
X51550714Y-75834669D01*
X51550714Y-75834669D02*
X51429761Y-75774192D01*
X51429761Y-75774192D02*
X51308809Y-75774192D01*
X51369285Y-76076573D02*
X51248333Y-76016097D01*
X51248333Y-76016097D02*
X51127380Y-75895145D01*
X51127380Y-75895145D02*
X51066904Y-75653240D01*
X51066904Y-75653240D02*
X51066904Y-75229907D01*
X51066904Y-75229907D02*
X51127380Y-74988002D01*
X51127380Y-74988002D02*
X51248333Y-74867050D01*
X51248333Y-74867050D02*
X51369285Y-74806573D01*
X51369285Y-74806573D02*
X51611190Y-74806573D01*
X51611190Y-74806573D02*
X51732142Y-74867050D01*
X51732142Y-74867050D02*
X51853095Y-74988002D01*
X51853095Y-74988002D02*
X51913571Y-75229907D01*
X51913571Y-75229907D02*
X51913571Y-75653240D01*
X51913571Y-75653240D02*
X51853095Y-75895145D01*
X51853095Y-75895145D02*
X51732142Y-76016097D01*
X51732142Y-76016097D02*
X51611190Y-76076573D01*
X51611190Y-76076573D02*
X51369285Y-76076573D01*
X53123095Y-76076573D02*
X52397380Y-76076573D01*
X52760237Y-76076573D02*
X52760237Y-74806573D01*
X52760237Y-74806573D02*
X52639285Y-74988002D01*
X52639285Y-74988002D02*
X52518333Y-75108954D01*
X52518333Y-75108954D02*
X52397380Y-75169430D01*
%TO.C,R5*%
X64966573Y-62941666D02*
X64361811Y-63365000D01*
X64966573Y-63667381D02*
X63696573Y-63667381D01*
X63696573Y-63667381D02*
X63696573Y-63183571D01*
X63696573Y-63183571D02*
X63757050Y-63062619D01*
X63757050Y-63062619D02*
X63817526Y-63002142D01*
X63817526Y-63002142D02*
X63938478Y-62941666D01*
X63938478Y-62941666D02*
X64119907Y-62941666D01*
X64119907Y-62941666D02*
X64240859Y-63002142D01*
X64240859Y-63002142D02*
X64301335Y-63062619D01*
X64301335Y-63062619D02*
X64361811Y-63183571D01*
X64361811Y-63183571D02*
X64361811Y-63667381D01*
X63696573Y-61792619D02*
X63696573Y-62397381D01*
X63696573Y-62397381D02*
X64301335Y-62457857D01*
X64301335Y-62457857D02*
X64240859Y-62397381D01*
X64240859Y-62397381D02*
X64180383Y-62276428D01*
X64180383Y-62276428D02*
X64180383Y-61974047D01*
X64180383Y-61974047D02*
X64240859Y-61853095D01*
X64240859Y-61853095D02*
X64301335Y-61792619D01*
X64301335Y-61792619D02*
X64422288Y-61732142D01*
X64422288Y-61732142D02*
X64724669Y-61732142D01*
X64724669Y-61732142D02*
X64845621Y-61792619D01*
X64845621Y-61792619D02*
X64906097Y-61853095D01*
X64906097Y-61853095D02*
X64966573Y-61974047D01*
X64966573Y-61974047D02*
X64966573Y-62276428D01*
X64966573Y-62276428D02*
X64906097Y-62397381D01*
X64906097Y-62397381D02*
X64845621Y-62457857D01*
D11*
%TO.C,TP5*%
X54618095Y-147229380D02*
X55189523Y-147229380D01*
X54903809Y-148229380D02*
X54903809Y-147229380D01*
X55522857Y-148229380D02*
X55522857Y-147229380D01*
X55522857Y-147229380D02*
X55903809Y-147229380D01*
X55903809Y-147229380D02*
X55999047Y-147277000D01*
X55999047Y-147277000D02*
X56046666Y-147324619D01*
X56046666Y-147324619D02*
X56094285Y-147419857D01*
X56094285Y-147419857D02*
X56094285Y-147562714D01*
X56094285Y-147562714D02*
X56046666Y-147657952D01*
X56046666Y-147657952D02*
X55999047Y-147705571D01*
X55999047Y-147705571D02*
X55903809Y-147753190D01*
X55903809Y-147753190D02*
X55522857Y-147753190D01*
X56999047Y-147229380D02*
X56522857Y-147229380D01*
X56522857Y-147229380D02*
X56475238Y-147705571D01*
X56475238Y-147705571D02*
X56522857Y-147657952D01*
X56522857Y-147657952D02*
X56618095Y-147610333D01*
X56618095Y-147610333D02*
X56856190Y-147610333D01*
X56856190Y-147610333D02*
X56951428Y-147657952D01*
X56951428Y-147657952D02*
X56999047Y-147705571D01*
X56999047Y-147705571D02*
X57046666Y-147800809D01*
X57046666Y-147800809D02*
X57046666Y-148038904D01*
X57046666Y-148038904D02*
X56999047Y-148134142D01*
X56999047Y-148134142D02*
X56951428Y-148181761D01*
X56951428Y-148181761D02*
X56856190Y-148229380D01*
X56856190Y-148229380D02*
X56618095Y-148229380D01*
X56618095Y-148229380D02*
X56522857Y-148181761D01*
X56522857Y-148181761D02*
X56475238Y-148134142D01*
D12*
%TO.C,R15*%
X52196573Y-132836428D02*
X51591811Y-133259762D01*
X52196573Y-133562143D02*
X50926573Y-133562143D01*
X50926573Y-133562143D02*
X50926573Y-133078333D01*
X50926573Y-133078333D02*
X50987050Y-132957381D01*
X50987050Y-132957381D02*
X51047526Y-132896904D01*
X51047526Y-132896904D02*
X51168478Y-132836428D01*
X51168478Y-132836428D02*
X51349907Y-132836428D01*
X51349907Y-132836428D02*
X51470859Y-132896904D01*
X51470859Y-132896904D02*
X51531335Y-132957381D01*
X51531335Y-132957381D02*
X51591811Y-133078333D01*
X51591811Y-133078333D02*
X51591811Y-133562143D01*
X52196573Y-131626904D02*
X52196573Y-132352619D01*
X52196573Y-131989762D02*
X50926573Y-131989762D01*
X50926573Y-131989762D02*
X51108002Y-132110714D01*
X51108002Y-132110714D02*
X51228954Y-132231666D01*
X51228954Y-132231666D02*
X51289430Y-132352619D01*
X50926573Y-130477857D02*
X50926573Y-131082619D01*
X50926573Y-131082619D02*
X51531335Y-131143095D01*
X51531335Y-131143095D02*
X51470859Y-131082619D01*
X51470859Y-131082619D02*
X51410383Y-130961666D01*
X51410383Y-130961666D02*
X51410383Y-130659285D01*
X51410383Y-130659285D02*
X51470859Y-130538333D01*
X51470859Y-130538333D02*
X51531335Y-130477857D01*
X51531335Y-130477857D02*
X51652288Y-130417380D01*
X51652288Y-130417380D02*
X51954669Y-130417380D01*
X51954669Y-130417380D02*
X52075621Y-130477857D01*
X52075621Y-130477857D02*
X52136097Y-130538333D01*
X52136097Y-130538333D02*
X52196573Y-130659285D01*
X52196573Y-130659285D02*
X52196573Y-130961666D01*
X52196573Y-130961666D02*
X52136097Y-131082619D01*
X52136097Y-131082619D02*
X52075621Y-131143095D01*
%TO.C,LED1*%
X38946809Y-48726573D02*
X38342047Y-48726573D01*
X38342047Y-48726573D02*
X38342047Y-47456573D01*
X39370142Y-48061335D02*
X39793476Y-48061335D01*
X39974904Y-48726573D02*
X39370142Y-48726573D01*
X39370142Y-48726573D02*
X39370142Y-47456573D01*
X39370142Y-47456573D02*
X39974904Y-47456573D01*
X40519190Y-48726573D02*
X40519190Y-47456573D01*
X40519190Y-47456573D02*
X40821571Y-47456573D01*
X40821571Y-47456573D02*
X41003000Y-47517050D01*
X41003000Y-47517050D02*
X41123952Y-47638002D01*
X41123952Y-47638002D02*
X41184429Y-47758954D01*
X41184429Y-47758954D02*
X41244905Y-48000859D01*
X41244905Y-48000859D02*
X41244905Y-48182288D01*
X41244905Y-48182288D02*
X41184429Y-48424192D01*
X41184429Y-48424192D02*
X41123952Y-48545145D01*
X41123952Y-48545145D02*
X41003000Y-48666097D01*
X41003000Y-48666097D02*
X40821571Y-48726573D01*
X40821571Y-48726573D02*
X40519190Y-48726573D01*
X42454429Y-48726573D02*
X41728714Y-48726573D01*
X42091571Y-48726573D02*
X42091571Y-47456573D01*
X42091571Y-47456573D02*
X41970619Y-47638002D01*
X41970619Y-47638002D02*
X41849667Y-47758954D01*
X41849667Y-47758954D02*
X41728714Y-47819430D01*
%TO.C,R17*%
X62166573Y-127016428D02*
X61561811Y-127439762D01*
X62166573Y-127742143D02*
X60896573Y-127742143D01*
X60896573Y-127742143D02*
X60896573Y-127258333D01*
X60896573Y-127258333D02*
X60957050Y-127137381D01*
X60957050Y-127137381D02*
X61017526Y-127076904D01*
X61017526Y-127076904D02*
X61138478Y-127016428D01*
X61138478Y-127016428D02*
X61319907Y-127016428D01*
X61319907Y-127016428D02*
X61440859Y-127076904D01*
X61440859Y-127076904D02*
X61501335Y-127137381D01*
X61501335Y-127137381D02*
X61561811Y-127258333D01*
X61561811Y-127258333D02*
X61561811Y-127742143D01*
X62166573Y-125806904D02*
X62166573Y-126532619D01*
X62166573Y-126169762D02*
X60896573Y-126169762D01*
X60896573Y-126169762D02*
X61078002Y-126290714D01*
X61078002Y-126290714D02*
X61198954Y-126411666D01*
X61198954Y-126411666D02*
X61259430Y-126532619D01*
X60896573Y-125383571D02*
X60896573Y-124536904D01*
X60896573Y-124536904D02*
X62166573Y-125081190D01*
%TO.C,R19*%
X68076573Y-126276428D02*
X67471811Y-126699762D01*
X68076573Y-127002143D02*
X66806573Y-127002143D01*
X66806573Y-127002143D02*
X66806573Y-126518333D01*
X66806573Y-126518333D02*
X66867050Y-126397381D01*
X66867050Y-126397381D02*
X66927526Y-126336904D01*
X66927526Y-126336904D02*
X67048478Y-126276428D01*
X67048478Y-126276428D02*
X67229907Y-126276428D01*
X67229907Y-126276428D02*
X67350859Y-126336904D01*
X67350859Y-126336904D02*
X67411335Y-126397381D01*
X67411335Y-126397381D02*
X67471811Y-126518333D01*
X67471811Y-126518333D02*
X67471811Y-127002143D01*
X68076573Y-125066904D02*
X68076573Y-125792619D01*
X68076573Y-125429762D02*
X66806573Y-125429762D01*
X66806573Y-125429762D02*
X66988002Y-125550714D01*
X66988002Y-125550714D02*
X67108954Y-125671666D01*
X67108954Y-125671666D02*
X67169430Y-125792619D01*
X68076573Y-124462142D02*
X68076573Y-124220238D01*
X68076573Y-124220238D02*
X68016097Y-124099285D01*
X68016097Y-124099285D02*
X67955621Y-124038809D01*
X67955621Y-124038809D02*
X67774192Y-123917857D01*
X67774192Y-123917857D02*
X67532288Y-123857380D01*
X67532288Y-123857380D02*
X67048478Y-123857380D01*
X67048478Y-123857380D02*
X66927526Y-123917857D01*
X66927526Y-123917857D02*
X66867050Y-123978333D01*
X66867050Y-123978333D02*
X66806573Y-124099285D01*
X66806573Y-124099285D02*
X66806573Y-124341190D01*
X66806573Y-124341190D02*
X66867050Y-124462142D01*
X66867050Y-124462142D02*
X66927526Y-124522619D01*
X66927526Y-124522619D02*
X67048478Y-124583095D01*
X67048478Y-124583095D02*
X67350859Y-124583095D01*
X67350859Y-124583095D02*
X67471811Y-124522619D01*
X67471811Y-124522619D02*
X67532288Y-124462142D01*
X67532288Y-124462142D02*
X67592764Y-124341190D01*
X67592764Y-124341190D02*
X67592764Y-124099285D01*
X67592764Y-124099285D02*
X67532288Y-123978333D01*
X67532288Y-123978333D02*
X67471811Y-123917857D01*
X67471811Y-123917857D02*
X67350859Y-123857380D01*
%TO.C,R8*%
X72496573Y-73021666D02*
X71891811Y-73445000D01*
X72496573Y-73747381D02*
X71226573Y-73747381D01*
X71226573Y-73747381D02*
X71226573Y-73263571D01*
X71226573Y-73263571D02*
X71287050Y-73142619D01*
X71287050Y-73142619D02*
X71347526Y-73082142D01*
X71347526Y-73082142D02*
X71468478Y-73021666D01*
X71468478Y-73021666D02*
X71649907Y-73021666D01*
X71649907Y-73021666D02*
X71770859Y-73082142D01*
X71770859Y-73082142D02*
X71831335Y-73142619D01*
X71831335Y-73142619D02*
X71891811Y-73263571D01*
X71891811Y-73263571D02*
X71891811Y-73747381D01*
X71770859Y-72295952D02*
X71710383Y-72416904D01*
X71710383Y-72416904D02*
X71649907Y-72477381D01*
X71649907Y-72477381D02*
X71528954Y-72537857D01*
X71528954Y-72537857D02*
X71468478Y-72537857D01*
X71468478Y-72537857D02*
X71347526Y-72477381D01*
X71347526Y-72477381D02*
X71287050Y-72416904D01*
X71287050Y-72416904D02*
X71226573Y-72295952D01*
X71226573Y-72295952D02*
X71226573Y-72054047D01*
X71226573Y-72054047D02*
X71287050Y-71933095D01*
X71287050Y-71933095D02*
X71347526Y-71872619D01*
X71347526Y-71872619D02*
X71468478Y-71812142D01*
X71468478Y-71812142D02*
X71528954Y-71812142D01*
X71528954Y-71812142D02*
X71649907Y-71872619D01*
X71649907Y-71872619D02*
X71710383Y-71933095D01*
X71710383Y-71933095D02*
X71770859Y-72054047D01*
X71770859Y-72054047D02*
X71770859Y-72295952D01*
X71770859Y-72295952D02*
X71831335Y-72416904D01*
X71831335Y-72416904D02*
X71891811Y-72477381D01*
X71891811Y-72477381D02*
X72012764Y-72537857D01*
X72012764Y-72537857D02*
X72254669Y-72537857D01*
X72254669Y-72537857D02*
X72375621Y-72477381D01*
X72375621Y-72477381D02*
X72436097Y-72416904D01*
X72436097Y-72416904D02*
X72496573Y-72295952D01*
X72496573Y-72295952D02*
X72496573Y-72054047D01*
X72496573Y-72054047D02*
X72436097Y-71933095D01*
X72436097Y-71933095D02*
X72375621Y-71872619D01*
X72375621Y-71872619D02*
X72254669Y-71812142D01*
X72254669Y-71812142D02*
X72012764Y-71812142D01*
X72012764Y-71812142D02*
X71891811Y-71872619D01*
X71891811Y-71872619D02*
X71831335Y-71933095D01*
X71831335Y-71933095D02*
X71770859Y-72054047D01*
%TO.C,R4*%
X57156573Y-65461666D02*
X56551811Y-65885000D01*
X57156573Y-66187381D02*
X55886573Y-66187381D01*
X55886573Y-66187381D02*
X55886573Y-65703571D01*
X55886573Y-65703571D02*
X55947050Y-65582619D01*
X55947050Y-65582619D02*
X56007526Y-65522142D01*
X56007526Y-65522142D02*
X56128478Y-65461666D01*
X56128478Y-65461666D02*
X56309907Y-65461666D01*
X56309907Y-65461666D02*
X56430859Y-65522142D01*
X56430859Y-65522142D02*
X56491335Y-65582619D01*
X56491335Y-65582619D02*
X56551811Y-65703571D01*
X56551811Y-65703571D02*
X56551811Y-66187381D01*
X56309907Y-64373095D02*
X57156573Y-64373095D01*
X55826097Y-64675476D02*
X56733240Y-64977857D01*
X56733240Y-64977857D02*
X56733240Y-64191666D01*
%TO.C,R18*%
X62036573Y-122716428D02*
X61431811Y-123139762D01*
X62036573Y-123442143D02*
X60766573Y-123442143D01*
X60766573Y-123442143D02*
X60766573Y-122958333D01*
X60766573Y-122958333D02*
X60827050Y-122837381D01*
X60827050Y-122837381D02*
X60887526Y-122776904D01*
X60887526Y-122776904D02*
X61008478Y-122716428D01*
X61008478Y-122716428D02*
X61189907Y-122716428D01*
X61189907Y-122716428D02*
X61310859Y-122776904D01*
X61310859Y-122776904D02*
X61371335Y-122837381D01*
X61371335Y-122837381D02*
X61431811Y-122958333D01*
X61431811Y-122958333D02*
X61431811Y-123442143D01*
X62036573Y-121506904D02*
X62036573Y-122232619D01*
X62036573Y-121869762D02*
X60766573Y-121869762D01*
X60766573Y-121869762D02*
X60948002Y-121990714D01*
X60948002Y-121990714D02*
X61068954Y-122111666D01*
X61068954Y-122111666D02*
X61129430Y-122232619D01*
X61310859Y-120781190D02*
X61250383Y-120902142D01*
X61250383Y-120902142D02*
X61189907Y-120962619D01*
X61189907Y-120962619D02*
X61068954Y-121023095D01*
X61068954Y-121023095D02*
X61008478Y-121023095D01*
X61008478Y-121023095D02*
X60887526Y-120962619D01*
X60887526Y-120962619D02*
X60827050Y-120902142D01*
X60827050Y-120902142D02*
X60766573Y-120781190D01*
X60766573Y-120781190D02*
X60766573Y-120539285D01*
X60766573Y-120539285D02*
X60827050Y-120418333D01*
X60827050Y-120418333D02*
X60887526Y-120357857D01*
X60887526Y-120357857D02*
X61008478Y-120297380D01*
X61008478Y-120297380D02*
X61068954Y-120297380D01*
X61068954Y-120297380D02*
X61189907Y-120357857D01*
X61189907Y-120357857D02*
X61250383Y-120418333D01*
X61250383Y-120418333D02*
X61310859Y-120539285D01*
X61310859Y-120539285D02*
X61310859Y-120781190D01*
X61310859Y-120781190D02*
X61371335Y-120902142D01*
X61371335Y-120902142D02*
X61431811Y-120962619D01*
X61431811Y-120962619D02*
X61552764Y-121023095D01*
X61552764Y-121023095D02*
X61794669Y-121023095D01*
X61794669Y-121023095D02*
X61915621Y-120962619D01*
X61915621Y-120962619D02*
X61976097Y-120902142D01*
X61976097Y-120902142D02*
X62036573Y-120781190D01*
X62036573Y-120781190D02*
X62036573Y-120539285D01*
X62036573Y-120539285D02*
X61976097Y-120418333D01*
X61976097Y-120418333D02*
X61915621Y-120357857D01*
X61915621Y-120357857D02*
X61794669Y-120297380D01*
X61794669Y-120297380D02*
X61552764Y-120297380D01*
X61552764Y-120297380D02*
X61431811Y-120357857D01*
X61431811Y-120357857D02*
X61371335Y-120418333D01*
X61371335Y-120418333D02*
X61310859Y-120539285D01*
D11*
%TO.C,TP12*%
X38901905Y-120745380D02*
X39473333Y-120745380D01*
X39187619Y-121745380D02*
X39187619Y-120745380D01*
X39806667Y-121745380D02*
X39806667Y-120745380D01*
X39806667Y-120745380D02*
X40187619Y-120745380D01*
X40187619Y-120745380D02*
X40282857Y-120793000D01*
X40282857Y-120793000D02*
X40330476Y-120840619D01*
X40330476Y-120840619D02*
X40378095Y-120935857D01*
X40378095Y-120935857D02*
X40378095Y-121078714D01*
X40378095Y-121078714D02*
X40330476Y-121173952D01*
X40330476Y-121173952D02*
X40282857Y-121221571D01*
X40282857Y-121221571D02*
X40187619Y-121269190D01*
X40187619Y-121269190D02*
X39806667Y-121269190D01*
X41330476Y-121745380D02*
X40759048Y-121745380D01*
X41044762Y-121745380D02*
X41044762Y-120745380D01*
X41044762Y-120745380D02*
X40949524Y-120888238D01*
X40949524Y-120888238D02*
X40854286Y-120983476D01*
X40854286Y-120983476D02*
X40759048Y-121031095D01*
X41711429Y-120840619D02*
X41759048Y-120793000D01*
X41759048Y-120793000D02*
X41854286Y-120745380D01*
X41854286Y-120745380D02*
X42092381Y-120745380D01*
X42092381Y-120745380D02*
X42187619Y-120793000D01*
X42187619Y-120793000D02*
X42235238Y-120840619D01*
X42235238Y-120840619D02*
X42282857Y-120935857D01*
X42282857Y-120935857D02*
X42282857Y-121031095D01*
X42282857Y-121031095D02*
X42235238Y-121173952D01*
X42235238Y-121173952D02*
X41663810Y-121745380D01*
X41663810Y-121745380D02*
X42282857Y-121745380D01*
%TO.C,JP11*%
X65947380Y-139709523D02*
X66661666Y-139709523D01*
X66661666Y-139709523D02*
X66804523Y-139757142D01*
X66804523Y-139757142D02*
X66899761Y-139852380D01*
X66899761Y-139852380D02*
X66947380Y-139995237D01*
X66947380Y-139995237D02*
X66947380Y-140090475D01*
X66947380Y-139233332D02*
X65947380Y-139233332D01*
X65947380Y-139233332D02*
X65947380Y-138852380D01*
X65947380Y-138852380D02*
X65995000Y-138757142D01*
X65995000Y-138757142D02*
X66042619Y-138709523D01*
X66042619Y-138709523D02*
X66137857Y-138661904D01*
X66137857Y-138661904D02*
X66280714Y-138661904D01*
X66280714Y-138661904D02*
X66375952Y-138709523D01*
X66375952Y-138709523D02*
X66423571Y-138757142D01*
X66423571Y-138757142D02*
X66471190Y-138852380D01*
X66471190Y-138852380D02*
X66471190Y-139233332D01*
X66947380Y-137709523D02*
X66947380Y-138280951D01*
X66947380Y-137995237D02*
X65947380Y-137995237D01*
X65947380Y-137995237D02*
X66090238Y-138090475D01*
X66090238Y-138090475D02*
X66185476Y-138185713D01*
X66185476Y-138185713D02*
X66233095Y-138280951D01*
X66947380Y-136757142D02*
X66947380Y-137328570D01*
X66947380Y-137042856D02*
X65947380Y-137042856D01*
X65947380Y-137042856D02*
X66090238Y-137138094D01*
X66090238Y-137138094D02*
X66185476Y-137233332D01*
X66185476Y-137233332D02*
X66233095Y-137328570D01*
D12*
%TO.C,R20*%
X67276573Y-119326428D02*
X66671811Y-119749762D01*
X67276573Y-120052143D02*
X66006573Y-120052143D01*
X66006573Y-120052143D02*
X66006573Y-119568333D01*
X66006573Y-119568333D02*
X66067050Y-119447381D01*
X66067050Y-119447381D02*
X66127526Y-119386904D01*
X66127526Y-119386904D02*
X66248478Y-119326428D01*
X66248478Y-119326428D02*
X66429907Y-119326428D01*
X66429907Y-119326428D02*
X66550859Y-119386904D01*
X66550859Y-119386904D02*
X66611335Y-119447381D01*
X66611335Y-119447381D02*
X66671811Y-119568333D01*
X66671811Y-119568333D02*
X66671811Y-120052143D01*
X66127526Y-118842619D02*
X66067050Y-118782143D01*
X66067050Y-118782143D02*
X66006573Y-118661190D01*
X66006573Y-118661190D02*
X66006573Y-118358809D01*
X66006573Y-118358809D02*
X66067050Y-118237857D01*
X66067050Y-118237857D02*
X66127526Y-118177381D01*
X66127526Y-118177381D02*
X66248478Y-118116904D01*
X66248478Y-118116904D02*
X66369430Y-118116904D01*
X66369430Y-118116904D02*
X66550859Y-118177381D01*
X66550859Y-118177381D02*
X67276573Y-118903095D01*
X67276573Y-118903095D02*
X67276573Y-118116904D01*
X66006573Y-117330714D02*
X66006573Y-117209761D01*
X66006573Y-117209761D02*
X66067050Y-117088809D01*
X66067050Y-117088809D02*
X66127526Y-117028333D01*
X66127526Y-117028333D02*
X66248478Y-116967857D01*
X66248478Y-116967857D02*
X66490383Y-116907380D01*
X66490383Y-116907380D02*
X66792764Y-116907380D01*
X66792764Y-116907380D02*
X67034669Y-116967857D01*
X67034669Y-116967857D02*
X67155621Y-117028333D01*
X67155621Y-117028333D02*
X67216097Y-117088809D01*
X67216097Y-117088809D02*
X67276573Y-117209761D01*
X67276573Y-117209761D02*
X67276573Y-117330714D01*
X67276573Y-117330714D02*
X67216097Y-117451666D01*
X67216097Y-117451666D02*
X67155621Y-117512142D01*
X67155621Y-117512142D02*
X67034669Y-117572619D01*
X67034669Y-117572619D02*
X66792764Y-117633095D01*
X66792764Y-117633095D02*
X66490383Y-117633095D01*
X66490383Y-117633095D02*
X66248478Y-117572619D01*
X66248478Y-117572619D02*
X66127526Y-117512142D01*
X66127526Y-117512142D02*
X66067050Y-117451666D01*
X66067050Y-117451666D02*
X66006573Y-117330714D01*
D11*
%TO.C,TP10*%
X75025380Y-128738094D02*
X75025380Y-128166666D01*
X76025380Y-128452380D02*
X75025380Y-128452380D01*
X76025380Y-127833332D02*
X75025380Y-127833332D01*
X75025380Y-127833332D02*
X75025380Y-127452380D01*
X75025380Y-127452380D02*
X75073000Y-127357142D01*
X75073000Y-127357142D02*
X75120619Y-127309523D01*
X75120619Y-127309523D02*
X75215857Y-127261904D01*
X75215857Y-127261904D02*
X75358714Y-127261904D01*
X75358714Y-127261904D02*
X75453952Y-127309523D01*
X75453952Y-127309523D02*
X75501571Y-127357142D01*
X75501571Y-127357142D02*
X75549190Y-127452380D01*
X75549190Y-127452380D02*
X75549190Y-127833332D01*
X76025380Y-126309523D02*
X76025380Y-126880951D01*
X76025380Y-126595237D02*
X75025380Y-126595237D01*
X75025380Y-126595237D02*
X75168238Y-126690475D01*
X75168238Y-126690475D02*
X75263476Y-126785713D01*
X75263476Y-126785713D02*
X75311095Y-126880951D01*
X75025380Y-125690475D02*
X75025380Y-125595237D01*
X75025380Y-125595237D02*
X75073000Y-125499999D01*
X75073000Y-125499999D02*
X75120619Y-125452380D01*
X75120619Y-125452380D02*
X75215857Y-125404761D01*
X75215857Y-125404761D02*
X75406333Y-125357142D01*
X75406333Y-125357142D02*
X75644428Y-125357142D01*
X75644428Y-125357142D02*
X75834904Y-125404761D01*
X75834904Y-125404761D02*
X75930142Y-125452380D01*
X75930142Y-125452380D02*
X75977761Y-125499999D01*
X75977761Y-125499999D02*
X76025380Y-125595237D01*
X76025380Y-125595237D02*
X76025380Y-125690475D01*
X76025380Y-125690475D02*
X75977761Y-125785713D01*
X75977761Y-125785713D02*
X75930142Y-125833332D01*
X75930142Y-125833332D02*
X75834904Y-125880951D01*
X75834904Y-125880951D02*
X75644428Y-125928570D01*
X75644428Y-125928570D02*
X75406333Y-125928570D01*
X75406333Y-125928570D02*
X75215857Y-125880951D01*
X75215857Y-125880951D02*
X75120619Y-125833332D01*
X75120619Y-125833332D02*
X75073000Y-125785713D01*
X75073000Y-125785713D02*
X75025380Y-125690475D01*
D12*
%TO.C,Q2*%
X57057526Y-120795952D02*
X56997050Y-120916904D01*
X56997050Y-120916904D02*
X56876097Y-121037857D01*
X56876097Y-121037857D02*
X56694669Y-121219285D01*
X56694669Y-121219285D02*
X56634192Y-121340238D01*
X56634192Y-121340238D02*
X56634192Y-121461190D01*
X56936573Y-121400714D02*
X56876097Y-121521666D01*
X56876097Y-121521666D02*
X56755145Y-121642619D01*
X56755145Y-121642619D02*
X56513240Y-121703095D01*
X56513240Y-121703095D02*
X56089907Y-121703095D01*
X56089907Y-121703095D02*
X55848002Y-121642619D01*
X55848002Y-121642619D02*
X55727050Y-121521666D01*
X55727050Y-121521666D02*
X55666573Y-121400714D01*
X55666573Y-121400714D02*
X55666573Y-121158809D01*
X55666573Y-121158809D02*
X55727050Y-121037857D01*
X55727050Y-121037857D02*
X55848002Y-120916904D01*
X55848002Y-120916904D02*
X56089907Y-120856428D01*
X56089907Y-120856428D02*
X56513240Y-120856428D01*
X56513240Y-120856428D02*
X56755145Y-120916904D01*
X56755145Y-120916904D02*
X56876097Y-121037857D01*
X56876097Y-121037857D02*
X56936573Y-121158809D01*
X56936573Y-121158809D02*
X56936573Y-121400714D01*
X55787526Y-120372619D02*
X55727050Y-120312143D01*
X55727050Y-120312143D02*
X55666573Y-120191190D01*
X55666573Y-120191190D02*
X55666573Y-119888809D01*
X55666573Y-119888809D02*
X55727050Y-119767857D01*
X55727050Y-119767857D02*
X55787526Y-119707381D01*
X55787526Y-119707381D02*
X55908478Y-119646904D01*
X55908478Y-119646904D02*
X56029430Y-119646904D01*
X56029430Y-119646904D02*
X56210859Y-119707381D01*
X56210859Y-119707381D02*
X56936573Y-120433095D01*
X56936573Y-120433095D02*
X56936573Y-119646904D01*
D11*
%TO.C,TP3*%
X44458095Y-55789380D02*
X45029523Y-55789380D01*
X44743809Y-56789380D02*
X44743809Y-55789380D01*
X45362857Y-56789380D02*
X45362857Y-55789380D01*
X45362857Y-55789380D02*
X45743809Y-55789380D01*
X45743809Y-55789380D02*
X45839047Y-55837000D01*
X45839047Y-55837000D02*
X45886666Y-55884619D01*
X45886666Y-55884619D02*
X45934285Y-55979857D01*
X45934285Y-55979857D02*
X45934285Y-56122714D01*
X45934285Y-56122714D02*
X45886666Y-56217952D01*
X45886666Y-56217952D02*
X45839047Y-56265571D01*
X45839047Y-56265571D02*
X45743809Y-56313190D01*
X45743809Y-56313190D02*
X45362857Y-56313190D01*
X46267619Y-55789380D02*
X46886666Y-55789380D01*
X46886666Y-55789380D02*
X46553333Y-56170333D01*
X46553333Y-56170333D02*
X46696190Y-56170333D01*
X46696190Y-56170333D02*
X46791428Y-56217952D01*
X46791428Y-56217952D02*
X46839047Y-56265571D01*
X46839047Y-56265571D02*
X46886666Y-56360809D01*
X46886666Y-56360809D02*
X46886666Y-56598904D01*
X46886666Y-56598904D02*
X46839047Y-56694142D01*
X46839047Y-56694142D02*
X46791428Y-56741761D01*
X46791428Y-56741761D02*
X46696190Y-56789380D01*
X46696190Y-56789380D02*
X46410476Y-56789380D01*
X46410476Y-56789380D02*
X46315238Y-56741761D01*
X46315238Y-56741761D02*
X46267619Y-56694142D01*
%TO.C,TP2*%
X72398095Y-48169380D02*
X72969523Y-48169380D01*
X72683809Y-49169380D02*
X72683809Y-48169380D01*
X73302857Y-49169380D02*
X73302857Y-48169380D01*
X73302857Y-48169380D02*
X73683809Y-48169380D01*
X73683809Y-48169380D02*
X73779047Y-48217000D01*
X73779047Y-48217000D02*
X73826666Y-48264619D01*
X73826666Y-48264619D02*
X73874285Y-48359857D01*
X73874285Y-48359857D02*
X73874285Y-48502714D01*
X73874285Y-48502714D02*
X73826666Y-48597952D01*
X73826666Y-48597952D02*
X73779047Y-48645571D01*
X73779047Y-48645571D02*
X73683809Y-48693190D01*
X73683809Y-48693190D02*
X73302857Y-48693190D01*
X74255238Y-48264619D02*
X74302857Y-48217000D01*
X74302857Y-48217000D02*
X74398095Y-48169380D01*
X74398095Y-48169380D02*
X74636190Y-48169380D01*
X74636190Y-48169380D02*
X74731428Y-48217000D01*
X74731428Y-48217000D02*
X74779047Y-48264619D01*
X74779047Y-48264619D02*
X74826666Y-48359857D01*
X74826666Y-48359857D02*
X74826666Y-48455095D01*
X74826666Y-48455095D02*
X74779047Y-48597952D01*
X74779047Y-48597952D02*
X74207619Y-49169380D01*
X74207619Y-49169380D02*
X74826666Y-49169380D01*
%TO.C,JP5*%
X61426666Y-83727380D02*
X61426666Y-84441666D01*
X61426666Y-84441666D02*
X61379047Y-84584523D01*
X61379047Y-84584523D02*
X61283809Y-84679761D01*
X61283809Y-84679761D02*
X61140952Y-84727380D01*
X61140952Y-84727380D02*
X61045714Y-84727380D01*
X61902857Y-84727380D02*
X61902857Y-83727380D01*
X61902857Y-83727380D02*
X62283809Y-83727380D01*
X62283809Y-83727380D02*
X62379047Y-83775000D01*
X62379047Y-83775000D02*
X62426666Y-83822619D01*
X62426666Y-83822619D02*
X62474285Y-83917857D01*
X62474285Y-83917857D02*
X62474285Y-84060714D01*
X62474285Y-84060714D02*
X62426666Y-84155952D01*
X62426666Y-84155952D02*
X62379047Y-84203571D01*
X62379047Y-84203571D02*
X62283809Y-84251190D01*
X62283809Y-84251190D02*
X61902857Y-84251190D01*
X63379047Y-83727380D02*
X62902857Y-83727380D01*
X62902857Y-83727380D02*
X62855238Y-84203571D01*
X62855238Y-84203571D02*
X62902857Y-84155952D01*
X62902857Y-84155952D02*
X62998095Y-84108333D01*
X62998095Y-84108333D02*
X63236190Y-84108333D01*
X63236190Y-84108333D02*
X63331428Y-84155952D01*
X63331428Y-84155952D02*
X63379047Y-84203571D01*
X63379047Y-84203571D02*
X63426666Y-84298809D01*
X63426666Y-84298809D02*
X63426666Y-84536904D01*
X63426666Y-84536904D02*
X63379047Y-84632142D01*
X63379047Y-84632142D02*
X63331428Y-84679761D01*
X63331428Y-84679761D02*
X63236190Y-84727380D01*
X63236190Y-84727380D02*
X62998095Y-84727380D01*
X62998095Y-84727380D02*
X62902857Y-84679761D01*
X62902857Y-84679761D02*
X62855238Y-84632142D01*
%TO.C,TP11*%
X46521905Y-135985380D02*
X47093333Y-135985380D01*
X46807619Y-136985380D02*
X46807619Y-135985380D01*
X47426667Y-136985380D02*
X47426667Y-135985380D01*
X47426667Y-135985380D02*
X47807619Y-135985380D01*
X47807619Y-135985380D02*
X47902857Y-136033000D01*
X47902857Y-136033000D02*
X47950476Y-136080619D01*
X47950476Y-136080619D02*
X47998095Y-136175857D01*
X47998095Y-136175857D02*
X47998095Y-136318714D01*
X47998095Y-136318714D02*
X47950476Y-136413952D01*
X47950476Y-136413952D02*
X47902857Y-136461571D01*
X47902857Y-136461571D02*
X47807619Y-136509190D01*
X47807619Y-136509190D02*
X47426667Y-136509190D01*
X48950476Y-136985380D02*
X48379048Y-136985380D01*
X48664762Y-136985380D02*
X48664762Y-135985380D01*
X48664762Y-135985380D02*
X48569524Y-136128238D01*
X48569524Y-136128238D02*
X48474286Y-136223476D01*
X48474286Y-136223476D02*
X48379048Y-136271095D01*
X49902857Y-136985380D02*
X49331429Y-136985380D01*
X49617143Y-136985380D02*
X49617143Y-135985380D01*
X49617143Y-135985380D02*
X49521905Y-136128238D01*
X49521905Y-136128238D02*
X49426667Y-136223476D01*
X49426667Y-136223476D02*
X49331429Y-136271095D01*
D12*
%TO.C,LED3*%
X37880809Y-150886573D02*
X37276047Y-150886573D01*
X37276047Y-150886573D02*
X37276047Y-149616573D01*
X38304142Y-150221335D02*
X38727476Y-150221335D01*
X38908904Y-150886573D02*
X38304142Y-150886573D01*
X38304142Y-150886573D02*
X38304142Y-149616573D01*
X38304142Y-149616573D02*
X38908904Y-149616573D01*
X39453190Y-150886573D02*
X39453190Y-149616573D01*
X39453190Y-149616573D02*
X39755571Y-149616573D01*
X39755571Y-149616573D02*
X39937000Y-149677050D01*
X39937000Y-149677050D02*
X40057952Y-149798002D01*
X40057952Y-149798002D02*
X40118429Y-149918954D01*
X40118429Y-149918954D02*
X40178905Y-150160859D01*
X40178905Y-150160859D02*
X40178905Y-150342288D01*
X40178905Y-150342288D02*
X40118429Y-150584192D01*
X40118429Y-150584192D02*
X40057952Y-150705145D01*
X40057952Y-150705145D02*
X39937000Y-150826097D01*
X39937000Y-150826097D02*
X39755571Y-150886573D01*
X39755571Y-150886573D02*
X39453190Y-150886573D01*
X40602238Y-149616573D02*
X41388429Y-149616573D01*
X41388429Y-149616573D02*
X40965095Y-150100383D01*
X40965095Y-150100383D02*
X41146524Y-150100383D01*
X41146524Y-150100383D02*
X41267476Y-150160859D01*
X41267476Y-150160859D02*
X41327952Y-150221335D01*
X41327952Y-150221335D02*
X41388429Y-150342288D01*
X41388429Y-150342288D02*
X41388429Y-150644669D01*
X41388429Y-150644669D02*
X41327952Y-150765621D01*
X41327952Y-150765621D02*
X41267476Y-150826097D01*
X41267476Y-150826097D02*
X41146524Y-150886573D01*
X41146524Y-150886573D02*
X40783667Y-150886573D01*
X40783667Y-150886573D02*
X40662714Y-150826097D01*
X40662714Y-150826097D02*
X40602238Y-150765621D01*
D11*
%TO.C,JP12*%
X71110476Y-147227380D02*
X71110476Y-147941666D01*
X71110476Y-147941666D02*
X71062857Y-148084523D01*
X71062857Y-148084523D02*
X70967619Y-148179761D01*
X70967619Y-148179761D02*
X70824762Y-148227380D01*
X70824762Y-148227380D02*
X70729524Y-148227380D01*
X71586667Y-148227380D02*
X71586667Y-147227380D01*
X71586667Y-147227380D02*
X71967619Y-147227380D01*
X71967619Y-147227380D02*
X72062857Y-147275000D01*
X72062857Y-147275000D02*
X72110476Y-147322619D01*
X72110476Y-147322619D02*
X72158095Y-147417857D01*
X72158095Y-147417857D02*
X72158095Y-147560714D01*
X72158095Y-147560714D02*
X72110476Y-147655952D01*
X72110476Y-147655952D02*
X72062857Y-147703571D01*
X72062857Y-147703571D02*
X71967619Y-147751190D01*
X71967619Y-147751190D02*
X71586667Y-147751190D01*
X73110476Y-148227380D02*
X72539048Y-148227380D01*
X72824762Y-148227380D02*
X72824762Y-147227380D01*
X72824762Y-147227380D02*
X72729524Y-147370238D01*
X72729524Y-147370238D02*
X72634286Y-147465476D01*
X72634286Y-147465476D02*
X72539048Y-147513095D01*
X73491429Y-147322619D02*
X73539048Y-147275000D01*
X73539048Y-147275000D02*
X73634286Y-147227380D01*
X73634286Y-147227380D02*
X73872381Y-147227380D01*
X73872381Y-147227380D02*
X73967619Y-147275000D01*
X73967619Y-147275000D02*
X74015238Y-147322619D01*
X74015238Y-147322619D02*
X74062857Y-147417857D01*
X74062857Y-147417857D02*
X74062857Y-147513095D01*
X74062857Y-147513095D02*
X74015238Y-147655952D01*
X74015238Y-147655952D02*
X73443810Y-148227380D01*
X73443810Y-148227380D02*
X74062857Y-148227380D01*
D13*
%TO.C,TP8*%
X64700000Y-148660000D02*
X64700000Y-151060000D01*
X62300000Y-148660000D02*
X64700000Y-148660000D01*
X64700000Y-151060000D02*
X62300000Y-151060000D01*
X62300000Y-151060000D02*
X62300000Y-148660000D01*
%TO.C,TP6*%
X69780000Y-77540000D02*
X69780000Y-79940000D01*
X67380000Y-77540000D02*
X69780000Y-77540000D01*
X69780000Y-79940000D02*
X67380000Y-79940000D01*
X67380000Y-79940000D02*
X67380000Y-77540000D01*
D14*
%TO.C,R24*%
X38940000Y-141238000D02*
X38940000Y-140162000D01*
D11*
%TO.C,JP1*%
X50400000Y-59450000D02*
X49900000Y-58950000D01*
X51200000Y-59450000D02*
X50400000Y-59450000D01*
X49900000Y-58950000D02*
X49900000Y-55350000D01*
X51700000Y-58950000D02*
X51200000Y-59450000D01*
X49900000Y-55350000D02*
X50400000Y-54850000D01*
X51700000Y-55350000D02*
X51700000Y-58950000D01*
X50400000Y-54850000D02*
X51200000Y-54850000D01*
X51200000Y-54850000D02*
X51700000Y-55350000D01*
D15*
%TO.C,LED2*%
X73663000Y-99527000D02*
X73663000Y-99527000D01*
X73663000Y-99585000D02*
X73663000Y-99585000D01*
D14*
X73660000Y-100070000D02*
X73660000Y-100070000D01*
X75060000Y-105388000D02*
X72260000Y-105388000D01*
X73660000Y-105670000D02*
X73660000Y-105670000D01*
D15*
X73663000Y-99585000D02*
G75*
G03*
X73663000Y-99527000I0J29000D01*
G01*
X73663000Y-99527000D02*
G75*
G03*
X73663000Y-99585000I0J-29000D01*
G01*
D14*
X73660000Y-105670000D02*
G75*
G03*
X73660000Y-100070000I0J2800000D01*
G01*
X73660000Y-100070000D02*
G75*
G03*
X73660000Y-105670000I0J-2800000D01*
G01*
D13*
%TO.C,J1*%
X39310000Y-77410000D02*
X40640000Y-77410000D01*
X39310000Y-78740000D02*
X39310000Y-77410000D01*
X39310000Y-80010000D02*
X39310000Y-113090000D01*
X39310000Y-80010000D02*
X41910000Y-80010000D01*
X39310000Y-113090000D02*
X44510000Y-113090000D01*
X41910000Y-77410000D02*
X44510000Y-77410000D01*
X41910000Y-80010000D02*
X41910000Y-77410000D01*
X44510000Y-77410000D02*
X44510000Y-113090000D01*
D14*
%TO.C,R21*%
X64038000Y-116840000D02*
X62962000Y-116840000D01*
%TO.C,R2*%
X39690000Y-57882000D02*
X39690000Y-58958000D01*
D13*
%TO.C,TP9*%
X49460000Y-120720000D02*
X49460000Y-123120000D01*
X47060000Y-120720000D02*
X49460000Y-120720000D01*
X49460000Y-123120000D02*
X47060000Y-123120000D01*
X47060000Y-123120000D02*
X47060000Y-120720000D01*
D14*
%TO.C,R7*%
X73348000Y-66840000D02*
X73972000Y-66840000D01*
D11*
%TO.C,JP9*%
X52940000Y-140730000D02*
X52440000Y-140230000D01*
X53740000Y-140730000D02*
X52940000Y-140730000D01*
X52440000Y-140230000D02*
X52440000Y-136630000D01*
X54240000Y-140230000D02*
X53740000Y-140730000D01*
X52440000Y-136630000D02*
X52940000Y-136130000D01*
X54240000Y-136630000D02*
X54240000Y-140230000D01*
X52940000Y-136130000D02*
X53740000Y-136130000D01*
X53740000Y-136130000D02*
X54240000Y-136630000D01*
%TO.C,JP8*%
X59930000Y-108820000D02*
X60430000Y-108320000D01*
X59930000Y-109620000D02*
X59930000Y-108820000D01*
X60430000Y-108320000D02*
X64030000Y-108320000D01*
X60430000Y-110120000D02*
X59930000Y-109620000D01*
X64030000Y-108320000D02*
X64530000Y-108820000D01*
X64030000Y-110120000D02*
X60430000Y-110120000D01*
X64530000Y-108820000D02*
X64530000Y-109620000D01*
X64530000Y-109620000D02*
X64030000Y-110120000D01*
%TO.C,JP7*%
X59930000Y-101200000D02*
X60430000Y-100700000D01*
X59930000Y-102000000D02*
X59930000Y-101200000D01*
X60430000Y-100700000D02*
X64030000Y-100700000D01*
X60430000Y-102500000D02*
X59930000Y-102000000D01*
X64030000Y-100700000D02*
X64530000Y-101200000D01*
X64030000Y-102500000D02*
X60430000Y-102500000D01*
X64530000Y-101200000D02*
X64530000Y-102000000D01*
X64530000Y-102000000D02*
X64030000Y-102500000D01*
D14*
%TO.C,R11*%
X54140000Y-96208000D02*
X54140000Y-96832000D01*
%TO.C,R1*%
X40330000Y-65502000D02*
X40330000Y-66578000D01*
D13*
%TO.C,TP4*%
X41980000Y-69920000D02*
X44380000Y-69920000D01*
X41980000Y-72320000D02*
X41980000Y-69920000D01*
X44380000Y-69920000D02*
X44380000Y-72320000D01*
X44380000Y-72320000D02*
X41980000Y-72320000D01*
D14*
%TO.C,R14*%
X49060000Y-108908000D02*
X49060000Y-109532000D01*
D13*
%TO.C,TP7*%
X74860000Y-83890000D02*
X74860000Y-86290000D01*
X72460000Y-83890000D02*
X74860000Y-83890000D01*
X74860000Y-86290000D02*
X72460000Y-86290000D01*
X72460000Y-86290000D02*
X72460000Y-83890000D01*
D11*
%TO.C,JP3*%
X65640000Y-56910000D02*
X65140000Y-56410000D01*
X66440000Y-56910000D02*
X65640000Y-56910000D01*
X65140000Y-56410000D02*
X65140000Y-52810000D01*
X66940000Y-56410000D02*
X66440000Y-56910000D01*
X65140000Y-52810000D02*
X65640000Y-52310000D01*
X66940000Y-52810000D02*
X66940000Y-56410000D01*
X65640000Y-52310000D02*
X66440000Y-52310000D01*
X66440000Y-52310000D02*
X66940000Y-52810000D01*
D13*
%TO.C,TP1*%
X54680000Y-47060000D02*
X57080000Y-47060000D01*
X54680000Y-49460000D02*
X54680000Y-47060000D01*
X57080000Y-47060000D02*
X57080000Y-49460000D01*
X57080000Y-49460000D02*
X54680000Y-49460000D01*
D11*
%TO.C,JP10*%
X60560000Y-140730000D02*
X60060000Y-140230000D01*
X61360000Y-140730000D02*
X60560000Y-140730000D01*
X60060000Y-140230000D02*
X60060000Y-136630000D01*
X61860000Y-140230000D02*
X61360000Y-140730000D01*
X60060000Y-136630000D02*
X60560000Y-136130000D01*
X61860000Y-136630000D02*
X61860000Y-140230000D01*
X60560000Y-136130000D02*
X61360000Y-136130000D01*
X61360000Y-136130000D02*
X61860000Y-136630000D01*
D10*
%TO.C,D2*%
X74500000Y-97820000D02*
X74500000Y-97820000D01*
X74500000Y-97920000D02*
X74500000Y-97920000D01*
X74500000Y-97920000D02*
G75*
G03*
X74500000Y-97820000I0J50000D01*
G01*
X74500000Y-97820000D02*
G75*
G03*
X74500000Y-97920000I0J-50000D01*
G01*
%TO.C,D1*%
X49880000Y-47430000D02*
X49880000Y-47430000D01*
X49980000Y-47430000D02*
X49980000Y-47430000D01*
X49980000Y-47430000D02*
G75*
G03*
X49880000Y-47430000I-50000J0D01*
G01*
X49880000Y-47430000D02*
G75*
G03*
X49980000Y-47430000I50000J0D01*
G01*
D14*
%TO.C,R13*%
X54140000Y-106368000D02*
X54140000Y-106992000D01*
D11*
%TO.C,JP4*%
X73260000Y-59450000D02*
X72760000Y-58950000D01*
X74060000Y-59450000D02*
X73260000Y-59450000D01*
X72760000Y-58950000D02*
X72760000Y-55350000D01*
X74560000Y-58950000D02*
X74060000Y-59450000D01*
X72760000Y-55350000D02*
X73260000Y-54850000D01*
X74560000Y-55350000D02*
X74560000Y-58950000D01*
X73260000Y-54850000D02*
X74060000Y-54850000D01*
X74060000Y-54850000D02*
X74560000Y-55350000D01*
D14*
%TO.C,R23*%
X41590000Y-135158000D02*
X41590000Y-134082000D01*
D11*
%TO.C,JP2*%
X58020000Y-56910000D02*
X57520000Y-56410000D01*
X58820000Y-56910000D02*
X58020000Y-56910000D01*
X57520000Y-56410000D02*
X57520000Y-52810000D01*
X59320000Y-56410000D02*
X58820000Y-56910000D01*
X57520000Y-52810000D02*
X58020000Y-52310000D01*
X59320000Y-52810000D02*
X59320000Y-56410000D01*
X58020000Y-52310000D02*
X58820000Y-52310000D01*
X58820000Y-52310000D02*
X59320000Y-52810000D01*
D14*
%TO.C,R16*%
X61272000Y-131280000D02*
X60648000Y-131280000D01*
D11*
%TO.C,JP6*%
X59930000Y-93580000D02*
X60430000Y-93080000D01*
X59930000Y-94380000D02*
X59930000Y-93580000D01*
X60430000Y-93080000D02*
X64030000Y-93080000D01*
X60430000Y-94880000D02*
X59930000Y-94380000D01*
X64030000Y-93080000D02*
X64530000Y-93580000D01*
X64030000Y-94880000D02*
X60430000Y-94880000D01*
X64530000Y-93580000D02*
X64530000Y-94380000D01*
X64530000Y-94380000D02*
X64030000Y-94880000D01*
D14*
%TO.C,R3*%
X50488000Y-66840000D02*
X51112000Y-66840000D01*
%TO.C,R12*%
X49060000Y-103828000D02*
X49060000Y-104452000D01*
%TO.C,R9*%
X60160000Y-73348000D02*
X60160000Y-73972000D01*
%TO.C,R22*%
X73948000Y-119380000D02*
X72872000Y-119380000D01*
D10*
%TO.C,Q3*%
X43500000Y-126730000D02*
X43500000Y-126730000D01*
X43400000Y-126730000D02*
X43400000Y-126730000D01*
X43400000Y-126730000D02*
G75*
G03*
X43500000Y-126730000I50000J0D01*
G01*
X43500000Y-126730000D02*
G75*
G03*
X43400000Y-126730000I-50000J0D01*
G01*
D14*
%TO.C,R6*%
X65728000Y-70320000D02*
X66352000Y-70320000D01*
%TO.C,R10*%
X53340000Y-85248000D02*
X53340000Y-85872000D01*
D10*
%TO.C,D3*%
X44030000Y-151230000D02*
X44030000Y-151230000D01*
X43930000Y-151230000D02*
X43930000Y-151230000D01*
X43930000Y-151230000D02*
G75*
G03*
X44030000Y-151230000I50000J0D01*
G01*
X44030000Y-151230000D02*
G75*
G03*
X43930000Y-151230000I-50000J0D01*
G01*
%TO.C,Q1*%
X49100000Y-76200000D02*
X49100000Y-76200000D01*
X49200000Y-76200000D02*
X49200000Y-76200000D01*
X49200000Y-76200000D02*
G75*
G03*
X49100000Y-76200000I-50000J0D01*
G01*
X49100000Y-76200000D02*
G75*
G03*
X49200000Y-76200000I50000J0D01*
G01*
D14*
%TO.C,R5*%
X65728000Y-62700000D02*
X66352000Y-62700000D01*
D13*
%TO.C,TP5*%
X54680000Y-148660000D02*
X57080000Y-148660000D01*
X54680000Y-151060000D02*
X54680000Y-148660000D01*
X57080000Y-148660000D02*
X57080000Y-151060000D01*
X57080000Y-151060000D02*
X54680000Y-151060000D01*
D14*
%TO.C,R15*%
X53652000Y-132080000D02*
X53028000Y-132080000D01*
D15*
%TO.C,LED1*%
X37297000Y-48257000D02*
X37297000Y-48257000D01*
X37355000Y-48257000D02*
X37355000Y-48257000D01*
D14*
X37840000Y-48260000D02*
X37840000Y-48260000D01*
X43158000Y-46860000D02*
X43158000Y-49660000D01*
X43440000Y-48260000D02*
X43440000Y-48260000D01*
D15*
X37355000Y-48257000D02*
G75*
G03*
X37297000Y-48257000I-29000J0D01*
G01*
X37297000Y-48257000D02*
G75*
G03*
X37355000Y-48257000I29000J0D01*
G01*
D14*
X43440000Y-48260000D02*
G75*
G03*
X37840000Y-48260000I-2800000J0D01*
G01*
X37840000Y-48260000D02*
G75*
G03*
X43440000Y-48260000I2800000J0D01*
G01*
%TO.C,R17*%
X62938000Y-126200000D02*
X63562000Y-126200000D01*
%TO.C,R19*%
X68958000Y-125400000D02*
X69582000Y-125400000D01*
%TO.C,R8*%
X73348000Y-72860000D02*
X73972000Y-72860000D01*
%TO.C,R4*%
X58108000Y-65240000D02*
X58732000Y-65240000D01*
%TO.C,R18*%
X63562000Y-121920000D02*
X62938000Y-121920000D01*
D13*
%TO.C,TP12*%
X41840000Y-120580000D02*
X39440000Y-120580000D01*
X41840000Y-118180000D02*
X41840000Y-120580000D01*
X39440000Y-120580000D02*
X39440000Y-118180000D01*
X39440000Y-118180000D02*
X41840000Y-118180000D01*
D11*
%TO.C,JP11*%
X68180000Y-140730000D02*
X67680000Y-140230000D01*
X68980000Y-140730000D02*
X68180000Y-140730000D01*
X67680000Y-140230000D02*
X67680000Y-136630000D01*
X69480000Y-140230000D02*
X68980000Y-140730000D01*
X67680000Y-136630000D02*
X68180000Y-136130000D01*
X69480000Y-136630000D02*
X69480000Y-140230000D01*
X68180000Y-136130000D02*
X68980000Y-136130000D01*
X68980000Y-136130000D02*
X69480000Y-136630000D01*
D14*
%TO.C,R20*%
X68642000Y-118580000D02*
X68018000Y-118580000D01*
D13*
%TO.C,TP10*%
X74860000Y-125800000D02*
X74860000Y-128200000D01*
X72460000Y-125800000D02*
X74860000Y-125800000D01*
X74860000Y-128200000D02*
X72460000Y-128200000D01*
X72460000Y-128200000D02*
X72460000Y-125800000D01*
D10*
%TO.C,Q2*%
X55880000Y-117680000D02*
X55880000Y-117680000D01*
X55880000Y-117780000D02*
X55880000Y-117780000D01*
X55880000Y-117780000D02*
G75*
G03*
X55880000Y-117680000I0J50000D01*
G01*
X55880000Y-117680000D02*
G75*
G03*
X55880000Y-117780000I0J-50000D01*
G01*
D13*
%TO.C,TP3*%
X44520000Y-57220000D02*
X46920000Y-57220000D01*
X44520000Y-59620000D02*
X44520000Y-57220000D01*
X46920000Y-57220000D02*
X46920000Y-59620000D01*
X46920000Y-59620000D02*
X44520000Y-59620000D01*
%TO.C,TP2*%
X72460000Y-49600000D02*
X74860000Y-49600000D01*
X72460000Y-52000000D02*
X72460000Y-49600000D01*
X74860000Y-49600000D02*
X74860000Y-52000000D01*
X74860000Y-52000000D02*
X72460000Y-52000000D01*
D11*
%TO.C,JP5*%
X59930000Y-85960000D02*
X60430000Y-85460000D01*
X59930000Y-86760000D02*
X59930000Y-85960000D01*
X60430000Y-85460000D02*
X64030000Y-85460000D01*
X60430000Y-87260000D02*
X59930000Y-86760000D01*
X64030000Y-85460000D02*
X64530000Y-85960000D01*
X64030000Y-87260000D02*
X60430000Y-87260000D01*
X64530000Y-85960000D02*
X64530000Y-86760000D01*
X64530000Y-86760000D02*
X64030000Y-87260000D01*
D13*
%TO.C,TP11*%
X49460000Y-135820000D02*
X47060000Y-135820000D01*
X49460000Y-133420000D02*
X49460000Y-135820000D01*
X47060000Y-135820000D02*
X47060000Y-133420000D01*
X47060000Y-133420000D02*
X49460000Y-133420000D01*
D15*
%TO.C,LED3*%
X42373000Y-150423000D02*
X42373000Y-150423000D01*
X42315000Y-150423000D02*
X42315000Y-150423000D01*
D14*
X41830000Y-150420000D02*
X41830000Y-150420000D01*
X36512000Y-151820000D02*
X36512000Y-149020000D01*
X36230000Y-150420000D02*
X36230000Y-150420000D01*
D15*
X42315000Y-150423000D02*
G75*
G03*
X42373000Y-150423000I29000J0D01*
G01*
X42373000Y-150423000D02*
G75*
G03*
X42315000Y-150423000I-29000J0D01*
G01*
D14*
X36230000Y-150420000D02*
G75*
G03*
X41830000Y-150420000I2800000J0D01*
G01*
X41830000Y-150420000D02*
G75*
G03*
X36230000Y-150420000I-2800000J0D01*
G01*
D11*
%TO.C,JP12*%
X70090000Y-149460000D02*
X70590000Y-148960000D01*
X70090000Y-150260000D02*
X70090000Y-149460000D01*
X70590000Y-148960000D02*
X74190000Y-148960000D01*
X70590000Y-150760000D02*
X70090000Y-150260000D01*
X74190000Y-148960000D02*
X74690000Y-149460000D01*
X74190000Y-150760000D02*
X70590000Y-150760000D01*
X74690000Y-149460000D02*
X74690000Y-150260000D01*
X74690000Y-150260000D02*
X74190000Y-150760000D01*
%TD*%
M02*
